<svg width="60" height="60" viewBox="0 0 60 60" fill="none" xmlns="http://www.w3.org/2000/svg">
<path fill-rule="evenodd" clip-rule="evenodd" d="M33.6346 8.52777C32.3856 7.80677 30.8668 7.5 29.4495 7.5C28.0321 7.5 26.5133 7.80677 25.2643 8.52777L6.03279 19.6301C4.79442 20.3451 3.75 21.5442 3.75 23.1289C3.75 24.7135 4.79442 25.9127 6.03279 26.6276L10.3873 29.1415V40.5831C10.3874 42.2165 11.4962 43.4041 12.6701 44.0818L25.1225 51.2705C26.3714 51.9915 27.8903 52.2983 29.3076 52.2983C30.725 52.2983 32.2438 51.9915 33.4928 51.2705L45.9451 44.0818C47.119 43.4041 48.2279 42.2164 48.2279 40.5831V29.3052L51.5625 27.3801V34.4661C50.9871 34.9811 50.625 35.7295 50.625 36.5625C50.625 38.1158 51.8842 39.375 53.4375 39.375C54.9908 39.375 56.25 38.1158 56.25 36.5625C56.25 35.7295 55.8879 34.9811 55.3125 34.4661V27.046C55.3125 26.1993 55.125 25.395 54.7887 24.6732C55.016 24.2104 55.1489 23.6942 55.1489 23.1289C55.1489 21.5442 54.1045 20.3451 52.8661 19.6301L33.6346 8.52777ZM14.1373 40.5074V31.3063L25.2643 37.7299C26.5133 38.4509 28.0321 38.7577 29.4494 38.7577C30.8668 38.7577 32.3856 38.4509 33.6346 37.7299L44.4779 31.4701V40.5074C44.4347 40.5665 44.3184 40.6908 44.0702 40.8341L31.6179 48.0229C31.0731 48.3373 30.2412 48.5483 29.3076 48.5483C28.3741 48.5483 27.5421 48.3373 26.9974 48.0229L14.545 40.8341C14.2968 40.6908 14.1805 40.5665 14.1373 40.5074ZM29.1346 20.6264L48.373 21.3663L31.7597 11.7754C31.2149 11.461 30.383 11.25 29.4494 11.25C28.5159 11.25 27.684 11.461 27.1392 11.7754L7.90767 22.8778C7.73617 22.9768 7.62896 23.0651 7.56497 23.1289C7.62896 23.1926 7.73617 23.2809 7.90766 23.3799L27.1392 34.4823C27.6839 34.7967 28.5159 35.0077 29.4494 35.0077C30.383 35.0077 31.2149 34.7967 31.7597 34.4823L48.0032 25.1049L28.9904 24.3736C27.9557 24.3338 27.1491 23.4627 27.1889 22.4279C27.2287 21.3932 28.0998 20.5866 29.1346 20.6264Z" fill="#FF7255"/>
</svg>
