<svg width="47" height="46" viewBox="0 0 47 46" fill="none" xmlns="http://www.w3.org/2000/svg">
<path fill-rule="evenodd" clip-rule="evenodd" d="M7.6875 5.75C7.6875 4.95609 8.33109 4.3125 9.125 4.3125C27.4661 4.3125 42.1875 20.6363 42.1875 38.8125C42.1875 39.6064 41.5439 40.25 40.75 40.25C39.9561 40.25 39.3125 39.6064 39.3125 38.8125C39.3125 22.0567 25.7159 7.1875 9.125 7.1875C8.33109 7.1875 7.6875 6.54391 7.6875 5.75ZM9.125 17.25C9.125 16.4561 9.76859 15.8125 10.5625 15.8125C21.8635 15.8125 30.6875 26.31 30.6875 38.8125C30.6875 39.6064 30.0439 40.25 29.25 40.25C28.4561 40.25 27.8125 39.6064 27.8125 38.8125C27.8125 27.4978 19.9032 18.6875 10.5625 18.6875C9.76859 18.6875 9.125 18.0439 9.125 17.25ZM12.7188 28.75C9.94007 28.75 7.6875 31.0026 7.6875 33.7812C7.6875 36.5599 9.94007 38.8125 12.7188 38.8125C15.4974 38.8125 17.75 36.5599 17.75 33.7812C17.75 31.0026 15.4974 28.75 12.7188 28.75ZM4.8125 33.7812C4.8125 29.4147 8.35225 25.875 12.7188 25.875C17.0853 25.875 20.625 29.4147 20.625 33.7812C20.625 38.1478 17.0853 41.6875 12.7188 41.6875C8.35225 41.6875 4.8125 38.1478 4.8125 33.7812Z" fill="#FF2B00"/>
</svg>
