<svg width="20" height="21" viewBox="0 0 20 21" fill="none" xmlns="http://www.w3.org/2000/svg">
<path fill-rule="evenodd" clip-rule="evenodd" d="M10 2.375C10.3452 2.375 10.625 2.65482 10.625 3V4.25L15.625 4.25C15.9702 4.25 16.25 4.52982 16.25 4.875C16.25 4.98837 16.2198 5.09469 16.167 5.18636L18.75 9.06079V9.25003C18.75 10.9759 17.3509 12.375 15.625 12.375C13.8991 12.375 12.5 10.9759 12.5 9.25003V9.06079L14.8739 5.5L10.625 5.5V14.25H14.375C15.4105 14.25 16.25 15.0895 16.25 16.125C16.25 17.1605 15.4105 18 14.375 18H5.625C4.58947 18 3.75 17.1605 3.75 16.125C3.75 15.0895 4.58947 14.25 5.625 14.25H9.375V5.5L5.12614 5.5L7.5 9.06079V9.25003C7.5 10.9759 6.10089 12.375 4.375 12.375C2.64911 12.375 1.25 10.9759 1.25 9.25003V9.06079L3.83296 5.18636C3.78018 5.09469 3.75 4.98837 3.75 4.875C3.75 4.52982 4.02982 4.25 4.375 4.25L9.375 4.25V3C9.375 2.65482 9.65482 2.375 10 2.375ZM4.375 11.125C5.19139 11.125 5.88591 10.6033 6.14331 9.87503H2.60669C2.86409 10.6033 3.55861 11.125 4.375 11.125ZM3.04282 8.62503H5.70718L4.375 6.62676L3.04282 8.62503ZM17.3933 9.87503C17.1359 10.6033 16.4414 11.125 15.625 11.125C14.8086 11.125 14.1141 10.6033 13.8567 9.87503H17.3933ZM16.9572 8.62503H14.2928L15.625 6.62676L16.9572 8.62503ZM5 16.125C5 15.7798 5.27982 15.5 5.625 15.5H14.375C14.7202 15.5 15 15.7798 15 16.125C15 16.4702 14.7202 16.75 14.375 16.75H5.625C5.27982 16.75 5 16.4702 5 16.125Z" fill="#868686"/>
</svg>
