<svg width="40" height="40" viewBox="0 0 40 40" fill="none" xmlns="http://www.w3.org/2000/svg">
<circle cx="19.999" cy="20.001" r="20.001" fill="#F4F4F4"/>
<path fill-rule="evenodd" clip-rule="evenodd" d="M14.2095 20.0016C14.2095 19.2022 13.5615 18.5542 12.7621 18.5542C11.9627 18.5542 11.3146 19.2022 11.3146 20.0016C11.3146 20.801 11.9627 21.449 12.7621 21.449C13.5615 21.449 14.2095 20.801 14.2095 20.0016ZM15.6569 20.0016C15.6569 18.4028 14.3609 17.1067 12.7621 17.1067C11.1633 17.1067 9.86719 18.4028 9.86719 20.0016C9.86719 21.6004 11.1633 22.8965 12.7621 22.8965C14.3609 22.8965 15.6569 21.6004 15.6569 20.0016Z" fill="#868686"/>
<path fill-rule="evenodd" clip-rule="evenodd" d="M21.4468 20.0016C21.4468 19.2022 20.7988 18.5542 19.9994 18.5542C19.2 18.5542 18.5519 19.2022 18.5519 20.0016C18.5519 20.801 19.2 21.449 19.9994 21.449C20.7988 21.449 21.4468 20.801 21.4468 20.0016ZM22.8942 20.0016C22.8942 18.4028 21.5982 17.1067 19.9994 17.1067C18.4006 17.1067 17.1045 18.4028 17.1045 20.0016C17.1045 21.6004 18.4006 22.8965 19.9994 22.8965C21.5982 22.8965 22.8942 21.6004 22.8942 20.0016Z" fill="#868686"/>
<path fill-rule="evenodd" clip-rule="evenodd" d="M28.6841 20.0016C28.6841 19.2022 28.0361 18.5542 27.2367 18.5542C26.4373 18.5542 25.7892 19.2022 25.7892 20.0016C25.7892 20.801 26.4373 21.449 27.2367 21.449C28.0361 21.449 28.6841 20.801 28.6841 20.0016ZM30.1316 20.0016C30.1316 18.4028 28.8355 17.1067 27.2367 17.1067C25.6379 17.1067 24.3418 18.4028 24.3418 20.0016C24.3418 21.6004 25.6379 22.8965 27.2367 22.8965C28.8355 22.8965 30.1316 21.6004 30.1316 20.0016Z" fill="#868686"/>
</svg>
