<svg width="20" height="20" viewBox="0 0 20 20" fill="none" xmlns="http://www.w3.org/2000/svg">
<path fill-rule="evenodd" clip-rule="evenodd" d="M14.9074 12.4742L15.6874 12.1001C17.7942 11.0895 18.75 9.72426 18.75 8.51825C18.75 7.46605 18.0351 6.30177 16.4265 5.33371C14.8423 4.38027 12.5732 3.75 10 3.75C7.42684 3.75 5.15774 4.38027 3.57349 5.33371C1.96495 6.30177 1.25 7.46605 1.25 8.51825C1.25 9.57045 1.96495 10.7347 3.57349 11.7028C5.15774 12.6562 7.42684 13.2865 10 13.2865C10.4941 13.2865 10.9782 13.2632 11.4495 13.2186L11.9265 13.1734L15.1794 15.5828L14.9074 12.4742ZM16.228 13.2271L16.5307 16.6859C16.5851 17.3076 15.9651 17.7204 15.4973 17.3739L11.5674 14.463C11.0568 14.5114 10.5333 14.5365 10 14.5365C4.47715 14.5365 0 11.842 0 8.51825C0 5.19446 4.47715 2.5 10 2.5C15.5228 2.5 20 5.19446 20 8.51825C20 10.4249 18.5268 12.1244 16.228 13.2271Z" fill="#868686"/>
<path d="M7.5 8.4375C7.5 8.95527 7.08027 9.375 6.5625 9.375C6.04473 9.375 5.625 8.95527 5.625 8.4375C5.625 7.91973 6.04473 7.5 6.5625 7.5C7.08027 7.5 7.5 7.91973 7.5 8.4375Z" fill="#868686"/>
<path d="M10.7812 8.4375C10.7812 8.95527 10.3615 9.375 9.84375 9.375C9.32598 9.375 8.90625 8.95527 8.90625 8.4375C8.90625 7.91973 9.32598 7.5 9.84375 7.5C10.3615 7.5 10.7812 7.91973 10.7812 8.4375Z" fill="#868686"/>
<path d="M14.0625 8.4375C14.0625 8.95527 13.6428 9.375 13.125 9.375C12.6072 9.375 12.1875 8.95527 12.1875 8.4375C12.1875 7.91973 12.6072 7.5 13.125 7.5C13.6428 7.5 14.0625 7.91973 14.0625 8.4375Z" fill="#868686"/>
</svg>
