<svg width="20" height="20" viewBox="0 0 20 20" fill="none" xmlns="http://www.w3.org/2000/svg">
<path fill-rule="evenodd" clip-rule="evenodd" d="M4.80007 3.00195L8.06875 5.15389C8.35706 5.3437 8.43691 5.73128 8.2471 6.01959C8.05729 6.3079 7.6697 6.38775 7.3814 6.19794L5.42507 4.90999L5.42507 15.0002H10.0001C10.3452 15.0002 10.6251 15.2801 10.6251 15.6252C10.6251 15.9704 10.3452 16.2502 10.0001 16.2502H4.17507L4.17507 4.90999L2.21875 6.19794C1.93044 6.38775 1.54285 6.3079 1.35304 6.01959C1.16324 5.73128 1.24309 5.3437 1.53139 5.15389L4.80007 3.00195ZM9.37507 3.75024C9.37507 3.40506 9.65489 3.12524 10.0001 3.12524H15.8251V14.4655L17.7814 13.1775C18.0697 12.9877 18.4573 13.0676 18.6471 13.3559C18.8369 13.6442 18.7571 14.0318 18.4687 14.2216L15.2001 16.3735L11.9314 14.2216C11.6431 14.0318 11.5632 13.6442 11.753 13.3559C11.9429 13.0676 12.3304 12.9877 12.6187 13.1775L14.5751 14.4655V4.37524H10.0001C9.65489 4.37524 9.37507 4.09542 9.37507 3.75024Z" fill="#868686"/>
</svg>
