<svg width="20" height="20" viewBox="0 0 20 20" fill="none" xmlns="http://www.w3.org/2000/svg">
<path fill-rule="evenodd" clip-rule="evenodd" d="M9.99876 16.2128C9.92426 16.1514 9.83015 16.0731 9.72031 15.9812C9.43888 15.7458 9.05956 15.4258 8.65523 15.0829C7.8454 14.396 6.9424 13.6235 6.52791 13.2589C4.82322 11.7574 4.00508 10.7967 3.55756 9.88181M9.99876 16.2128C10.0732 16.1515 10.1671 16.0733 10.2768 15.9816C10.558 15.7465 10.937 15.4267 11.3412 15.0839C12.1508 14.3973 13.054 13.6247 13.4697 13.2587C15.7218 11.2756 16.5272 10.1257 16.8043 8.85812L16.805 8.85478C16.8331 8.72973 16.8595 8.47587 16.8701 8.18165C16.8807 7.88984 16.8734 7.62422 16.8541 7.48069C16.7381 6.61796 16.412 5.92666 15.8858 5.37092C15.2594 4.71146 14.472 4.375 13.528 4.375C12.8373 4.375 12.2929 4.5494 11.7369 4.9438C11.3829 5.19894 10.9192 5.70468 10.6639 6.12716C10.6278 6.18783 10.5891 6.2477 10.5534 6.29748C10.5366 6.32092 10.5126 6.35302 10.4849 6.38453C10.4726 6.39856 10.4463 6.42765 10.4103 6.45834C10.3928 6.47324 10.3585 6.50101 10.3108 6.52815C10.2767 6.54758 10.1616 6.61102 9.99874 6.61102C9.83593 6.61102 9.72076 6.54758 9.68665 6.52815C9.63901 6.50101 9.60473 6.47324 9.58722 6.45834C9.55114 6.42765 9.52491 6.39856 9.51257 6.38453C9.48486 6.35302 9.46093 6.32092 9.4441 6.29748C9.40882 6.24832 9.37065 6.18931 9.33495 6.12941C9.18023 5.8782 8.90002 5.52479 8.66536 5.29221C8.17246 4.80661 7.60351 4.51121 7.02532 4.4128C6.90814 4.3934 6.69743 4.37931 6.46254 4.37863C6.22583 4.37794 6.01897 4.39104 5.90859 4.40976L5.90717 4.41C4.753 4.60298 3.77072 5.43398 3.35034 6.61645L3.34953 6.61868C3.16892 7.12066 3.10959 7.51164 3.12823 8.16351L3.12827 8.16479C3.14631 8.84393 3.24632 9.24438 3.55756 9.88181M10.1727 17.4923C10.2134 17.4885 10.3128 17.4784 10.4128 17.4413L10.4191 17.4389L10.4254 17.4364C10.4714 17.4182 10.5051 17.3983 10.5144 17.3928C10.5288 17.3844 10.5404 17.3768 10.5471 17.3723C10.5608 17.3631 10.5724 17.3547 10.5794 17.3495C10.5943 17.3385 10.6098 17.3265 10.6236 17.3157C10.6521 17.2932 10.689 17.2633 10.7317 17.2284C10.8178 17.158 10.9368 17.0592 11.0787 16.9405C11.363 16.7028 11.7444 16.381 12.1497 16.0373C12.9588 15.3511 13.8701 14.5716 14.2956 14.197C16.5805 12.185 17.657 10.8085 18.0251 9.1264C18.0789 8.88563 18.108 8.53942 18.1193 8.22685C18.1307 7.91107 18.1263 7.56257 18.0929 7.31408C17.9451 6.21403 17.5151 5.27337 16.7928 4.51082L16.7922 4.51018C15.9237 3.59578 14.8058 3.125 13.528 3.125C12.5779 3.125 11.7801 3.38006 11.0116 3.92574L11.0086 3.92794C10.6743 4.16834 10.3059 4.5315 9.99769 4.91229C9.85047 4.72857 9.69256 4.55028 9.54457 4.40367L9.54343 4.40255C8.88769 3.75624 8.09125 3.32593 7.23368 3.18028L7.23172 3.17996C7.01747 3.14427 6.72894 3.1294 6.46619 3.12863C6.20487 3.12787 5.91523 3.14087 5.70032 3.17723C4.07632 3.44904 2.73757 4.60958 2.17292 6.19669C1.93183 6.86716 1.85641 7.41675 1.87873 8.19861C1.90178 9.06396 2.04807 9.63927 2.43432 10.4303C2.9952 11.5771 3.97118 12.6727 5.70171 14.1969C6.12568 14.5699 7.03719 15.3496 7.84671 16.0362C8.25215 16.38 8.63386 16.7021 8.91834 16.9401C9.06034 17.0588 9.17946 17.1578 9.26562 17.2283C9.30832 17.2632 9.3453 17.2931 9.37383 17.3156C9.3876 17.3264 9.40312 17.3385 9.41798 17.3494C9.425 17.3546 9.43659 17.3631 9.45028 17.3722C9.45704 17.3767 9.4685 17.3842 9.48288 17.3927C9.49218 17.3982 9.52606 17.4182 9.5721 17.4364L9.57837 17.4389L9.58469 17.4413C9.68471 17.4784 9.78411 17.4885 9.8248 17.4923C9.88291 17.4978 9.94328 17.5 9.99874 17.5C10.0542 17.5 10.1146 17.4978 10.1727 17.4923Z" fill="#868686"/>
</svg>
