<svg width="26" height="26" viewBox="0 0 26 26" fill="none" xmlns="http://www.w3.org/2000/svg">
<path fill-rule="evenodd" clip-rule="evenodd" d="M4.55303 3.7576C6.05926 2.67804 7.68178 2.4375 8.23652 2.4375C8.68525 2.4375 9.04902 2.80127 9.04902 3.25C9.04902 3.69873 8.68525 4.0625 8.23652 4.0625C7.96283 4.0625 6.68584 4.22823 5.49967 5.07839C4.36663 5.89047 3.25 7.37104 3.25 10.1563C3.25 10.605 2.88623 10.9688 2.4375 10.9688C1.98877 10.9688 1.625 10.605 1.625 10.1563C1.625 6.84781 2.99367 4.87523 4.55303 3.7576ZM13.1509 2.4375C13.5997 2.4375 13.9634 2.80127 13.9634 3.25L13.9634 5.09286C17.5957 5.47195 20.4935 8.36215 20.4935 11.9679C20.4935 12.3618 20.4585 12.7486 20.391 13.1256C20.0861 14.83 20.1068 16.3896 21.0414 17.368L21.9827 18.3534C22.3404 18.7278 22.3827 19.2421 22.1907 19.6431C22.0019 20.0375 21.5963 20.3125 21.1149 20.3125H17.2511C16.8678 22.1761 15.1917 23.5625 13.2071 23.5625C11.2225 23.5625 9.54645 22.1761 9.16315 20.3125H5.29936C4.8179 20.3125 4.41236 20.0375 4.22353 19.6431C4.03148 19.2421 4.07385 18.7278 4.43152 18.3534L5.28466 17.4603C6.22881 16.4719 6.23948 14.892 5.91904 13.1704C5.84625 12.7794 5.80839 12.3775 5.80839 11.9679C5.80839 8.36215 8.70623 5.47195 12.3384 5.09286L12.3384 3.25C12.3384 2.80127 12.7022 2.4375 13.1509 2.4375ZM10.8487 20.3125C11.1904 21.2529 12.1085 21.9375 13.2071 21.9375C14.3057 21.9375 15.2238 21.2529 15.5655 20.3125H10.8487ZM16.951 3.25C16.951 2.80127 17.3147 2.4375 17.7635 2.4375C18.3182 2.4375 19.9407 2.67804 21.447 3.7576C23.0063 4.87523 24.375 6.84781 24.375 10.1563C24.375 10.605 24.0112 10.9688 23.5625 10.9688C23.1138 10.9688 22.75 10.605 22.75 10.1563C22.75 7.37104 21.6334 5.89047 20.5003 5.07839C19.3142 4.22823 18.0372 4.0625 17.7635 4.0625C17.3147 4.0625 16.951 3.69873 16.951 3.25ZM13.1509 6.67568C9.94081 6.67568 7.43339 9.09577 7.43339 11.9679C7.43339 12.2771 7.46195 12.5794 7.5166 12.873C7.83885 14.6044 8.01274 16.9569 6.45971 18.5827L6.35962 18.6875H20.0546L19.8664 18.4904C18.3289 16.881 18.4841 14.5569 18.7914 12.8393C18.8421 12.5563 18.8685 12.2653 18.8685 11.9679C18.8685 9.09577 16.3611 6.67568 13.1509 6.67568ZM20.8077 19.4758C20.8074 19.4756 20.8072 19.4754 20.807 19.4751L20.8077 19.4758Z" fill="#FF7255"/>
</svg>
