<svg width="18" height="18" viewBox="0 0 18 18" fill="none" xmlns="http://www.w3.org/2000/svg">
<path fill-rule="evenodd" clip-rule="evenodd" d="M5.34375 1.125C5.65441 1.125 5.90625 1.37684 5.90625 1.6875V3.375H12.0938V1.6875C12.0938 1.37684 12.3456 1.125 12.6562 1.125C12.9669 1.125 13.2188 1.37684 13.2188 1.6875V3.375H14.625C15.8676 3.375 16.875 4.38236 16.875 5.625V14.0625C16.875 15.3051 15.8676 16.3125 14.625 16.3125H3.375C2.13236 16.3125 1.125 15.3051 1.125 14.0625V5.625C1.125 4.38236 2.13236 3.375 3.375 3.375H4.78125V1.6875C4.78125 1.37684 5.03309 1.125 5.34375 1.125ZM3.375 4.5C2.75368 4.5 2.25 5.00368 2.25 5.625V6.75H15.75V5.625C15.75 5.00368 15.2463 4.5 14.625 4.5H3.375ZM15.75 7.875H2.25V14.0625C2.25 14.6838 2.75368 15.1875 3.375 15.1875H14.625C15.2463 15.1875 15.75 14.6838 15.75 14.0625V7.875ZM3.9375 10.125C3.9375 9.50368 4.44118 9 5.0625 9H7.3125C7.93382 9 8.4375 9.50368 8.4375 10.125V12.375C8.4375 12.9963 7.93382 13.5 7.3125 13.5H5.0625C4.44118 13.5 3.9375 12.9963 3.9375 12.375V10.125ZM7.3125 10.125H5.0625V12.375H7.3125V10.125Z" fill="#FF7255"/>
</svg>
