<svg width="20" height="20" viewBox="0 0 20 20" fill="none" xmlns="http://www.w3.org/2000/svg">
<path fill-rule="evenodd" clip-rule="evenodd" d="M5.9375 1.25C6.28268 1.25 6.5625 1.52982 6.5625 1.875V3.75H13.4375V1.875C13.4375 1.52982 13.7173 1.25 14.0625 1.25C14.4077 1.25 14.6875 1.52982 14.6875 1.875V3.75H16.25C17.6307 3.75 18.75 4.86929 18.75 6.25V15.625C18.75 17.0057 17.6307 18.125 16.25 18.125H3.75C2.36929 18.125 1.25 17.0057 1.25 15.625V6.25C1.25 4.86929 2.36929 3.75 3.75 3.75H5.3125V1.875C5.3125 1.52982 5.59232 1.25 5.9375 1.25ZM3.75 5C3.05964 5 2.5 5.55964 2.5 6.25V7.5H17.5V6.25C17.5 5.55964 16.9404 5 16.25 5H3.75ZM17.5 8.75H2.5V15.625C2.5 16.3154 3.05964 16.875 3.75 16.875H16.25C16.9404 16.875 17.5 16.3154 17.5 15.625V8.75ZM4.375 11.25C4.375 10.5596 4.93464 10 5.625 10H8.125C8.81536 10 9.375 10.5596 9.375 11.25V13.75C9.375 14.4404 8.81536 15 8.125 15H5.625C4.93464 15 4.375 14.4404 4.375 13.75V11.25ZM8.125 11.25H5.625V13.75H8.125V11.25Z" fill="#868686"/>
</svg>
