<svg width="227" height="107" viewBox="0 0 227 107" fill="none" xmlns="http://www.w3.org/2000/svg">
<path d="M3.10938 92.3314V102.283H199.89C213.145 102.283 223.89 91.5375 223.89 78.2827V65.7827L201.416 30.5035C194.953 20.3588 181.979 16.5648 171.069 21.6293L168.985 22.5969C166.58 23.7131 164.377 25.2199 162.465 27.0561L125.752 62.3162C123.371 64.6026 120.544 66.3734 117.448 67.5178L99.9161 73.9983C94.2068 76.1087 87.9089 75.9709 82.2974 73.6128L47.245 58.8832C40.4964 56.0473 32.7378 57.1249 27.0174 61.6925L12.134 73.5767C6.43057 78.1308 3.10938 85.0328 3.10938 92.3314Z" fill="url(#paint0_linear_12226_37836)"/>
<path d="M4.60938 81.7827L24.6967 63.6643C31.956 57.1166 42.4613 55.6263 51.2552 59.8968L61.4381 64.8417C62.7273 65.4678 63.958 66.2081 65.1151 67.0538L74.3791 73.824C81.1418 78.7663 89.9919 79.8252 97.7297 76.618L119.238 67.7028C122.294 66.4364 125.054 64.5522 127.347 62.1684L163.029 25.0668C174.039 13.6193 192.932 15.8308 201 29.5116L222.391 65.7827" stroke="#25DE85" stroke-width="4"/>
<defs>
<linearGradient id="paint0_linear_12226_37836" x1="113.5" y1="5.28271" x2="113.5" y2="102.283" gradientUnits="userSpaceOnUse">
<stop stop-color="#25DE85" stop-opacity="0.56"/>
<stop offset="1" stop-color="white" stop-opacity="0"/>
</linearGradient>
</defs>
</svg>
