<svg width="212" height="101" viewBox="0 0 212 101" fill="none" xmlns="http://www.w3.org/2000/svg">
<path d="M26.5256 60.8874L1.93359 99.2827H186.071C199.325 99.2827 210.071 88.5376 210.071 75.2827V9.82716L197.197 29.8842C187.192 45.4721 164.049 44.3313 155.625 27.8349L149.259 15.3681C145.158 7.3372 136.902 2.28271 127.884 2.28271H104.405C96.2359 2.28271 88.6274 6.43844 84.2123 13.3122L67.8394 38.8023C63.4242 45.676 55.8158 49.8317 47.6462 49.8317H46.7355C38.5549 49.8317 30.9377 53.9986 26.5256 60.8874Z" fill="url(#paint0_linear_12226_45165)"/>
<path d="M1.93359 99.2827L26.5256 60.8874C30.9377 53.9986 38.5549 49.8317 46.7355 49.8317H47.6462C55.8158 49.8317 63.4242 45.676 67.8394 38.8023L84.2123 13.3122C88.6274 6.43845 96.2359 2.28271 104.405 2.28271H127.884C136.902 2.28271 145.158 7.3372 149.259 15.3681L155.625 27.8349C164.049 44.3313 187.192 45.4721 197.197 29.8842L210.071 9.82716" stroke="#25DE85" stroke-width="4"/>
<defs>
<linearGradient id="paint0_linear_12226_45165" x1="106.002" y1="2.28271" x2="106.002" y2="99.2827" gradientUnits="userSpaceOnUse">
<stop stop-color="#25DE85" stop-opacity="0.56"/>
<stop offset="1" stop-color="white" stop-opacity="0"/>
</linearGradient>
</defs>
</svg>
