<svg width="676" height="269" viewBox="0 0 676 269" fill="none" xmlns="http://www.w3.org/2000/svg">
<rect width="675.5" height="269" transform="translate(0.5)" fill="white"/>
<path d="M15.1328 13.0957H17.5469V13.8926H15.1328V16.377H14.3301V13.8926H11.916V13.0957H14.3301V10.5996H15.1328V13.0957ZM22.3926 17.7246H21.4434V11.6543C21.4434 11.4238 21.4434 11.2266 21.4434 11.0625C21.4473 10.8945 21.4512 10.7422 21.4551 10.6055C21.4629 10.4648 21.4727 10.3223 21.4844 10.1777C21.3633 10.3027 21.25 10.4102 21.1445 10.5C21.0391 10.5859 20.9082 10.6934 20.752 10.8223L19.7734 11.6074L19.2637 10.9453L21.584 9.1582H22.3926V17.7246ZM31.6797 15.7383H30.3965V17.7246H29.4473V15.7383H25.3047V14.918L29.3828 9.11133H30.3965V14.8594H31.6797V15.7383ZM29.4473 14.8594V12.0586C29.4473 11.8438 29.4492 11.6504 29.4531 11.4785C29.457 11.3027 29.4629 11.1406 29.4707 10.9922C29.4785 10.8398 29.4844 10.6953 29.4883 10.5586C29.4961 10.4219 29.502 10.2871 29.5059 10.1543H29.459C29.3848 10.3105 29.2988 10.4766 29.2012 10.6523C29.1074 10.8242 29.0117 10.9785 28.9141 11.1152L26.2715 14.8594H29.4473ZM34.252 9.03516C34.8379 9.03516 35.2812 9.26953 35.582 9.73828C35.8867 10.2031 36.0391 10.8613 36.0391 11.7129C36.0391 12.5645 35.8926 13.2285 35.5996 13.7051C35.3066 14.1777 34.8574 14.4141 34.252 14.4141C33.6895 14.4141 33.2578 14.1777 32.957 13.7051C32.6602 13.2285 32.5117 12.5645 32.5117 11.7129C32.5117 10.8613 32.6543 10.2031 32.9395 9.73828C33.2246 9.26953 33.6621 9.03516 34.252 9.03516ZM34.252 9.73242C33.9355 9.73242 33.7031 9.89844 33.5547 10.2305C33.4062 10.5586 33.332 11.0527 33.332 11.7129C33.332 12.373 33.4062 12.8711 33.5547 13.207C33.7031 13.543 33.9355 13.7109 34.252 13.7109C34.5801 13.7109 34.8242 13.543 34.9844 13.207C35.1445 12.8711 35.2246 12.373 35.2246 11.7129C35.2246 11.0566 35.1445 10.5625 34.9844 10.2305C34.8281 9.89844 34.584 9.73242 34.252 9.73242ZM39.6777 9.1582L34.9258 17.7246H34.0703L38.8223 9.1582H39.6777ZM39.4492 12.4688C40.0312 12.4688 40.4746 12.7031 40.7793 13.1719C41.084 13.6367 41.2363 14.2949 41.2363 15.1465C41.2363 15.9941 41.0898 16.6562 40.7969 17.1328C40.5039 17.6055 40.0547 17.8418 39.4492 17.8418C38.8828 17.8418 38.4512 17.6055 38.1543 17.1328C37.8574 16.6562 37.709 15.9941 37.709 15.1465C37.709 14.2949 37.8496 13.6367 38.1309 13.1719C38.416 12.7031 38.8555 12.4688 39.4492 12.4688ZM39.4492 13.1719C39.1328 13.1719 38.9004 13.3359 38.752 13.6641C38.6035 13.9922 38.5293 14.4863 38.5293 15.1465C38.5293 15.8066 38.6035 16.3047 38.752 16.6406C38.9004 16.9727 39.1328 17.1387 39.4492 17.1387C39.7773 17.1387 40.0215 16.9746 40.1816 16.6465C40.3418 16.3145 40.4219 15.8145 40.4219 15.1465C40.4219 14.4902 40.3418 13.998 40.1816 13.6699C40.0254 13.3379 39.7812 13.1719 39.4492 13.1719Z" fill="#868686"/>
<path d="M15.1328 44.0957H17.5469V44.8926H15.1328V47.377H14.3301V44.8926H11.916V44.0957H14.3301V41.5996H15.1328V44.0957ZM22.3926 48.7246H21.4434V42.6543C21.4434 42.4238 21.4434 42.2266 21.4434 42.0625C21.4473 41.8945 21.4512 41.7422 21.4551 41.6055C21.4629 41.4648 21.4727 41.3223 21.4844 41.1777C21.3633 41.3027 21.25 41.4102 21.1445 41.5C21.0391 41.5859 20.9082 41.6934 20.752 41.8223L19.7734 42.6074L19.2637 41.9453L21.584 40.1582H22.3926V48.7246ZM31.252 48.7246H25.6387V47.9102L27.9297 45.584C28.3555 45.1543 28.7129 44.7715 29.002 44.4355C29.2949 44.0996 29.5176 43.7695 29.6699 43.4453C29.8223 43.1172 29.8984 42.7578 29.8984 42.3672C29.8984 41.8828 29.7539 41.5137 29.4648 41.2598C29.1797 41.002 28.8027 40.873 28.334 40.873C27.9238 40.873 27.5605 40.9434 27.2441 41.084C26.9277 41.2246 26.6035 41.4238 26.2715 41.6816L25.75 41.0254C25.9766 40.834 26.2227 40.6641 26.4883 40.5156C26.7578 40.3672 27.0449 40.25 27.3496 40.1641C27.6582 40.0781 27.9863 40.0352 28.334 40.0352C28.8613 40.0352 29.3164 40.127 29.6992 40.3105C30.082 40.4941 30.377 40.7559 30.584 41.0957C30.7949 41.4355 30.9004 41.8398 30.9004 42.3086C30.9004 42.7617 30.8105 43.1836 30.6309 43.5742C30.4512 43.9609 30.1992 44.3457 29.875 44.7285C29.5508 45.1074 29.1719 45.5098 28.7383 45.9355L26.875 47.793V47.834H31.252V48.7246ZM34.252 40.0352C34.8379 40.0352 35.2812 40.2695 35.582 40.7383C35.8867 41.2031 36.0391 41.8613 36.0391 42.7129C36.0391 43.5645 35.8926 44.2285 35.5996 44.7051C35.3066 45.1777 34.8574 45.4141 34.252 45.4141C33.6895 45.4141 33.2578 45.1777 32.957 44.7051C32.6602 44.2285 32.5117 43.5645 32.5117 42.7129C32.5117 41.8613 32.6543 41.2031 32.9395 40.7383C33.2246 40.2695 33.6621 40.0352 34.252 40.0352ZM34.252 40.7324C33.9355 40.7324 33.7031 40.8984 33.5547 41.2305C33.4062 41.5586 33.332 42.0527 33.332 42.7129C33.332 43.373 33.4062 43.8711 33.5547 44.207C33.7031 44.543 33.9355 44.7109 34.252 44.7109C34.5801 44.7109 34.8242 44.543 34.9844 44.207C35.1445 43.8711 35.2246 43.373 35.2246 42.7129C35.2246 42.0566 35.1445 41.5625 34.9844 41.2305C34.8281 40.8984 34.584 40.7324 34.252 40.7324ZM39.6777 40.1582L34.9258 48.7246H34.0703L38.8223 40.1582H39.6777ZM39.4492 43.4688C40.0312 43.4688 40.4746 43.7031 40.7793 44.1719C41.084 44.6367 41.2363 45.2949 41.2363 46.1465C41.2363 46.9941 41.0898 47.6562 40.7969 48.1328C40.5039 48.6055 40.0547 48.8418 39.4492 48.8418C38.8828 48.8418 38.4512 48.6055 38.1543 48.1328C37.8574 47.6562 37.709 46.9941 37.709 46.1465C37.709 45.2949 37.8496 44.6367 38.1309 44.1719C38.416 43.7031 38.8555 43.4688 39.4492 43.4688ZM39.4492 44.1719C39.1328 44.1719 38.9004 44.3359 38.752 44.6641C38.6035 44.9922 38.5293 45.4863 38.5293 46.1465C38.5293 46.8066 38.6035 47.3047 38.752 47.6406C38.9004 47.9727 39.1328 48.1387 39.4492 48.1387C39.7773 48.1387 40.0215 47.9746 40.1816 47.6465C40.3418 47.3145 40.4219 46.8145 40.4219 46.1465C40.4219 45.4902 40.3418 44.998 40.1816 44.6699C40.0254 44.3379 39.7812 44.1719 39.4492 44.1719Z" fill="#868686"/>
<path d="M15.1328 75.0957H17.5469V75.8926H15.1328V78.377H14.3301V75.8926H11.916V75.0957H14.3301V72.5996H15.1328V75.0957ZM22.3926 79.7246H21.4434V73.6543C21.4434 73.4238 21.4434 73.2266 21.4434 73.0625C21.4473 72.8945 21.4512 72.7422 21.4551 72.6055C21.4629 72.4648 21.4727 72.3223 21.4844 72.1777C21.3633 72.3027 21.25 72.4102 21.1445 72.5C21.0391 72.5859 20.9082 72.6934 20.752 72.8223L19.7734 73.6074L19.2637 72.9453L21.584 71.1582H22.3926V79.7246ZM31.2988 75.4297C31.2988 76.125 31.2461 76.7461 31.1406 77.293C31.0352 77.8398 30.8691 78.3027 30.6426 78.6816C30.416 79.0605 30.123 79.3496 29.7637 79.5488C29.4043 79.7441 28.9727 79.8418 28.4688 79.8418C27.832 79.8418 27.3047 79.668 26.8867 79.3203C26.4727 78.9727 26.1621 78.4707 25.9551 77.8145C25.752 77.1543 25.6504 76.3594 25.6504 75.4297C25.6504 74.5156 25.7422 73.7305 25.9258 73.0742C26.1133 72.4141 26.4141 71.9082 26.8281 71.5566C27.2422 71.2012 27.7891 71.0234 28.4688 71.0234C29.1133 71.0234 29.6445 71.1992 30.0625 71.5508C30.4805 71.8984 30.791 72.4023 30.9941 73.0625C31.1973 73.7188 31.2988 74.5078 31.2988 75.4297ZM26.6289 75.4297C26.6289 76.2266 26.6895 76.8906 26.8105 77.4219C26.9316 77.9531 27.127 78.3516 27.3965 78.6172C27.6699 78.8789 28.0273 79.0098 28.4688 79.0098C28.9102 79.0098 29.2656 78.8789 29.5352 78.6172C29.8086 78.3555 30.0059 77.959 30.127 77.4277C30.252 76.8965 30.3145 76.2305 30.3145 75.4297C30.3145 74.6445 30.2539 73.9883 30.1328 73.4609C30.0117 72.9297 29.8164 72.5312 29.5469 72.2656C29.2773 71.9961 28.918 71.8613 28.4688 71.8613C28.0195 71.8613 27.6602 71.9961 27.3906 72.2656C27.1211 72.5312 26.9258 72.9297 26.8047 73.4609C26.6875 73.9883 26.6289 74.6445 26.6289 75.4297ZM34.252 71.0352C34.8379 71.0352 35.2812 71.2695 35.582 71.7383C35.8867 72.2031 36.0391 72.8613 36.0391 73.7129C36.0391 74.5645 35.8926 75.2285 35.5996 75.7051C35.3066 76.1777 34.8574 76.4141 34.252 76.4141C33.6895 76.4141 33.2578 76.1777 32.957 75.7051C32.6602 75.2285 32.5117 74.5645 32.5117 73.7129C32.5117 72.8613 32.6543 72.2031 32.9395 71.7383C33.2246 71.2695 33.6621 71.0352 34.252 71.0352ZM34.252 71.7324C33.9355 71.7324 33.7031 71.8984 33.5547 72.2305C33.4062 72.5586 33.332 73.0527 33.332 73.7129C33.332 74.373 33.4062 74.8711 33.5547 75.207C33.7031 75.543 33.9355 75.7109 34.252 75.7109C34.5801 75.7109 34.8242 75.543 34.9844 75.207C35.1445 74.8711 35.2246 74.373 35.2246 73.7129C35.2246 73.0566 35.1445 72.5625 34.9844 72.2305C34.8281 71.8984 34.584 71.7324 34.252 71.7324ZM39.6777 71.1582L34.9258 79.7246H34.0703L38.8223 71.1582H39.6777ZM39.4492 74.4688C40.0312 74.4688 40.4746 74.7031 40.7793 75.1719C41.084 75.6367 41.2363 76.2949 41.2363 77.1465C41.2363 77.9941 41.0898 78.6562 40.7969 79.1328C40.5039 79.6055 40.0547 79.8418 39.4492 79.8418C38.8828 79.8418 38.4512 79.6055 38.1543 79.1328C37.8574 78.6562 37.709 77.9941 37.709 77.1465C37.709 76.2949 37.8496 75.6367 38.1309 75.1719C38.416 74.7031 38.8555 74.4688 39.4492 74.4688ZM39.4492 75.1719C39.1328 75.1719 38.9004 75.3359 38.752 75.6641C38.6035 75.9922 38.5293 76.4863 38.5293 77.1465C38.5293 77.8066 38.6035 78.3047 38.752 78.6406C38.9004 78.9727 39.1328 79.1387 39.4492 79.1387C39.7773 79.1387 40.0215 78.9746 40.1816 78.6465C40.3418 78.3145 40.4219 77.8145 40.4219 77.1465C40.4219 76.4902 40.3418 75.998 40.1816 75.6699C40.0254 75.3379 39.7812 75.1719 39.4492 75.1719Z" fill="#868686"/>
<path d="M22 106.096H24.4141V106.893H22V109.377H21.1973V106.893H18.7832V106.096H21.1973V103.6H22V106.096ZM28.4688 102.035C28.9648 102.035 29.4043 102.113 29.7871 102.27C30.1699 102.426 30.4688 102.656 30.6836 102.961C30.9023 103.262 31.0117 103.633 31.0117 104.074C31.0117 104.422 30.9355 104.727 30.7832 104.988C30.6348 105.246 30.4336 105.473 30.1797 105.668C29.9258 105.859 29.6445 106.031 29.3359 106.184C29.7031 106.352 30.0332 106.541 30.3262 106.752C30.623 106.963 30.8574 107.211 31.0293 107.496C31.2012 107.781 31.2871 108.119 31.2871 108.51C31.2871 108.99 31.1699 109.406 30.9355 109.758C30.7051 110.105 30.3809 110.373 29.9629 110.561C29.5449 110.748 29.0547 110.842 28.4922 110.842C27.8867 110.842 27.3711 110.752 26.9453 110.572C26.5234 110.389 26.2012 110.127 25.9785 109.787C25.7598 109.443 25.6504 109.031 25.6504 108.551C25.6504 108.156 25.7344 107.814 25.9023 107.525C26.0703 107.232 26.293 106.98 26.5703 106.77C26.8477 106.559 27.1504 106.381 27.4785 106.236C27.1934 106.08 26.9316 105.902 26.6934 105.703C26.459 105.504 26.2715 105.271 26.1309 105.006C25.9941 104.736 25.9258 104.424 25.9258 104.068C25.9258 103.635 26.0352 103.268 26.2539 102.967C26.4766 102.662 26.7793 102.432 27.1621 102.275C27.5488 102.115 27.9844 102.035 28.4688 102.035ZM26.6055 108.557C26.6055 108.994 26.7598 109.355 27.0684 109.641C27.377 109.922 27.8438 110.062 28.4688 110.062C29.0625 110.062 29.5215 109.922 29.8457 109.641C30.1699 109.355 30.332 108.982 30.332 108.521C30.332 108.236 30.2578 107.986 30.1094 107.771C29.9609 107.553 29.75 107.357 29.4766 107.186C29.2031 107.014 28.8809 106.857 28.5098 106.717L28.2988 106.641C27.9395 106.789 27.6328 106.955 27.3789 107.139C27.1289 107.318 26.9375 107.523 26.8047 107.754C26.6719 107.984 26.6055 108.252 26.6055 108.557ZM28.457 102.832C27.9961 102.832 27.6191 102.943 27.3262 103.166C27.0332 103.385 26.8867 103.701 26.8867 104.115C26.8867 104.412 26.957 104.664 27.0977 104.871C27.2422 105.074 27.4375 105.25 27.6836 105.398C27.9297 105.543 28.2051 105.678 28.5098 105.803C28.8066 105.678 29.0703 105.541 29.3008 105.393C29.5312 105.24 29.7129 105.061 29.8457 104.854C29.9785 104.646 30.0449 104.398 30.0449 104.109C30.0449 103.695 29.8984 103.379 29.6055 103.16C29.3164 102.941 28.9336 102.832 28.457 102.832ZM34.252 102.035C34.8379 102.035 35.2812 102.27 35.582 102.738C35.8867 103.203 36.0391 103.861 36.0391 104.713C36.0391 105.564 35.8926 106.229 35.5996 106.705C35.3066 107.178 34.8574 107.414 34.252 107.414C33.6895 107.414 33.2578 107.178 32.957 106.705C32.6602 106.229 32.5117 105.564 32.5117 104.713C32.5117 103.861 32.6543 103.203 32.9395 102.738C33.2246 102.27 33.6621 102.035 34.252 102.035ZM34.252 102.732C33.9355 102.732 33.7031 102.898 33.5547 103.23C33.4062 103.559 33.332 104.053 33.332 104.713C33.332 105.373 33.4062 105.871 33.5547 106.207C33.7031 106.543 33.9355 106.711 34.252 106.711C34.5801 106.711 34.8242 106.543 34.9844 106.207C35.1445 105.871 35.2246 105.373 35.2246 104.713C35.2246 104.057 35.1445 103.562 34.9844 103.23C34.8281 102.898 34.584 102.732 34.252 102.732ZM39.6777 102.158L34.9258 110.725H34.0703L38.8223 102.158H39.6777ZM39.4492 105.469C40.0312 105.469 40.4746 105.703 40.7793 106.172C41.084 106.637 41.2363 107.295 41.2363 108.146C41.2363 108.994 41.0898 109.656 40.7969 110.133C40.5039 110.605 40.0547 110.842 39.4492 110.842C38.8828 110.842 38.4512 110.605 38.1543 110.133C37.8574 109.656 37.709 108.994 37.709 108.146C37.709 107.295 37.8496 106.637 38.1309 106.172C38.416 105.703 38.8555 105.469 39.4492 105.469ZM39.4492 106.172C39.1328 106.172 38.9004 106.336 38.752 106.664C38.6035 106.992 38.5293 107.486 38.5293 108.146C38.5293 108.807 38.6035 109.305 38.752 109.641C38.9004 109.973 39.1328 110.139 39.4492 110.139C39.7773 110.139 40.0215 109.975 40.1816 109.646C40.3418 109.314 40.4219 108.814 40.4219 108.146C40.4219 107.49 40.3418 106.998 40.1816 106.67C40.0254 106.338 39.7812 106.172 39.4492 106.172Z" fill="#868686"/>
<path d="M22 137.096H24.4141V137.893H22V140.377H21.1973V137.893H18.7832V137.096H21.1973V134.6H22V137.096ZM25.7266 138.062C25.7266 137.547 25.7617 137.043 25.832 136.551C25.9062 136.059 26.0293 135.602 26.2012 135.18C26.373 134.754 26.6074 134.381 26.9043 134.061C27.2012 133.74 27.5703 133.49 28.0117 133.311C28.457 133.127 28.9902 133.035 29.6113 133.035C29.7871 133.035 29.9766 133.045 30.1797 133.064C30.3828 133.08 30.5508 133.107 30.6836 133.146V133.984C30.5391 133.934 30.373 133.896 30.1855 133.873C30.002 133.85 29.8164 133.838 29.6289 133.838C28.9023 133.838 28.3301 133.996 27.9121 134.312C27.498 134.629 27.1992 135.059 27.0156 135.602C26.832 136.141 26.7266 136.748 26.6992 137.424H26.7637C26.8848 137.229 27.0391 137.053 27.2266 136.896C27.4141 136.736 27.6406 136.609 27.9062 136.516C28.1758 136.422 28.4883 136.375 28.8438 136.375C29.3438 136.375 29.7793 136.477 30.1504 136.68C30.5254 136.883 30.8145 137.178 31.0176 137.564C31.2246 137.951 31.3281 138.42 31.3281 138.971C31.3281 139.561 31.2188 140.07 31 140.5C30.7812 140.93 30.4688 141.262 30.0625 141.496C29.6602 141.727 29.1797 141.842 28.6211 141.842C28.2031 141.842 27.8184 141.762 27.4668 141.602C27.1152 141.441 26.8086 141.203 26.5469 140.887C26.2891 140.57 26.0879 140.178 25.9434 139.709C25.7988 139.236 25.7266 138.688 25.7266 138.062ZM28.6094 141.021C29.1406 141.021 29.5664 140.852 29.8867 140.512C30.207 140.172 30.3672 139.658 30.3672 138.971C30.3672 138.408 30.2246 137.963 29.9395 137.635C29.6543 137.307 29.2246 137.143 28.6504 137.143C28.2598 137.143 27.9199 137.225 27.6309 137.389C27.3418 137.549 27.1172 137.752 26.957 137.998C26.7969 138.244 26.7168 138.494 26.7168 138.748C26.7168 139.006 26.7539 139.268 26.8281 139.533C26.9062 139.799 27.0234 140.045 27.1797 140.271C27.3359 140.498 27.5332 140.68 27.7715 140.816C28.0098 140.953 28.2891 141.021 28.6094 141.021ZM34.252 133.035C34.8379 133.035 35.2812 133.27 35.582 133.738C35.8867 134.203 36.0391 134.861 36.0391 135.713C36.0391 136.564 35.8926 137.229 35.5996 137.705C35.3066 138.178 34.8574 138.414 34.252 138.414C33.6895 138.414 33.2578 138.178 32.957 137.705C32.6602 137.229 32.5117 136.564 32.5117 135.713C32.5117 134.861 32.6543 134.203 32.9395 133.738C33.2246 133.27 33.6621 133.035 34.252 133.035ZM34.252 133.732C33.9355 133.732 33.7031 133.898 33.5547 134.23C33.4062 134.559 33.332 135.053 33.332 135.713C33.332 136.373 33.4062 136.871 33.5547 137.207C33.7031 137.543 33.9355 137.711 34.252 137.711C34.5801 137.711 34.8242 137.543 34.9844 137.207C35.1445 136.871 35.2246 136.373 35.2246 135.713C35.2246 135.057 35.1445 134.562 34.9844 134.23C34.8281 133.898 34.584 133.732 34.252 133.732ZM39.6777 133.158L34.9258 141.725H34.0703L38.8223 133.158H39.6777ZM39.4492 136.469C40.0312 136.469 40.4746 136.703 40.7793 137.172C41.084 137.637 41.2363 138.295 41.2363 139.146C41.2363 139.994 41.0898 140.656 40.7969 141.133C40.5039 141.605 40.0547 141.842 39.4492 141.842C38.8828 141.842 38.4512 141.605 38.1543 141.133C37.8574 140.656 37.709 139.994 37.709 139.146C37.709 138.295 37.8496 137.637 38.1309 137.172C38.416 136.703 38.8555 136.469 39.4492 136.469ZM39.4492 137.172C39.1328 137.172 38.9004 137.336 38.752 137.664C38.6035 137.992 38.5293 138.486 38.5293 139.146C38.5293 139.807 38.6035 140.305 38.752 140.641C38.9004 140.973 39.1328 141.139 39.4492 141.139C39.7773 141.139 40.0215 140.975 40.1816 140.646C40.3418 140.314 40.4219 139.814 40.4219 139.146C40.4219 138.49 40.3418 137.998 40.1816 137.67C40.0254 137.338 39.7812 137.172 39.4492 137.172Z" fill="#868686"/>
<path d="M22 168.096H24.4141V168.893H22V171.377H21.1973V168.893H18.7832V168.096H21.1973V165.6H22V168.096ZM31.6797 170.738H30.3965V172.725H29.4473V170.738H25.3047V169.918L29.3828 164.111H30.3965V169.859H31.6797V170.738ZM29.4473 169.859V167.059C29.4473 166.844 29.4492 166.65 29.4531 166.479C29.457 166.303 29.4629 166.141 29.4707 165.992C29.4785 165.84 29.4844 165.695 29.4883 165.559C29.4961 165.422 29.502 165.287 29.5059 165.154H29.459C29.3848 165.311 29.2988 165.477 29.2012 165.652C29.1074 165.824 29.0117 165.979 28.9141 166.115L26.2715 169.859H29.4473ZM34.252 164.035C34.8379 164.035 35.2812 164.27 35.582 164.738C35.8867 165.203 36.0391 165.861 36.0391 166.713C36.0391 167.564 35.8926 168.229 35.5996 168.705C35.3066 169.178 34.8574 169.414 34.252 169.414C33.6895 169.414 33.2578 169.178 32.957 168.705C32.6602 168.229 32.5117 167.564 32.5117 166.713C32.5117 165.861 32.6543 165.203 32.9395 164.738C33.2246 164.27 33.6621 164.035 34.252 164.035ZM34.252 164.732C33.9355 164.732 33.7031 164.898 33.5547 165.23C33.4062 165.559 33.332 166.053 33.332 166.713C33.332 167.373 33.4062 167.871 33.5547 168.207C33.7031 168.543 33.9355 168.711 34.252 168.711C34.5801 168.711 34.8242 168.543 34.9844 168.207C35.1445 167.871 35.2246 167.373 35.2246 166.713C35.2246 166.057 35.1445 165.562 34.9844 165.23C34.8281 164.898 34.584 164.732 34.252 164.732ZM39.6777 164.158L34.9258 172.725H34.0703L38.8223 164.158H39.6777ZM39.4492 167.469C40.0312 167.469 40.4746 167.703 40.7793 168.172C41.084 168.637 41.2363 169.295 41.2363 170.146C41.2363 170.994 41.0898 171.656 40.7969 172.133C40.5039 172.605 40.0547 172.842 39.4492 172.842C38.8828 172.842 38.4512 172.605 38.1543 172.133C37.8574 171.656 37.709 170.994 37.709 170.146C37.709 169.295 37.8496 168.637 38.1309 168.172C38.416 167.703 38.8555 167.469 39.4492 167.469ZM39.4492 168.172C39.1328 168.172 38.9004 168.336 38.752 168.664C38.6035 168.992 38.5293 169.486 38.5293 170.146C38.5293 170.807 38.6035 171.305 38.752 171.641C38.9004 171.973 39.1328 172.139 39.4492 172.139C39.7773 172.139 40.0215 171.975 40.1816 171.646C40.3418 171.314 40.4219 170.814 40.4219 170.146C40.4219 169.49 40.3418 168.998 40.1816 168.67C40.0254 168.338 39.7812 168.172 39.4492 168.172Z" fill="#868686"/>
<path d="M22 199.096H24.4141V199.893H22V202.377H21.1973V199.893H18.7832V199.096H21.1973V196.6H22V199.096ZM31.252 203.725H25.6387V202.91L27.9297 200.584C28.3555 200.154 28.7129 199.771 29.002 199.436C29.2949 199.1 29.5176 198.77 29.6699 198.445C29.8223 198.117 29.8984 197.758 29.8984 197.367C29.8984 196.883 29.7539 196.514 29.4648 196.26C29.1797 196.002 28.8027 195.873 28.334 195.873C27.9238 195.873 27.5605 195.943 27.2441 196.084C26.9277 196.225 26.6035 196.424 26.2715 196.682L25.75 196.025C25.9766 195.834 26.2227 195.664 26.4883 195.516C26.7578 195.367 27.0449 195.25 27.3496 195.164C27.6582 195.078 27.9863 195.035 28.334 195.035C28.8613 195.035 29.3164 195.127 29.6992 195.311C30.082 195.494 30.377 195.756 30.584 196.096C30.7949 196.436 30.9004 196.84 30.9004 197.309C30.9004 197.762 30.8105 198.184 30.6309 198.574C30.4512 198.961 30.1992 199.346 29.875 199.729C29.5508 200.107 29.1719 200.51 28.7383 200.936L26.875 202.793V202.834H31.252V203.725ZM34.252 195.035C34.8379 195.035 35.2812 195.27 35.582 195.738C35.8867 196.203 36.0391 196.861 36.0391 197.713C36.0391 198.564 35.8926 199.229 35.5996 199.705C35.3066 200.178 34.8574 200.414 34.252 200.414C33.6895 200.414 33.2578 200.178 32.957 199.705C32.6602 199.229 32.5117 198.564 32.5117 197.713C32.5117 196.861 32.6543 196.203 32.9395 195.738C33.2246 195.27 33.6621 195.035 34.252 195.035ZM34.252 195.732C33.9355 195.732 33.7031 195.898 33.5547 196.23C33.4062 196.559 33.332 197.053 33.332 197.713C33.332 198.373 33.4062 198.871 33.5547 199.207C33.7031 199.543 33.9355 199.711 34.252 199.711C34.5801 199.711 34.8242 199.543 34.9844 199.207C35.1445 198.871 35.2246 198.373 35.2246 197.713C35.2246 197.057 35.1445 196.562 34.9844 196.23C34.8281 195.898 34.584 195.732 34.252 195.732ZM39.6777 195.158L34.9258 203.725H34.0703L38.8223 195.158H39.6777ZM39.4492 198.469C40.0312 198.469 40.4746 198.703 40.7793 199.172C41.084 199.637 41.2363 200.295 41.2363 201.146C41.2363 201.994 41.0898 202.656 40.7969 203.133C40.5039 203.605 40.0547 203.842 39.4492 203.842C38.8828 203.842 38.4512 203.605 38.1543 203.133C37.8574 202.656 37.709 201.994 37.709 201.146C37.709 200.295 37.8496 199.637 38.1309 199.172C38.416 198.703 38.8555 198.469 39.4492 198.469ZM39.4492 199.172C39.1328 199.172 38.9004 199.336 38.752 199.664C38.6035 199.992 38.5293 200.486 38.5293 201.146C38.5293 201.807 38.6035 202.305 38.752 202.641C38.9004 202.973 39.1328 203.139 39.4492 203.139C39.7773 203.139 40.0215 202.975 40.1816 202.646C40.3418 202.314 40.4219 201.814 40.4219 201.146C40.4219 200.49 40.3418 199.998 40.1816 199.67C40.0254 199.338 39.7812 199.172 39.4492 199.172Z" fill="#868686"/>
<path d="M31.2988 230.43C31.2988 231.125 31.2461 231.746 31.1406 232.293C31.0352 232.84 30.8691 233.303 30.6426 233.682C30.416 234.061 30.123 234.35 29.7637 234.549C29.4043 234.744 28.9727 234.842 28.4688 234.842C27.832 234.842 27.3047 234.668 26.8867 234.32C26.4727 233.973 26.1621 233.471 25.9551 232.814C25.752 232.154 25.6504 231.359 25.6504 230.43C25.6504 229.516 25.7422 228.73 25.9258 228.074C26.1133 227.414 26.4141 226.908 26.8281 226.557C27.2422 226.201 27.7891 226.023 28.4688 226.023C29.1133 226.023 29.6445 226.199 30.0625 226.551C30.4805 226.898 30.791 227.402 30.9941 228.062C31.1973 228.719 31.2988 229.508 31.2988 230.43ZM26.6289 230.43C26.6289 231.227 26.6895 231.891 26.8105 232.422C26.9316 232.953 27.127 233.352 27.3965 233.617C27.6699 233.879 28.0273 234.01 28.4688 234.01C28.9102 234.01 29.2656 233.879 29.5352 233.617C29.8086 233.355 30.0059 232.959 30.127 232.428C30.252 231.896 30.3145 231.23 30.3145 230.43C30.3145 229.645 30.2539 228.988 30.1328 228.461C30.0117 227.93 29.8164 227.531 29.5469 227.266C29.2773 226.996 28.918 226.861 28.4688 226.861C28.0195 226.861 27.6602 226.996 27.3906 227.266C27.1211 227.531 26.9258 227.93 26.8047 228.461C26.6875 228.988 26.6289 229.645 26.6289 230.43ZM34.252 226.035C34.8379 226.035 35.2812 226.27 35.582 226.738C35.8867 227.203 36.0391 227.861 36.0391 228.713C36.0391 229.564 35.8926 230.229 35.5996 230.705C35.3066 231.178 34.8574 231.414 34.252 231.414C33.6895 231.414 33.2578 231.178 32.957 230.705C32.6602 230.229 32.5117 229.564 32.5117 228.713C32.5117 227.861 32.6543 227.203 32.9395 226.738C33.2246 226.27 33.6621 226.035 34.252 226.035ZM34.252 226.732C33.9355 226.732 33.7031 226.898 33.5547 227.23C33.4062 227.559 33.332 228.053 33.332 228.713C33.332 229.373 33.4062 229.871 33.5547 230.207C33.7031 230.543 33.9355 230.711 34.252 230.711C34.5801 230.711 34.8242 230.543 34.9844 230.207C35.1445 229.871 35.2246 229.373 35.2246 228.713C35.2246 228.057 35.1445 227.562 34.9844 227.23C34.8281 226.898 34.584 226.732 34.252 226.732ZM39.6777 226.158L34.9258 234.725H34.0703L38.8223 226.158H39.6777ZM39.4492 229.469C40.0312 229.469 40.4746 229.703 40.7793 230.172C41.084 230.637 41.2363 231.295 41.2363 232.146C41.2363 232.994 41.0898 233.656 40.7969 234.133C40.5039 234.605 40.0547 234.842 39.4492 234.842C38.8828 234.842 38.4512 234.605 38.1543 234.133C37.8574 233.656 37.709 232.994 37.709 232.146C37.709 231.295 37.8496 230.637 38.1309 230.172C38.416 229.703 38.8555 229.469 39.4492 229.469ZM39.4492 230.172C39.1328 230.172 38.9004 230.336 38.752 230.664C38.6035 230.992 38.5293 231.486 38.5293 232.146C38.5293 232.807 38.6035 233.305 38.752 233.641C38.9004 233.973 39.1328 234.139 39.4492 234.139C39.7773 234.139 40.0215 233.975 40.1816 233.646C40.3418 233.314 40.4219 232.814 40.4219 232.146C40.4219 231.49 40.3418 230.998 40.1816 230.67C40.0254 230.338 39.7812 230.172 39.4492 230.172Z" fill="#868686"/>
<line x1="57.8398" y1="9.66211" x2="665.373" y2="9.66216" stroke="#E3E3E3"/>
<line x1="57.8398" y1="41.5371" x2="665.373" y2="41.5372" stroke="#E3E3E3"/>
<line x1="57.8398" y1="73.4121" x2="665.373" y2="73.4122" stroke="#E3E3E3"/>
<line x1="57.8398" y1="105.287" x2="665.373" y2="105.287" stroke="#E3E3E3"/>
<line x1="57.8398" y1="137.162" x2="665.373" y2="137.162" stroke="#E3E3E3"/>
<line x1="57.8398" y1="169.037" x2="665.373" y2="169.037" stroke="#E3E3E3"/>
<line x1="57.8398" y1="200.912" x2="665.373" y2="200.912" stroke="#E3E3E3"/>
<line x1="57.8398" y1="232.787" x2="665.373" y2="232.787" stroke="#E3E3E3"/>
<path d="M87.3418 255.902H81.7285V255.088L84.0195 252.762C84.4453 252.332 84.8027 251.949 85.0918 251.613C85.3848 251.277 85.6074 250.947 85.7598 250.623C85.9121 250.295 85.9883 249.936 85.9883 249.545C85.9883 249.061 85.8438 248.691 85.5547 248.438C85.2695 248.18 84.8926 248.051 84.4238 248.051C84.0137 248.051 83.6504 248.121 83.334 248.262C83.0176 248.402 82.6934 248.602 82.3613 248.859L81.8398 248.203C82.0664 248.012 82.3125 247.842 82.5781 247.693C82.8477 247.545 83.1348 247.428 83.4395 247.342C83.748 247.256 84.0762 247.213 84.4238 247.213C84.9512 247.213 85.4062 247.305 85.7891 247.488C86.1719 247.672 86.4668 247.934 86.6738 248.273C86.8848 248.613 86.9902 249.018 86.9902 249.486C86.9902 249.939 86.9004 250.361 86.7207 250.752C86.541 251.139 86.2891 251.523 85.9648 251.906C85.6406 252.285 85.2617 252.688 84.8281 253.113L82.9648 254.971V255.012H87.3418V255.902ZM94.6367 253.916H93.3535V255.902H92.4043V253.916H88.2617V253.096L92.3398 247.289H93.3535V253.037H94.6367V253.916ZM92.4043 253.037V250.236C92.4043 250.021 92.4062 249.828 92.4102 249.656C92.4141 249.48 92.4199 249.318 92.4277 249.17C92.4355 249.018 92.4414 248.873 92.4453 248.736C92.4531 248.6 92.459 248.465 92.4629 248.332H92.416C92.3418 248.488 92.2559 248.654 92.1582 248.83C92.0645 249.002 91.9688 249.156 91.8711 249.293L89.2285 253.037H92.4043ZM103.719 249.48V255.076H104.639V258.123H103.695V255.902H99.1484V258.123H98.2168V255.076H98.7207C99.0879 254.568 99.3926 254.012 99.6348 253.406C99.877 252.801 100.061 252.166 100.186 251.502C100.311 250.834 100.377 250.16 100.385 249.48H103.719ZM102.775 250.254H101.252C101.217 250.824 101.133 251.404 101 251.994C100.871 252.584 100.699 253.146 100.484 253.682C100.27 254.213 100.02 254.678 99.7344 255.076H102.775V250.254ZM108.389 249.363C108.936 249.363 109.404 249.484 109.795 249.727C110.186 249.969 110.484 250.309 110.691 250.746C110.898 251.18 111.002 251.688 111.002 252.27V252.873H106.566C106.578 253.627 106.766 254.201 107.129 254.596C107.492 254.99 108.004 255.188 108.664 255.188C109.07 255.188 109.43 255.15 109.742 255.076C110.055 255.002 110.379 254.893 110.715 254.748V255.604C110.391 255.748 110.068 255.854 109.748 255.92C109.432 255.986 109.057 256.02 108.623 256.02C108.006 256.02 107.467 255.895 107.006 255.645C106.549 255.391 106.193 255.02 105.939 254.531C105.686 254.043 105.559 253.445 105.559 252.738C105.559 252.047 105.674 251.449 105.904 250.945C106.139 250.438 106.467 250.047 106.889 249.773C107.314 249.5 107.814 249.363 108.389 249.363ZM108.377 250.16C107.857 250.16 107.443 250.33 107.135 250.67C106.826 251.01 106.643 251.484 106.584 252.094H109.982C109.979 251.711 109.918 251.375 109.801 251.086C109.688 250.793 109.514 250.566 109.279 250.406C109.045 250.242 108.744 250.16 108.377 250.16ZM116.398 249.48H117.471L114.699 252.58L117.693 255.902H116.551L113.633 252.645V255.902H112.654V249.48H113.633V252.598L116.398 249.48ZM127.15 255.902H121.537V255.088L123.828 252.762C124.254 252.332 124.611 251.949 124.9 251.613C125.193 251.277 125.416 250.947 125.568 250.623C125.721 250.295 125.797 249.936 125.797 249.545C125.797 249.061 125.652 248.691 125.363 248.438C125.078 248.18 124.701 248.051 124.232 248.051C123.822 248.051 123.459 248.121 123.143 248.262C122.826 248.402 122.502 248.602 122.17 248.859L121.648 248.203C121.875 248.012 122.121 247.842 122.387 247.693C122.656 247.545 122.943 247.428 123.248 247.342C123.557 247.256 123.885 247.213 124.232 247.213C124.76 247.213 125.215 247.305 125.598 247.488C125.98 247.672 126.275 247.934 126.482 248.273C126.693 248.613 126.799 249.018 126.799 249.486C126.799 249.939 126.709 250.361 126.529 250.752C126.35 251.139 126.098 251.523 125.773 251.906C125.449 252.285 125.07 252.688 124.637 253.113L122.773 254.971V255.012H127.15V255.902ZM134.445 253.916H133.162V255.902H132.213V253.916H128.07V253.096L132.148 247.289H133.162V253.037H134.445V253.916ZM132.213 253.037V250.236C132.213 250.021 132.215 249.828 132.219 249.656C132.223 249.48 132.229 249.318 132.236 249.17C132.244 249.018 132.25 248.873 132.254 248.736C132.262 248.6 132.268 248.465 132.271 248.332H132.225C132.15 248.488 132.064 248.654 131.967 248.83C131.873 249.002 131.777 249.156 131.68 249.293L129.037 253.037H132.213Z" fill="#868686"/>
<path d="M214.682 255.902H209.068V255.088L211.359 252.762C211.785 252.332 212.143 251.949 212.432 251.613C212.725 251.277 212.947 250.947 213.1 250.623C213.252 250.295 213.328 249.936 213.328 249.545C213.328 249.061 213.184 248.691 212.895 248.438C212.609 248.18 212.232 248.051 211.764 248.051C211.354 248.051 210.99 248.121 210.674 248.262C210.357 248.402 210.033 248.602 209.701 248.859L209.18 248.203C209.406 248.012 209.652 247.842 209.918 247.693C210.188 247.545 210.475 247.428 210.779 247.342C211.088 247.256 211.416 247.213 211.764 247.213C212.291 247.213 212.746 247.305 213.129 247.488C213.512 247.672 213.807 247.934 214.014 248.273C214.225 248.613 214.33 249.018 214.33 249.486C214.33 249.939 214.24 250.361 214.061 250.752C213.881 251.139 213.629 251.523 213.305 251.906C212.98 252.285 212.602 252.688 212.168 253.113L210.305 254.971V255.012H214.682V255.902ZM218.766 247.213C219.262 247.213 219.701 247.291 220.084 247.447C220.467 247.604 220.766 247.834 220.98 248.139C221.199 248.439 221.309 248.811 221.309 249.252C221.309 249.6 221.232 249.904 221.08 250.166C220.932 250.424 220.73 250.65 220.477 250.846C220.223 251.037 219.941 251.209 219.633 251.361C220 251.529 220.33 251.719 220.623 251.93C220.92 252.141 221.154 252.389 221.326 252.674C221.498 252.959 221.584 253.297 221.584 253.688C221.584 254.168 221.467 254.584 221.232 254.936C221.002 255.283 220.678 255.551 220.26 255.738C219.842 255.926 219.352 256.02 218.789 256.02C218.184 256.02 217.668 255.93 217.242 255.75C216.82 255.566 216.498 255.305 216.275 254.965C216.057 254.621 215.947 254.209 215.947 253.729C215.947 253.334 216.031 252.992 216.199 252.703C216.367 252.41 216.59 252.158 216.867 251.947C217.145 251.736 217.447 251.559 217.775 251.414C217.49 251.258 217.229 251.08 216.99 250.881C216.756 250.682 216.568 250.449 216.428 250.184C216.291 249.914 216.223 249.602 216.223 249.246C216.223 248.812 216.332 248.445 216.551 248.145C216.773 247.84 217.076 247.609 217.459 247.453C217.846 247.293 218.281 247.213 218.766 247.213ZM216.902 253.734C216.902 254.172 217.057 254.533 217.365 254.818C217.674 255.1 218.141 255.24 218.766 255.24C219.359 255.24 219.818 255.1 220.143 254.818C220.467 254.533 220.629 254.16 220.629 253.699C220.629 253.414 220.555 253.164 220.406 252.949C220.258 252.73 220.047 252.535 219.773 252.363C219.5 252.191 219.178 252.035 218.807 251.895L218.596 251.818C218.236 251.967 217.93 252.133 217.676 252.316C217.426 252.496 217.234 252.701 217.102 252.932C216.969 253.162 216.902 253.43 216.902 253.734ZM218.754 248.01C218.293 248.01 217.916 248.121 217.623 248.344C217.33 248.562 217.184 248.879 217.184 249.293C217.184 249.59 217.254 249.842 217.395 250.049C217.539 250.252 217.734 250.428 217.98 250.576C218.227 250.721 218.502 250.855 218.807 250.98C219.104 250.855 219.367 250.719 219.598 250.57C219.828 250.418 220.01 250.238 220.143 250.031C220.275 249.824 220.342 249.576 220.342 249.287C220.342 248.873 220.195 248.557 219.902 248.338C219.613 248.119 219.23 248.01 218.754 248.01ZM231.059 249.48V255.076H231.979V258.123H231.035V255.902H226.488V258.123H225.557V255.076H226.061C226.428 254.568 226.732 254.012 226.975 253.406C227.217 252.801 227.4 252.166 227.525 251.502C227.65 250.834 227.717 250.16 227.725 249.48H231.059ZM230.115 250.254H228.592C228.557 250.824 228.473 251.404 228.34 251.994C228.211 252.584 228.039 253.146 227.824 253.682C227.609 254.213 227.359 254.678 227.074 255.076H230.115V250.254ZM235.729 249.363C236.275 249.363 236.744 249.484 237.135 249.727C237.525 249.969 237.824 250.309 238.031 250.746C238.238 251.18 238.342 251.688 238.342 252.27V252.873H233.906C233.918 253.627 234.105 254.201 234.469 254.596C234.832 254.99 235.344 255.188 236.004 255.188C236.41 255.188 236.77 255.15 237.082 255.076C237.395 255.002 237.719 254.893 238.055 254.748V255.604C237.73 255.748 237.408 255.854 237.088 255.92C236.771 255.986 236.396 256.02 235.963 256.02C235.346 256.02 234.807 255.895 234.346 255.645C233.889 255.391 233.533 255.02 233.279 254.531C233.025 254.043 232.898 253.445 232.898 252.738C232.898 252.047 233.014 251.449 233.244 250.945C233.479 250.438 233.807 250.047 234.229 249.773C234.654 249.5 235.154 249.363 235.729 249.363ZM235.717 250.16C235.197 250.16 234.783 250.33 234.475 250.67C234.166 251.01 233.982 251.484 233.924 252.094H237.322C237.318 251.711 237.258 251.375 237.141 251.086C237.027 250.793 236.854 250.566 236.619 250.406C236.385 250.242 236.084 250.16 235.717 250.16ZM243.738 249.48H244.811L242.039 252.58L245.033 255.902H243.891L240.973 252.645V255.902H239.994V249.48H240.973V252.598L243.738 249.48ZM254.49 255.902H248.877V255.088L251.168 252.762C251.594 252.332 251.951 251.949 252.24 251.613C252.533 251.277 252.756 250.947 252.908 250.623C253.061 250.295 253.137 249.936 253.137 249.545C253.137 249.061 252.992 248.691 252.703 248.438C252.418 248.18 252.041 248.051 251.572 248.051C251.162 248.051 250.799 248.121 250.482 248.262C250.166 248.402 249.842 248.602 249.51 248.859L248.988 248.203C249.215 248.012 249.461 247.842 249.727 247.693C249.996 247.545 250.283 247.428 250.588 247.342C250.896 247.256 251.225 247.213 251.572 247.213C252.1 247.213 252.555 247.305 252.938 247.488C253.32 247.672 253.615 247.934 253.822 248.273C254.033 248.613 254.139 249.018 254.139 249.486C254.139 249.939 254.049 250.361 253.869 250.752C253.689 251.139 253.438 251.523 253.113 251.906C252.789 252.285 252.41 252.688 251.977 253.113L250.113 254.971V255.012H254.49V255.902ZM261.785 253.916H260.502V255.902H259.553V253.916H255.41V253.096L259.488 247.289H260.502V253.037H261.785V253.916ZM259.553 253.037V250.236C259.553 250.021 259.555 249.828 259.559 249.656C259.562 249.48 259.568 249.318 259.576 249.17C259.584 249.018 259.59 248.873 259.594 248.736C259.602 248.6 259.607 248.465 259.611 248.332H259.564C259.49 248.488 259.404 248.654 259.307 248.83C259.213 249.002 259.117 249.156 259.02 249.293L256.377 253.037H259.553Z" fill="#868686"/>
<path d="M339.74 255.902H338.791V249.832C338.791 249.602 338.791 249.404 338.791 249.24C338.795 249.072 338.799 248.92 338.803 248.783C338.811 248.643 338.82 248.5 338.832 248.355C338.711 248.48 338.598 248.588 338.492 248.678C338.387 248.764 338.256 248.871 338.1 249L337.121 249.785L336.611 249.123L338.932 247.336H339.74V255.902ZM349.027 253.916H347.744V255.902H346.795V253.916H342.652V253.096L346.73 247.289H347.744V253.037H349.027V253.916ZM346.795 253.037V250.236C346.795 250.021 346.797 249.828 346.801 249.656C346.805 249.48 346.811 249.318 346.818 249.17C346.826 249.018 346.832 248.873 346.836 248.736C346.844 248.6 346.85 248.465 346.854 248.332H346.807C346.732 248.488 346.646 248.654 346.549 248.83C346.455 249.002 346.359 249.156 346.262 249.293L343.619 253.037H346.795ZM353.715 255.902H352.578L354.43 253.195C354.16 253.137 353.91 253.037 353.68 252.896C353.449 252.752 353.262 252.555 353.117 252.305C352.977 252.055 352.906 251.744 352.906 251.373C352.906 250.756 353.111 250.287 353.521 249.967C353.936 249.643 354.48 249.48 355.156 249.48H357.998V255.902H357.025V253.324H355.396L353.715 255.902ZM353.85 251.379C353.85 251.762 353.986 252.047 354.26 252.234C354.533 252.418 354.924 252.51 355.432 252.51H357.025V250.295H355.262C354.762 250.295 354.4 250.396 354.178 250.6C353.959 250.799 353.85 251.059 353.85 251.379ZM361.027 249.48V252.176H364.607V249.48H365.58V255.902H364.607V253.002H361.027V255.902H360.049V249.48H361.027ZM372.746 251.092C372.746 251.494 372.629 251.809 372.395 252.035C372.16 252.258 371.857 252.408 371.486 252.486V252.533C371.889 252.588 372.234 252.732 372.523 252.967C372.816 253.197 372.963 253.551 372.963 254.027C372.963 254.395 372.875 254.719 372.699 255C372.523 255.281 372.248 255.502 371.873 255.662C371.498 255.822 371.01 255.902 370.408 255.902H367.643V249.48H370.385C370.846 249.48 371.252 249.533 371.604 249.639C371.959 249.74 372.238 249.908 372.441 250.143C372.645 250.377 372.746 250.693 372.746 251.092ZM371.949 254.027C371.949 253.648 371.805 253.375 371.516 253.207C371.23 253.039 370.814 252.955 370.268 252.955H368.621V255.111H370.291C370.83 255.111 371.24 255.029 371.521 254.865C371.807 254.697 371.949 254.418 371.949 254.027ZM371.756 251.203C371.756 250.898 371.645 250.672 371.422 250.523C371.199 250.371 370.834 250.295 370.326 250.295H368.621V252.141H370.156C370.684 252.141 371.082 252.064 371.352 251.912C371.621 251.76 371.756 251.523 371.756 251.203ZM382.83 255.902H377.217V255.088L379.508 252.762C379.934 252.332 380.291 251.949 380.58 251.613C380.873 251.277 381.096 250.947 381.248 250.623C381.4 250.295 381.477 249.936 381.477 249.545C381.477 249.061 381.332 248.691 381.043 248.438C380.758 248.18 380.381 248.051 379.912 248.051C379.502 248.051 379.139 248.121 378.822 248.262C378.506 248.402 378.182 248.602 377.85 248.859L377.328 248.203C377.555 248.012 377.801 247.842 378.066 247.693C378.336 247.545 378.623 247.428 378.928 247.342C379.236 247.256 379.564 247.213 379.912 247.213C380.439 247.213 380.895 247.305 381.277 247.488C381.66 247.672 381.955 247.934 382.162 248.273C382.373 248.613 382.479 249.018 382.479 249.486C382.479 249.939 382.389 250.361 382.209 250.752C382.029 251.139 381.777 251.523 381.453 251.906C381.129 252.285 380.75 252.688 380.316 253.113L378.453 254.971V255.012H382.83V255.902ZM386.791 250.664C387.373 250.664 387.879 250.764 388.309 250.963C388.738 251.158 389.07 251.443 389.305 251.818C389.543 252.193 389.662 252.648 389.662 253.184C389.662 253.77 389.535 254.275 389.281 254.701C389.027 255.123 388.662 255.449 388.186 255.68C387.709 255.906 387.139 256.02 386.475 256.02C386.029 256.02 385.615 255.98 385.232 255.902C384.85 255.824 384.527 255.707 384.266 255.551V254.625C384.551 254.797 384.896 254.934 385.303 255.035C385.709 255.137 386.104 255.188 386.486 255.188C386.92 255.188 387.299 255.119 387.623 254.982C387.951 254.842 388.205 254.631 388.385 254.35C388.568 254.064 388.66 253.707 388.66 253.277C388.66 252.707 388.484 252.268 388.133 251.959C387.785 251.646 387.234 251.49 386.48 251.49C386.238 251.49 385.973 251.51 385.684 251.549C385.395 251.588 385.156 251.631 384.969 251.678L384.477 251.355L384.805 247.336H389.064V248.227H385.637L385.42 250.811C385.568 250.779 385.76 250.748 385.994 250.717C386.229 250.682 386.494 250.664 386.791 250.664Z" fill="#868686"/>
<path d="M470.076 255.902H464.463V255.088L466.754 252.762C467.18 252.332 467.537 251.949 467.826 251.613C468.119 251.277 468.342 250.947 468.494 250.623C468.646 250.295 468.723 249.936 468.723 249.545C468.723 249.061 468.578 248.691 468.289 248.438C468.004 248.18 467.627 248.051 467.158 248.051C466.748 248.051 466.385 248.121 466.068 248.262C465.752 248.402 465.428 248.602 465.096 248.859L464.574 248.203C464.801 248.012 465.047 247.842 465.312 247.693C465.582 247.545 465.869 247.428 466.174 247.342C466.482 247.256 466.811 247.213 467.158 247.213C467.686 247.213 468.141 247.305 468.523 247.488C468.906 247.672 469.201 247.934 469.408 248.273C469.619 248.613 469.725 249.018 469.725 249.486C469.725 249.939 469.635 250.361 469.455 250.752C469.275 251.139 469.023 251.523 468.699 251.906C468.375 252.285 467.996 252.688 467.562 253.113L465.699 254.971V255.012H470.076V255.902ZM476.99 251.607C476.99 252.303 476.938 252.924 476.832 253.471C476.727 254.018 476.561 254.48 476.334 254.859C476.107 255.238 475.814 255.527 475.455 255.727C475.096 255.922 474.664 256.02 474.16 256.02C473.523 256.02 472.996 255.846 472.578 255.498C472.164 255.15 471.854 254.648 471.646 253.992C471.443 253.332 471.342 252.537 471.342 251.607C471.342 250.693 471.434 249.908 471.617 249.252C471.805 248.592 472.105 248.086 472.52 247.734C472.934 247.379 473.48 247.201 474.16 247.201C474.805 247.201 475.336 247.377 475.754 247.729C476.172 248.076 476.482 248.58 476.686 249.24C476.889 249.896 476.99 250.686 476.99 251.607ZM472.32 251.607C472.32 252.404 472.381 253.068 472.502 253.6C472.623 254.131 472.818 254.529 473.088 254.795C473.361 255.057 473.719 255.188 474.16 255.188C474.602 255.188 474.957 255.057 475.227 254.795C475.5 254.533 475.697 254.137 475.818 253.605C475.943 253.074 476.006 252.408 476.006 251.607C476.006 250.822 475.945 250.166 475.824 249.639C475.703 249.107 475.508 248.709 475.238 248.443C474.969 248.174 474.609 248.039 474.16 248.039C473.711 248.039 473.352 248.174 473.082 248.443C472.812 248.709 472.617 249.107 472.496 249.639C472.379 250.166 472.32 250.822 472.32 251.607ZM482.059 255.902H480.922L482.773 253.195C482.504 253.137 482.254 253.037 482.023 252.896C481.793 252.752 481.605 252.555 481.461 252.305C481.32 252.055 481.25 251.744 481.25 251.373C481.25 250.756 481.455 250.287 481.865 249.967C482.279 249.643 482.824 249.48 483.5 249.48H486.342V255.902H485.369V253.324H483.74L482.059 255.902ZM482.193 251.379C482.193 251.762 482.33 252.047 482.604 252.234C482.877 252.418 483.268 252.51 483.775 252.51H485.369V250.295H483.605C483.105 250.295 482.744 250.396 482.521 250.6C482.303 250.799 482.193 251.059 482.193 251.379ZM489.371 249.48V252.176H492.951V249.48H493.924V255.902H492.951V253.002H489.371V255.902H488.393V249.48H489.371ZM501.09 251.092C501.09 251.494 500.973 251.809 500.738 252.035C500.504 252.258 500.201 252.408 499.83 252.486V252.533C500.232 252.588 500.578 252.732 500.867 252.967C501.16 253.197 501.307 253.551 501.307 254.027C501.307 254.395 501.219 254.719 501.043 255C500.867 255.281 500.592 255.502 500.217 255.662C499.842 255.822 499.354 255.902 498.752 255.902H495.986V249.48H498.729C499.189 249.48 499.596 249.533 499.947 249.639C500.303 249.74 500.582 249.908 500.785 250.143C500.988 250.377 501.09 250.693 501.09 251.092ZM500.293 254.027C500.293 253.648 500.148 253.375 499.859 253.207C499.574 253.039 499.158 252.955 498.611 252.955H496.965V255.111H498.635C499.174 255.111 499.584 255.029 499.865 254.865C500.15 254.697 500.293 254.418 500.293 254.027ZM500.1 251.203C500.1 250.898 499.988 250.672 499.766 250.523C499.543 250.371 499.178 250.295 498.67 250.295H496.965V252.141H498.5C499.027 252.141 499.426 252.064 499.695 251.912C499.965 251.76 500.1 251.523 500.1 251.203ZM511.174 255.902H505.561V255.088L507.852 252.762C508.277 252.332 508.635 251.949 508.924 251.613C509.217 251.277 509.439 250.947 509.592 250.623C509.744 250.295 509.82 249.936 509.82 249.545C509.82 249.061 509.676 248.691 509.387 248.438C509.102 248.18 508.725 248.051 508.256 248.051C507.846 248.051 507.482 248.121 507.166 248.262C506.85 248.402 506.525 248.602 506.193 248.859L505.672 248.203C505.898 248.012 506.145 247.842 506.41 247.693C506.68 247.545 506.967 247.428 507.271 247.342C507.58 247.256 507.908 247.213 508.256 247.213C508.783 247.213 509.238 247.305 509.621 247.488C510.004 247.672 510.299 247.934 510.506 248.273C510.717 248.613 510.822 249.018 510.822 249.486C510.822 249.939 510.732 250.361 510.553 250.752C510.373 251.139 510.121 251.523 509.797 251.906C509.473 252.285 509.094 252.688 508.66 253.113L506.797 254.971V255.012H511.174V255.902ZM515.135 250.664C515.717 250.664 516.223 250.764 516.652 250.963C517.082 251.158 517.414 251.443 517.648 251.818C517.887 252.193 518.006 252.648 518.006 253.184C518.006 253.77 517.879 254.275 517.625 254.701C517.371 255.123 517.006 255.449 516.529 255.68C516.053 255.906 515.482 256.02 514.818 256.02C514.373 256.02 513.959 255.98 513.576 255.902C513.193 255.824 512.871 255.707 512.609 255.551V254.625C512.895 254.797 513.24 254.934 513.646 255.035C514.053 255.137 514.447 255.188 514.83 255.188C515.264 255.188 515.643 255.119 515.967 254.982C516.295 254.842 516.549 254.631 516.729 254.35C516.912 254.064 517.004 253.707 517.004 253.277C517.004 252.707 516.828 252.268 516.477 251.959C516.129 251.646 515.578 251.49 514.824 251.49C514.582 251.49 514.316 251.51 514.027 251.549C513.738 251.588 513.5 251.631 513.312 251.678L512.82 251.355L513.148 247.336H517.408V248.227H513.98L513.764 250.811C513.912 250.779 514.104 250.748 514.338 250.717C514.572 250.682 514.838 250.664 515.135 250.664Z" fill="#868686"/>
<path d="M598.416 255.902H592.803V255.088L595.094 252.762C595.52 252.332 595.877 251.949 596.166 251.613C596.459 251.277 596.682 250.947 596.834 250.623C596.986 250.295 597.062 249.936 597.062 249.545C597.062 249.061 596.918 248.691 596.629 248.438C596.344 248.18 595.967 248.051 595.498 248.051C595.088 248.051 594.725 248.121 594.408 248.262C594.092 248.402 593.768 248.602 593.436 248.859L592.914 248.203C593.141 248.012 593.387 247.842 593.652 247.693C593.922 247.545 594.209 247.428 594.514 247.342C594.822 247.256 595.15 247.213 595.498 247.213C596.025 247.213 596.48 247.305 596.863 247.488C597.246 247.672 597.541 247.934 597.748 248.273C597.959 248.613 598.064 249.018 598.064 249.486C598.064 249.939 597.975 250.361 597.795 250.752C597.615 251.139 597.363 251.523 597.039 251.906C596.715 252.285 596.336 252.688 595.902 253.113L594.039 254.971V255.012H598.416V255.902ZM605.711 253.916H604.428V255.902H603.479V253.916H599.336V253.096L603.414 247.289H604.428V253.037H605.711V253.916ZM603.479 253.037V250.236C603.479 250.021 603.48 249.828 603.484 249.656C603.488 249.48 603.494 249.318 603.502 249.17C603.51 249.018 603.516 248.873 603.52 248.736C603.527 248.6 603.533 248.465 603.537 248.332H603.49C603.416 248.488 603.33 248.654 603.232 248.83C603.139 249.002 603.043 249.156 602.945 249.293L600.303 253.037H603.479ZM610.398 255.902H609.262L611.113 253.195C610.844 253.137 610.594 253.037 610.363 252.896C610.133 252.752 609.945 252.555 609.801 252.305C609.66 252.055 609.59 251.744 609.59 251.373C609.59 250.756 609.795 250.287 610.205 249.967C610.619 249.643 611.164 249.48 611.84 249.48H614.682V255.902H613.709V253.324H612.08L610.398 255.902ZM610.533 251.379C610.533 251.762 610.67 252.047 610.943 252.234C611.217 252.418 611.607 252.51 612.115 252.51H613.709V250.295H611.945C611.445 250.295 611.084 250.396 610.861 250.6C610.643 250.799 610.533 251.059 610.533 251.379ZM617.711 249.48V252.176H621.291V249.48H622.264V255.902H621.291V253.002H617.711V255.902H616.732V249.48H617.711ZM629.43 251.092C629.43 251.494 629.312 251.809 629.078 252.035C628.844 252.258 628.541 252.408 628.17 252.486V252.533C628.572 252.588 628.918 252.732 629.207 252.967C629.5 253.197 629.646 253.551 629.646 254.027C629.646 254.395 629.559 254.719 629.383 255C629.207 255.281 628.932 255.502 628.557 255.662C628.182 255.822 627.693 255.902 627.092 255.902H624.326V249.48H627.068C627.529 249.48 627.936 249.533 628.287 249.639C628.643 249.74 628.922 249.908 629.125 250.143C629.328 250.377 629.43 250.693 629.43 251.092ZM628.633 254.027C628.633 253.648 628.488 253.375 628.199 253.207C627.914 253.039 627.498 252.955 626.951 252.955H625.305V255.111H626.975C627.514 255.111 627.924 255.029 628.205 254.865C628.49 254.697 628.633 254.418 628.633 254.027ZM628.439 251.203C628.439 250.898 628.328 250.672 628.105 250.523C627.883 250.371 627.518 250.295 627.01 250.295H625.305V252.141H626.84C627.367 252.141 627.766 252.064 628.035 251.912C628.305 251.76 628.439 251.523 628.439 251.203ZM639.514 255.902H633.9V255.088L636.191 252.762C636.617 252.332 636.975 251.949 637.264 251.613C637.557 251.277 637.779 250.947 637.932 250.623C638.084 250.295 638.16 249.936 638.16 249.545C638.16 249.061 638.016 248.691 637.727 248.438C637.441 248.18 637.064 248.051 636.596 248.051C636.186 248.051 635.822 248.121 635.506 248.262C635.189 248.402 634.865 248.602 634.533 248.859L634.012 248.203C634.238 248.012 634.484 247.842 634.75 247.693C635.02 247.545 635.307 247.428 635.611 247.342C635.92 247.256 636.248 247.213 636.596 247.213C637.123 247.213 637.578 247.305 637.961 247.488C638.344 247.672 638.639 247.934 638.846 248.273C639.057 248.613 639.162 249.018 639.162 249.486C639.162 249.939 639.072 250.361 638.893 250.752C638.713 251.139 638.461 251.523 638.137 251.906C637.812 252.285 637.434 252.688 637 253.113L635.137 254.971V255.012H639.514V255.902ZM643.475 250.664C644.057 250.664 644.562 250.764 644.992 250.963C645.422 251.158 645.754 251.443 645.988 251.818C646.227 252.193 646.346 252.648 646.346 253.184C646.346 253.77 646.219 254.275 645.965 254.701C645.711 255.123 645.346 255.449 644.869 255.68C644.393 255.906 643.822 256.02 643.158 256.02C642.713 256.02 642.299 255.98 641.916 255.902C641.533 255.824 641.211 255.707 640.949 255.551V254.625C641.234 254.797 641.58 254.934 641.986 255.035C642.393 255.137 642.787 255.188 643.17 255.188C643.604 255.188 643.982 255.119 644.307 254.982C644.635 254.842 644.889 254.631 645.068 254.35C645.252 254.064 645.344 253.707 645.344 253.277C645.344 252.707 645.168 252.268 644.816 251.959C644.469 251.646 643.918 251.49 643.164 251.49C642.922 251.49 642.656 251.51 642.367 251.549C642.078 251.588 641.84 251.631 641.652 251.678L641.16 251.355L641.488 247.336H645.748V248.227H642.32L642.104 250.811C642.252 250.779 642.443 250.748 642.678 250.717C642.912 250.682 643.178 250.664 643.475 250.664Z" fill="#868686"/>
<path d="M132.025 213.801L64.8047 193.072V224.407H665.659V30.1289L573.084 70.1414H509.991C507.633 70.1414 488.567 93.924 479.329 105.815L422.723 101.959L381.447 126.545L314.227 114.975L260.569 141.007L198.655 136.186L132.025 213.801Z" fill="url(#paint0_linear_10593_118219)"/>
<path d="M64.8047 193.072L132.025 213.801L198.655 136.186L260.569 141.007L314.227 114.975L381.447 126.545L422.723 101.959L479.329 105.815C488.567 93.924 507.632 70.1415 509.991 70.1415C512.35 70.1415 553.036 70.1415 573.084 70.1415L665.659 30.1289" stroke="#8A8FD8" stroke-width="2" stroke-linecap="round"/>
<defs>
<linearGradient id="paint0_linear_10593_118219" x1="365.232" y1="112.082" x2="365.232" y2="224.407" gradientUnits="userSpaceOnUse">
<stop stop-color="#898FD8" stop-opacity="0.3"/>
<stop offset="1" stop-color="white" stop-opacity="0"/>
</linearGradient>
</defs>
</svg>
