<svg width="223" height="101" viewBox="0 0 223 101" fill="none" xmlns="http://www.w3.org/2000/svg">
<path d="M28.4997 60.4269L2.33594 99.2827H197.152C210.407 99.2827 221.152 88.5376 221.152 75.2827V9.82716L206.126 32.0941C196.024 47.065 173.629 45.9339 165.086 30.0213L156.985 14.9309C152.804 7.14229 144.68 2.28271 135.84 2.28271H109.037C101.063 2.28271 93.6096 6.24317 89.1471 12.8516L71.3121 39.2629C66.8496 45.8713 59.3963 49.8317 51.4223 49.8317H48.4072C40.422 49.8317 32.9597 53.8033 28.4997 60.4269Z" fill="url(#paint0_linear_12226_10391)"/>
<path d="M2.33594 99.2827L34.1477 52.0391C35.0769 50.6591 36.6315 49.8317 38.2951 49.8317H61.5183C63.1796 49.8317 64.7324 49.0066 65.662 47.6299L94.7972 4.48455C95.7269 3.10781 97.2796 2.28271 98.9409 2.28271H147.204C149.046 2.28271 150.739 3.29513 151.61 4.91776L179.972 57.7503C181.752 61.0654 186.418 61.3011 188.522 58.1821L221.152 9.82716" stroke="#25DE85" stroke-width="4"/>
<defs>
<linearGradient id="paint0_linear_12226_10391" x1="111.744" y1="2.28271" x2="111.744" y2="99.2827" gradientUnits="userSpaceOnUse">
<stop stop-color="#25DE85" stop-opacity="0.56"/>
<stop offset="1" stop-color="white" stop-opacity="0"/>
</linearGradient>
</defs>
</svg>
