<svg width="220" height="107" viewBox="0 0 220 107" fill="none" xmlns="http://www.w3.org/2000/svg">
<path d="M24.6792 70.7055L3.01562 102.283H192.988C206.243 102.283 216.988 91.5375 216.988 78.2827V45.2827L195.35 58.6653C186.164 64.3465 174.315 63.1917 166.398 55.8438L138.68 30.1149C135.621 27.2759 131.875 25.2835 127.812 24.3342L126.629 24.058C123.038 23.2191 119.302 23.2191 115.711 24.058L113.483 24.5784C110.087 25.3717 106.904 26.8958 104.157 29.0445L70.7304 55.1874C66.509 58.489 61.304 60.2827 55.9449 60.2827H44.4696C36.5581 60.2827 29.1549 64.1817 24.6792 70.7055Z" fill="url(#paint0_linear_12226_23690)"/>
<path d="M3.01562 102.283L26.6006 66.4639C31.72 58.6889 41.8465 55.9733 50.1693 60.1435V60.1435C56.9522 63.5422 65.1267 62.4208 70.7437 57.3211L99.8531 30.893C101.033 29.8221 102.316 28.8714 103.684 28.0548L109.436 24.6209C118.683 19.1006 130.475 20.4161 138.279 27.8386L166.774 54.9434C174.846 62.6208 187.139 63.7352 196.459 57.6345L216.094 44.7827" stroke="#25DE85" stroke-width="4"/>
<defs>
<linearGradient id="paint0_linear_12226_23690" x1="110.002" y1="5.28271" x2="110.002" y2="102.283" gradientUnits="userSpaceOnUse">
<stop stop-color="#25DE85" stop-opacity="0.56"/>
<stop offset="1" stop-color="white" stop-opacity="0"/>
</linearGradient>
</defs>
</svg>
