<svg width="32" height="33" viewBox="0 0 32 33" fill="none" xmlns="http://www.w3.org/2000/svg">
<g clip-path="url(#clip0_12155_78418)">
<path fill-rule="evenodd" clip-rule="evenodd" d="M23.7705 20.4588L24.9795 19.8601C28.245 18.2432 29.7266 16.0588 29.7266 14.1292C29.7266 12.4457 28.6184 10.5828 26.1252 9.03393C23.6696 7.50843 20.1525 6.5 16.1641 6.5C12.1757 6.5 8.65855 7.50843 6.20297 9.03393C3.70973 10.5828 2.60156 12.4457 2.60156 14.1292C2.60156 15.8127 3.70973 17.6756 6.20297 19.2245C8.65855 20.75 12.1757 21.7584 16.1641 21.7584C16.9299 21.7584 17.6803 21.7212 18.4108 21.6497L19.1501 21.5774L24.1921 25.4325L23.7705 20.4588ZM25.8175 21.6634L26.2866 27.1975C26.3709 28.1922 25.41 28.8526 24.6849 28.2983L18.5936 23.6408C17.802 23.7182 16.9906 23.7584 16.1641 23.7584C7.60365 23.7584 0.664062 19.4473 0.664062 14.1292C0.664062 8.81114 7.60365 4.5 16.1641 4.5C24.7245 4.5 31.6641 8.81114 31.6641 14.1292C31.6641 17.1798 29.3806 19.8991 25.8175 21.6634Z" fill="white"/>
<path d="M12.2891 14C12.2891 14.8284 11.6385 15.5 10.8359 15.5C10.0334 15.5 9.38281 14.8284 9.38281 14C9.38281 13.1716 10.0334 12.5 10.8359 12.5C11.6385 12.5 12.2891 13.1716 12.2891 14Z" fill="white"/>
<path d="M17.375 14C17.375 14.8284 16.7244 15.5 15.9219 15.5C15.1193 15.5 14.4688 14.8284 14.4688 14C14.4688 13.1716 15.1193 12.5 15.9219 12.5C16.7244 12.5 17.375 13.1716 17.375 14Z" fill="white"/>
<path d="M22.4609 14C22.4609 14.8284 21.8104 15.5 21.0078 15.5C20.2053 15.5 19.5547 14.8284 19.5547 14C19.5547 13.1716 20.2053 12.5 21.0078 12.5C21.8104 12.5 22.4609 13.1716 22.4609 14Z" fill="white"/>
</g>
<defs>
<clipPath id="clip0_12155_78418">
<rect width="31" height="32" fill="white" transform="translate(0.664062 0.5)"/>
</clipPath>
</defs>
</svg>
