<svg width="20" height="20" viewBox="0 0 20 20" fill="none" xmlns="http://www.w3.org/2000/svg">
<path fill-rule="evenodd" clip-rule="evenodd" d="M2.66892 2.5C2.23406 2.5 1.875 2.85574 1.875 3.30266C1.875 3.74959 2.23406 4.10533 2.66892 4.10533C2.82363 4.10533 2.96875 4.0603 3.09152 3.98216C3.12145 3.92029 3.16218 3.86234 3.2137 3.81114C3.25705 3.76806 3.30512 3.73265 3.35625 3.70489C3.42394 3.58698 3.46284 3.44976 3.46284 3.30266C3.46284 2.85574 3.10377 2.5 2.66892 2.5ZM4.4989 4.21766C4.63588 3.94187 4.71284 3.63102 4.71284 3.30266C4.71284 2.17264 3.80136 1.25 2.66892 1.25C1.53648 1.25 0.625 2.17264 0.625 3.30266C0.625 4.43269 1.53648 5.35533 2.66892 5.35533C3.01634 5.35533 3.34296 5.26849 3.62885 5.11547L5.49397 6.99209C4.71782 7.92672 4.25113 9.12968 4.25113 10.441C4.25113 11.6713 4.66196 12.8063 5.35376 13.7137L4.83803 14.2326C4.56482 14.0964 4.25668 14.0197 3.93018 14.0197C2.79774 14.0197 1.88626 14.9423 1.88626 16.0723C1.88626 17.2024 2.79774 18.125 3.93018 18.125C5.06262 18.125 5.9741 17.2024 5.9741 16.0723C5.9741 15.7231 5.88703 15.3936 5.73327 15.1051L6.2217 14.6136C7.14359 15.3706 8.32136 15.8249 9.60586 15.8249C12.3696 15.8249 14.6393 13.7216 14.9293 11.0263H15.3716C15.6221 11.873 16.4023 12.4937 17.3311 12.4937C18.4635 12.4937 19.375 11.571 19.375 10.441C19.375 9.31096 18.4635 8.38832 17.3311 8.38832C16.4315 8.38832 15.6714 8.97049 15.3968 9.77633H14.9202C14.5946 7.11923 12.3425 5.05711 9.60586 5.05711C8.40215 5.05711 7.29218 5.45606 6.39866 6.12913L4.4989 4.21766ZM6.69305 7.52833C6.73631 7.5026 6.77714 7.47119 6.81446 7.4341C6.84455 7.40419 6.87096 7.37198 6.89369 7.33802C7.61744 6.69609 8.56722 6.30711 9.60586 6.30711C11.8692 6.30711 13.7106 8.15428 13.7106 10.441C13.7106 12.7277 11.8692 14.5749 9.60586 14.5749C8.49924 14.5749 7.4935 14.1333 6.75453 13.4147C6.72803 13.3699 6.69545 13.3277 6.6568 13.2893C6.62547 13.2581 6.59168 13.231 6.55605 13.2079C5.90057 12.4757 5.50113 11.506 5.50113 10.441C5.50113 9.30364 5.95665 8.27502 6.69305 7.52833ZM17.3311 9.63832C16.8962 9.63832 16.5372 9.99406 16.5372 10.441C16.5372 10.8879 16.8962 11.2437 17.3311 11.2437C17.7659 11.2437 18.125 10.8879 18.125 10.441C18.125 9.99406 17.7659 9.63832 17.3311 9.63832ZM3.93018 15.2697C3.49533 15.2697 3.13626 15.6254 3.13626 16.0723C3.13626 16.5193 3.49533 16.875 3.93018 16.875C4.36503 16.875 4.7241 16.5193 4.7241 16.0723C4.7241 15.6254 4.36503 15.2697 3.93018 15.2697Z" fill="#868686"/>
</svg>
