<svg width="20" height="20" viewBox="0 0 20 20" fill="none" xmlns="http://www.w3.org/2000/svg">
<path fill-rule="evenodd" clip-rule="evenodd" d="M8.695 2.02567C9.11918 0.991447 10.5838 0.99144 11.008 2.02567L12.741 6.25094L17.2949 6.59339C18.4096 6.67722 18.8622 8.07019 18.0097 8.7932L14.5268 11.747L15.6083 16.1839C15.8731 17.27 14.6881 18.1309 13.737 17.5435L9.85151 15.1438L5.96597 17.5435C5.0149 18.1309 3.82996 17.27 4.0947 16.1839L5.17627 11.747L1.69331 8.7932C0.84078 8.0702 1.29338 6.67722 2.40807 6.59339L6.96205 6.25094L8.695 2.02567ZM11.5845 6.72527L9.85151 2.5L8.11856 6.72527C7.939 7.16306 7.52764 7.46194 7.05578 7.49742L2.5018 7.83987L5.98476 10.7937C6.34564 11.0997 6.50277 11.5833 6.39071 12.0431L5.30914 16.48L9.19468 14.0803C9.59727 13.8316 10.1057 13.8316 10.5083 14.0803L14.3939 16.48L13.3123 12.0431C13.2002 11.5833 13.3574 11.0997 13.7183 10.7937L17.2012 7.83987L12.6472 7.49742C12.1754 7.46194 11.764 7.16306 11.5845 6.72527Z" fill="#868686"/>
</svg>
