<svg width="16" height="16" viewBox="0 0 16 16" fill="none" xmlns="http://www.w3.org/2000/svg">
<path fill-rule="evenodd" clip-rule="evenodd" d="M6.32312 1.96224C6.43949 1.68128 6.71347 1.5 7.01537 1.5L9.90606 1.50001C10.0227 1.50001 10.1438 1.5006 10.2634 1.50118C10.356 1.50162 10.4478 1.50207 10.536 1.50224C11.1032 1.50331 11.4757 2.11472 11.1942 2.62088L9.03476 6.50319H11.4482C12.0874 6.50319 12.4485 7.26707 11.9907 7.75267C11.9705 7.77414 11.9504 7.79543 11.9304 7.81657C11.8131 7.94081 11.7006 8.06005 11.5908 8.18191C11.552 8.22501 11.5132 8.26816 11.4743 8.31131C10.9599 8.8827 10.4417 9.45825 9.90686 10.0224L9.90605 10.0233L7.01115 13.1026C6.79515 13.3272 6.56996 13.5691 6.34037 13.8158C6.15943 14.0102 5.97574 14.2076 5.79164 14.4017C5.56992 14.6355 5.23829 14.6396 5.01433 14.4795C4.79141 14.3202 4.68775 14.0076 4.83338 13.7227C4.85084 13.6886 4.86824 13.6546 4.88559 13.6207C5.02396 13.3502 5.15871 13.0868 5.28967 12.8209L5.29007 12.8201L6.3904 10.565C6.48216 10.3799 6.57335 10.2003 6.66328 10.0233C6.71383 9.92372 6.76398 9.82495 6.81362 9.72643H4.34937C3.83876 9.72643 3.46591 9.22007 3.64699 8.72523C3.81057 8.27819 4.00207 7.81052 4.1878 7.35693C4.30975 7.05911 4.42922 6.76735 4.53667 6.49148L4.53747 6.48943L5.34275 4.44857L5.34315 4.44756C5.41492 4.26326 5.48663 4.07805 5.55856 3.89228C5.80692 3.25083 6.05788 2.60267 6.32312 1.96224ZM6.94069 11.7176L9.17892 9.33676L9.18038 9.33521C9.70627 8.78056 10.2164 8.2139 10.7329 7.64023C10.7712 7.59777 10.8094 7.55528 10.8477 7.51275M6.94069 11.7176L7.28635 11.0092L7.28704 11.0078C7.36939 10.8417 7.4557 10.6717 7.54327 10.4991C7.72002 10.1509 7.90191 9.79263 8.06668 9.43628L8.3949 8.72643H4.71493C4.83838 8.40639 4.96775 8.091 5.09871 7.77174C5.22162 7.47207 5.34594 7.16899 5.46808 6.85545L5.46848 6.85442L6.27377 4.81354L6.27457 4.81149C6.34812 4.62266 6.42102 4.43437 6.49373 4.2466C6.721 3.65965 6.94632 3.0777 7.18311 2.5L9.90603 2.50001V2.50001C9.97738 2.50001 10.0473 2.50022 10.1168 2.50051L8.08009 6.16228L8.07979 6.16283C8.0639 6.19123 8.04693 6.22113 8.02924 6.25233C7.9376 6.41386 7.82631 6.61002 7.74264 6.81109L7.45464 7.50319H10.8563C10.8535 7.50637 10.8506 7.50957 10.8477 7.51275" fill="#868686"/>
</svg>
