<svg width="16" height="16" viewBox="0 0 16 16" fill="none" xmlns="http://www.w3.org/2000/svg">
<path fill-rule="evenodd" clip-rule="evenodd" d="M8 14C11.3137 14 14 11.3137 14 8C14 4.68629 11.3137 2 8 2C4.68629 2 2 4.68629 2 8C2 11.3137 4.68629 14 8 14ZM8 15C11.866 15 15 11.866 15 8C15 4.13401 11.866 1 8 1C4.13401 1 1 4.13401 1 8C1 11.866 4.13401 15 8 15Z" fill="white"/>
<path fill-rule="evenodd" clip-rule="evenodd" d="M10.862 6.15507C11.0525 6.35498 11.0448 6.67147 10.8449 6.86197L7.35185 10.1907L5.15507 8.09726C4.95516 7.90676 4.94753 7.59027 5.13803 7.39036C5.32853 7.19045 5.64503 7.18283 5.84493 7.37333L7.35185 8.80933L10.1551 6.13803C10.355 5.94753 10.6715 5.95516 10.862 6.15507Z" fill="white"/>
</svg>
