<svg width="16" height="16" viewBox="0 0 16 16" fill="none" xmlns="http://www.w3.org/2000/svg">
<path d="M11.1781 2.72759C10.9829 2.53232 10.9829 2.21574 11.1781 2.02048L12.0522 1.14645C12.2474 0.951184 12.564 0.951184 12.7593 1.14645C12.9545 1.34171 12.9545 1.65829 12.7593 1.85355L11.8852 2.72759C11.69 2.92285 11.3734 2.92285 11.1781 2.72759Z" fill="#868686"/>
<path fill-rule="evenodd" clip-rule="evenodd" d="M8.49644 1.91858C8.96947 1.44129 9.76923 1.55708 10.0875 2.14893L13.7097 8.88566C14.028 9.47752 13.6835 10.2085 13.0245 10.3399L8.96596 11.1491L9.64249 12.4073C9.90404 12.8938 9.72174 13.5001 9.23531 13.7617L6.81323 15.064C6.3268 15.3255 5.72045 15.1432 5.4589 14.6568L4.27499 12.4549L3.39448 12.9284C2.90805 13.1899 2.3017 13.0076 2.04015 12.5212L0.619439 9.87893C0.357893 9.3925 0.540195 8.78615 1.02662 8.52461L1.90738 8.05103C2.10679 7.94381 2.32635 7.91118 2.53405 7.94352C2.55694 7.91462 2.5816 7.88676 2.60802 7.86011L8.49644 1.91858ZM2.43753 9.03761C2.4338 9.03066 2.43015 9.02368 2.42659 9.01668L2.38095 8.93179L1.50019 9.40536L2.92091 12.0476L3.80142 11.5742L2.43753 9.03761ZM12.829 9.35923L4.62559 10.9948L3.31849 8.56383L9.20671 2.62251L12.829 9.35923ZM7.9405 11.3536L5.12049 11.9158L6.33966 14.1832L8.76173 12.8809L7.9405 11.3536Z" fill="#868686"/>
<path d="M12.8226 4.17264C12.5756 4.29614 12.4755 4.59647 12.599 4.84346C12.7225 5.09045 13.0228 5.19056 13.2698 5.06707L14.3754 4.51428C14.6223 4.39079 14.7225 4.09045 14.599 3.84346C14.4755 3.59647 14.1751 3.49636 13.9281 3.61986L12.8226 4.17264Z" fill="#868686"/>
<path d="M14.0468 6.77404C13.7801 6.84551 13.6218 7.11968 13.6932 7.38641C13.7647 7.65315 14.0389 7.81144 14.3056 7.73997L15.4996 7.42005C15.7663 7.34858 15.9246 7.07441 15.8531 6.80768C15.7817 6.54094 15.5075 6.38265 15.2407 6.45412L14.0468 6.77404Z" fill="#868686"/>
</svg>
