<svg width="16" height="16" viewBox="0 0 16 16" fill="none" xmlns="http://www.w3.org/2000/svg">
<path fill-rule="evenodd" clip-rule="evenodd" d="M2 8.00059C2 8.41991 2.07059 8.82082 2.19948 9.19183C2.40552 9.78486 2.72564 10.0848 3.07422 10.2231C3.44011 10.3683 3.91522 10.366 4.46705 10.1968C5.48965 9.88322 6.6157 9.04268 7.38961 8.00059C6.6157 6.95851 5.48965 6.11797 4.46705 5.80443C3.91522 5.63523 3.44011 5.63284 3.07422 5.77805C2.72564 5.9164 2.40552 6.21632 2.19948 6.80936C2.07059 7.18037 2 7.58128 2 8.00059ZM8 7.15667C7.12778 6.08099 5.92778 5.20635 4.76019 4.84836C4.07265 4.63755 3.35006 4.5927 2.70533 4.84858C2.04328 5.11133 1.53987 5.66085 1.25487 6.48118C1.08968 6.95664 1 7.46842 1 8.00059C1 8.53276 1.08968 9.04454 1.25487 9.52001C1.53987 10.3403 2.04328 10.8899 2.70533 11.1526C3.35006 11.4085 4.07265 11.3636 4.76019 11.1528C5.92778 10.7948 7.12778 9.9202 8 8.84452C8.87222 9.9202 10.0722 10.7948 11.2398 11.1528C11.9274 11.3636 12.6499 11.4085 13.2947 11.1526C13.9567 10.8899 14.4601 10.3403 14.7451 9.52001C14.9103 9.04454 15 8.53276 15 8.00059C15 7.46842 14.9103 6.95664 14.7451 6.48118C14.4601 5.66085 13.9567 5.11133 13.2947 4.84858C12.6499 4.5927 11.9274 4.63755 11.2398 4.84836C10.0722 5.20635 8.87222 6.08099 8 7.15667ZM8.61039 8.00059C9.3843 9.04268 10.5104 9.88322 11.533 10.1968C12.0848 10.366 12.5599 10.3683 12.9258 10.2231C13.2744 10.0848 13.5945 9.78486 13.8005 9.19183C13.9294 8.82082 14 8.41991 14 8.00059C14 7.58128 13.9294 7.18037 13.8005 6.80936C13.5945 6.21632 13.2744 5.9164 12.9258 5.77805C12.5599 5.63284 12.0848 5.63523 11.533 5.80443C10.5104 6.11797 9.3843 6.95851 8.61039 8.00059Z" fill="#868686"/>
</svg>
