<svg width="50" height="144" viewBox="0 0 50 144" fill="none" xmlns="http://www.w3.org/2000/svg">
<g clip-path="url(#clip0_4322_187870)">
<path fill-rule="evenodd" clip-rule="evenodd" d="M45.6118 38.0626L42.7323 35.5962C42.0503 35.0121 40.4755 34.1335 38.6647 33.3452C38.0008 33.0562 37.3491 32.7984 36.7445 32.5831L24.129 39.9531C24.0236 40.5704 23.9324 41.2474 23.8618 41.9512C23.6675 43.8873 23.6621 45.6884 23.8274 46.5942L24.5075 50.3201L21.3982 48.1576C19.3052 46.702 16.1417 44.2499 13.4194 41.5939C12.0589 40.2666 10.7762 38.8571 9.78953 37.4696C8.82677 36.1158 8.03098 34.6259 7.85686 33.157C7.68859 31.7374 7.99225 30.4987 8.66582 29.4886C9.32148 28.5054 10.2557 27.8446 11.1922 27.4115C11.3838 27.3229 11.5792 27.2421 11.7772 27.1687C9.56377 23.6474 7.58951 19.6044 7.0364 15.715C6.75195 13.7147 6.80739 11.5184 6.97319 9.56859C7.49089 3.48024 13.6975 -0.220372 19.2766 2.42194C21.0315 3.25306 22.945 4.3057 24.5208 5.55991C27.5899 8.00271 30.0571 11.7586 31.947 15.4213C32.1197 15.2785 32.298 15.1422 32.4813 15.0139C33.3346 14.4171 34.3831 13.9348 35.5666 13.8539C36.7845 13.7706 38.0171 14.1226 39.1637 14.9856C40.3438 15.8739 41.2286 17.3139 41.9119 18.8284C42.6126 20.3815 43.1843 22.2034 43.6464 24.052C44.5711 27.7512 45.0997 31.7328 45.3061 34.2835L45.6118 38.0626ZM30.5998 19.8404C30.3292 19.2334 30.045 18.6207 29.7472 18.0083C27.8694 14.1461 25.456 10.2983 22.5747 8.00498C21.2665 6.96375 19.5947 6.03036 17.939 5.2462C14.3757 3.55859 10.4242 5.86705 10.0869 9.83336C9.93024 11.6763 9.89322 13.608 10.1303 15.275C10.653 18.951 12.744 22.9951 15.1142 26.575C15.4885 27.1403 15.8697 27.694 16.2529 28.2329C19.7273 33.1196 23.357 36.7849 23.357 36.7849L34.371 30.3505C34.371 30.3505 33.0475 25.3318 30.5998 19.8404ZM37.3769 29.4947L37.3724 29.4779C37.3605 29.4336 37.3433 29.3707 37.321 29.2902C37.2765 29.1292 37.2113 28.8979 37.1259 28.6052C36.9551 28.0201 36.7031 27.1879 36.3726 26.1806C35.7134 24.1715 34.7335 21.4386 33.4541 18.5682C33.4246 18.502 33.3949 18.4356 33.365 18.3691C33.6378 18.0791 33.9431 17.8051 34.2725 17.5747C34.8068 17.201 35.3184 17.0031 35.7799 16.9716C36.2069 16.9424 36.704 17.0455 37.2843 17.4823C37.831 17.8939 38.4499 18.7538 39.0634 20.1136C39.6595 21.4347 40.1776 23.0614 40.6147 24.8098C41.1678 27.0227 41.5739 29.3605 41.8473 31.3934C41.2195 31.0717 40.5606 30.7623 39.912 30.4799C39.0883 30.1213 38.2167 29.7782 37.3769 29.4947ZM21.1293 38.9764L21.1221 38.9691L21.0905 38.937C21.064 38.9099 21.0264 38.8714 20.9785 38.8219C20.8827 38.723 20.7456 38.5803 20.5727 38.3972C20.227 38.0313 19.7372 37.5034 19.1477 36.8419C17.9712 35.5217 16.3853 33.6559 14.7505 31.474C14.3703 30.9667 13.9817 30.4347 13.5907 29.8816C13.2203 29.968 12.8495 30.0881 12.5039 30.2479C11.9291 30.5137 11.5159 30.8473 11.2657 31.2224C11.0335 31.5707 10.873 32.0542 10.9601 32.7892C11.0414 33.475 11.4734 34.4453 12.3362 35.6585C13.1751 36.8381 14.3157 38.1025 15.6017 39.3571C17.2148 40.9309 19.0056 42.4402 20.6072 43.6879C20.6343 43.0118 20.6844 42.3165 20.7524 41.6392C20.8409 40.7577 20.9659 39.8403 21.1293 38.9764Z" fill="white"/>
<path fill-rule="evenodd" clip-rule="evenodd" d="M20.3112 15.6248C18.5853 15.6248 17.1862 17.0239 17.1862 18.7498C17.1862 20.4757 18.5853 21.8748 20.3112 21.8748C22.0371 21.8748 23.4362 20.4757 23.4362 18.7498C23.4362 17.0239 22.0371 15.6248 20.3112 15.6248ZM14.0612 18.7498C14.0612 15.298 16.8594 12.4998 20.3112 12.4998C23.763 12.4998 26.5612 15.298 26.5612 18.7498C26.5612 22.2016 23.763 24.9998 20.3112 24.9998C16.8594 24.9998 14.0612 22.2016 14.0612 18.7498Z" fill="white"/>
</g>
<defs>
<clipPath id="clip0_4322_187870">
<rect width="50" height="50" fill="white"/>
</clipPath>
</defs>
</svg>
