<svg width="23" height="22" viewBox="0 0 23 22" fill="none" xmlns="http://www.w3.org/2000/svg">
<path fill-rule="evenodd" clip-rule="evenodd" d="M5.625 3.4375C4.48591 3.4375 3.5625 4.36091 3.5625 5.5L3.5625 16.5C3.5625 17.6391 4.48591 18.5625 5.625 18.5625H16.625C17.7641 18.5625 18.6875 17.6391 18.6875 16.5V11C18.6875 10.6203 18.9953 10.3125 19.375 10.3125C19.7547 10.3125 20.0625 10.6203 20.0625 11V16.5C20.0625 18.3985 18.5235 19.9375 16.625 19.9375H5.625C3.72652 19.9375 2.1875 18.3985 2.1875 16.5L2.1875 5.5C2.1875 3.60152 3.72652 2.0625 5.625 2.0625L11.125 2.0625C11.5047 2.0625 11.8125 2.3703 11.8125 2.75C11.8125 3.1297 11.5047 3.4375 11.125 3.4375L5.625 3.4375Z" fill="black"/>
<path fill-rule="evenodd" clip-rule="evenodd" d="M18.4861 3.63886C18.7546 3.90735 18.7546 4.34265 18.4861 4.61114L10.7223 12.375H13.5313C13.9109 12.375 14.2188 12.6828 14.2188 13.0625C14.2188 13.4422 13.9109 13.75 13.5313 13.75L8.375 13.75L8.375 8.96615C8.375 8.58645 8.6828 8.27865 9.0625 8.27865C9.4422 8.27865 9.75 8.58645 9.75 8.96615V11.4027L17.5139 3.63886C17.7824 3.37038 18.2177 3.37038 18.4861 3.63886Z" fill="black"/>
</svg>
