<svg width="20" height="20" viewBox="0 0 20 20" fill="none" xmlns="http://www.w3.org/2000/svg">
<path fill-rule="evenodd" clip-rule="evenodd" d="M11.2115 2.84259C10.7952 2.60226 10.2889 2.5 9.81648 2.5C9.34405 2.5 8.83775 2.60226 8.42145 2.84259L2.01093 6.54338C1.59814 6.78169 1.25 7.18141 1.25 7.70962C1.25 8.23783 1.59814 8.63755 2.01093 8.87585L3.46245 9.71382V13.5277C3.46245 14.0722 3.83208 14.468 4.22338 14.6939L8.37418 17.0902C8.79048 17.3305 9.29678 17.4328 9.76921 17.4328C10.2417 17.4328 10.7479 17.3305 11.1643 17.0902L15.315 14.6939C15.7063 14.468 16.076 14.0721 16.076 13.5277V9.7684L17.1875 9.12671V11.4887C16.9957 11.6604 16.875 11.9098 16.875 12.1875C16.875 12.7053 17.2947 13.125 17.8125 13.125C18.3303 13.125 18.75 12.7053 18.75 12.1875C18.75 11.9098 18.6293 11.6604 18.4375 11.4887V9.01535C18.4375 8.7331 18.375 8.46499 18.2629 8.22439C18.3387 8.07015 18.383 7.89806 18.383 7.70962C18.383 7.18141 18.0348 6.78169 17.622 6.54338L11.2115 2.84259ZM4.71245 13.5025V10.4354L8.42145 12.5766C8.83775 12.817 9.34405 12.9192 9.81648 12.9192C10.2889 12.9192 10.7952 12.817 11.2115 12.5766L14.826 10.49V13.5025C14.8116 13.5222 14.7728 13.5636 14.6901 13.6114L10.5393 16.0076C10.3577 16.1124 10.0804 16.1828 9.76921 16.1828C9.45803 16.1828 9.18071 16.1124 8.99914 16.0076L4.84834 13.6114C4.7656 13.5636 4.72684 13.5222 4.71245 13.5025ZM9.71152 6.87546L16.1243 7.12211L10.5866 3.92514C10.405 3.82032 10.1277 3.75 9.81648 3.75C9.5053 3.75 9.22798 3.82032 9.04641 3.92514L2.63589 7.62594C2.57872 7.65894 2.54299 7.68836 2.52166 7.70962C2.54299 7.73088 2.57872 7.7603 2.63589 7.7933L9.04641 11.4941C9.22798 11.5989 9.5053 11.6692 9.81648 11.6692C10.1277 11.6692 10.405 11.5989 10.5866 11.4941L16.0011 8.36829L9.66348 8.12454C9.31856 8.11127 9.0497 7.8209 9.06296 7.47598C9.07623 7.13106 9.3666 6.8622 9.71152 6.87546Z" fill="#868686"/>
</svg>
