<svg width="35" height="34" viewBox="0 0 35 34" fill="none" xmlns="http://www.w3.org/2000/svg">
<circle cx="17.4424" cy="17.001" r="16.8525" fill="#F4F4F4"/>
<path fill-rule="evenodd" clip-rule="evenodd" d="M7.18457 11.1393C7.18457 10.3299 7.84067 9.67383 8.65001 9.67383H22.0417C22.8511 9.67383 23.5072 10.3299 23.5072 11.1393V12.5161L25.5027 11.3643C26.4797 10.8005 27.7007 11.5056 27.7007 12.6336V20.8832C27.7007 22.0112 26.4797 22.7163 25.5027 22.1524L23.5072 21.0007V22.1301C23.5072 22.9394 22.8511 23.5955 22.0417 23.5955H8.65001C7.84067 23.5955 7.18457 22.9394 7.18457 22.1301V11.1393ZM23.5072 19.3087L26.2353 20.8832L26.2353 12.6336L23.5072 14.2081V19.3087ZM22.0417 11.1393H8.65001V22.1301H22.0417L22.0417 11.1393Z" fill="#868686"/>
</svg>
