<svg width="293" height="293" viewBox="0 0 293 293" fill="none" xmlns="http://www.w3.org/2000/svg">
<path fill-rule="evenodd" clip-rule="evenodd" d="M146.211 50.6084C93.4111 50.6084 50.6084 93.4111 50.6084 146.211C50.6084 199.011 93.4111 241.813 146.211 241.813C199.011 241.813 241.813 199.011 241.813 146.211C241.813 93.4111 199.011 50.6084 146.211 50.6084ZM0 146.211C0 65.4609 65.4609 0 146.211 0C226.961 0 292.422 65.4609 292.422 146.211C292.422 226.961 226.961 292.422 146.211 292.422C65.4609 292.422 0 226.961 0 146.211Z" fill="#F4F4F4"/>
<path fill-rule="evenodd" clip-rule="evenodd" d="M146.208 50.6084C118.645 50.6084 93.8379 62.2399 76.3574 80.9356L39.3906 46.3716C66.0406 17.869 104.057 0 146.208 0V50.6084Z" fill="#EF766F"/>
<path d="M146.207 0V50.6084C137.837 50.6084 129.72 51.6812 121.986 53.6988L105.016 5.88798C118.082 2.05684 131.907 0 146.207 0Z" fill="#65CBBF"/>
<path fill-rule="evenodd" clip-rule="evenodd" d="M76.3607 80.9409C60.3644 98.0493 50.6084 120.966 50.6084 146.216H0C0 107.631 14.9802 72.4879 39.3939 46.377L76.3607 80.9409Z" fill="#CC809F"/>
<path fill-rule="evenodd" clip-rule="evenodd" d="M50.6084 146.211C50.6084 199.011 93.4111 241.813 146.211 241.813V292.422C65.4609 292.422 0 226.961 0 146.211H50.6084Z" fill="#8A8FD8"/>
<path fill-rule="evenodd" clip-rule="evenodd" d="M241.813 146.211C241.813 93.4111 199.011 50.6084 146.211 50.6084V0C226.961 0 292.422 65.4609 292.422 146.211C292.422 226.961 226.961 292.422 146.211 292.422V241.813C199.011 241.813 241.813 199.011 241.813 146.211Z" fill="#76BBEF"/>
</svg>
