<svg width="447" height="83" viewBox="0 0 447 83" fill="none" xmlns="http://www.w3.org/2000/svg">
<path d="M0 81.25L23.5803 70.9531H39.9839L59.4633 61.4482H72.7913L91.2454 53.5274H125.078L152.759 35.3098L163.011 39.2701L178.39 35.3098L192.743 25.0128H201.97C202.312 28.4451 203.816 35.3098 207.096 35.3098C220.219 38.4781 228.284 36.6299 230.677 35.3098L237.853 25.0128L252.206 15.5079H268.61L282.963 11.5476H296.291L312.695 31.3494H326.023L335.25 25.0128V19.4683L356.78 11.5476C360.539 8.90732 369.083 4.41891 373.183 7.5872C377.284 10.7555 385.144 8.90732 388.562 7.5872L408.041 11.5476L428.546 7.5872L447 1.25" stroke="#FF7255" stroke-width="2" stroke-linecap="round"/>
<path d="M23.5803 70.953L0 81.25V82.25H447V1.25L428.546 7.5872L408.041 11.5476L388.562 7.5872C385.144 8.90732 377.284 10.7555 373.183 7.5872C369.083 4.41891 360.539 8.90732 356.78 11.5476L335.25 19.4683V25.0128L326.023 31.3494H312.695L296.291 11.5476H282.963L268.61 15.5079H252.206L237.853 25.0128L230.677 35.3098C228.284 36.6299 220.219 38.4781 207.096 35.3098C203.816 35.3098 202.312 28.4451 201.97 25.0128H192.743L178.39 35.3098L163.011 39.2701L152.759 35.3098L125.078 53.5274H91.2454L72.7913 61.4482H59.4633L39.9839 70.953H23.5803Z" fill="url(#paint0_linear_12260_30400)"/>
<defs>
<linearGradient id="paint0_linear_12260_30400" x1="271.744" y1="15.25" x2="271.744" y2="84.75" gradientUnits="userSpaceOnUse">
<stop stop-color="#FF7255" stop-opacity="0.48"/>
<stop offset="1" stop-color="white" stop-opacity="0"/>
</linearGradient>
</defs>
</svg>
