<svg width="35" height="34" viewBox="0 0 35 34" fill="none" xmlns="http://www.w3.org/2000/svg">
<circle cx="17.7373" cy="17.001" r="16.8525" fill="#F4F4F4"/>
<path fill-rule="evenodd" clip-rule="evenodd" d="M12.8359 12.6303H9.67765C9.27298 12.6303 8.94493 12.9583 8.94493 13.363V22.8631C8.94493 23.2677 9.27298 23.5958 9.67765 23.5958H25.848C26.2527 23.5958 26.5807 23.2677 26.5807 22.8631V13.363C26.5807 12.9583 26.2527 12.6303 25.848 12.6303H22.6897V11.1396C22.6897 10.7349 22.3617 10.4068 21.957 10.4068H13.5686C13.164 10.4068 12.8359 10.7349 12.8359 11.1396V12.6303ZM24.1552 11.1648V11.1396C24.1552 9.92555 23.171 8.94141 21.957 8.94141H13.5686C12.3546 8.94141 11.3705 9.92555 11.3705 11.1396V11.1648H9.67765C8.46364 11.1648 7.47949 12.149 7.47949 13.363V22.8631C7.47949 24.0771 8.46364 25.0612 9.67765 25.0612H25.848C27.062 25.0612 28.0462 24.0771 28.0462 22.8631V13.363C28.0462 12.149 27.062 11.1648 25.848 11.1648H24.1552Z" fill="#868686"/>
<path fill-rule="evenodd" clip-rule="evenodd" d="M17.7371 20.6651C19.3558 20.6651 20.668 19.3529 20.668 17.7342C20.668 16.1155 19.3558 14.8033 17.7371 14.8033C16.1185 14.8033 14.8063 16.1155 14.8063 17.7342C14.8063 19.3529 16.1185 20.6651 17.7371 20.6651ZM17.7371 22.1305C20.1652 22.1305 22.1334 20.1622 22.1334 17.7342C22.1334 15.3062 20.1652 13.3379 17.7371 13.3379C15.3091 13.3379 13.3408 15.3062 13.3408 17.7342C13.3408 20.1622 15.3091 22.1305 17.7371 22.1305Z" fill="#868686"/>
</svg>
