<svg width="34" height="34" viewBox="0 0 34 34" fill="none" xmlns="http://www.w3.org/2000/svg">
<circle cx="17.1475" cy="17.001" r="16.8525" fill="#F4F4F4"/>
<path d="M15.6815 7.4752C14.0628 7.4752 12.7506 8.7874 12.7506 10.4061V22.1296C12.7506 24.5576 14.7189 26.5259 17.1469 26.5259C19.5749 26.5259 21.5432 24.5576 21.5432 22.1296V11.5052C21.5432 11.1005 21.8713 10.7724 22.2759 10.7724C22.6806 10.7724 23.0087 11.1005 23.0087 11.5052V22.1296C23.0087 25.3669 20.3843 27.9913 17.1469 27.9913C13.9096 27.9913 11.2852 25.3669 11.2852 22.1296V10.4061C11.2852 7.97806 13.2535 6.00977 15.6815 6.00977C18.1095 6.00977 20.0778 7.97806 20.0778 10.4061V20.6641C20.0778 22.2828 18.7656 23.595 17.1469 23.595C15.5282 23.595 14.216 22.2828 14.216 20.6641V12.2379C14.216 11.8332 14.5441 11.5052 14.9488 11.5052C15.3534 11.5052 15.6815 11.8332 15.6815 12.2379V20.6641C15.6815 21.4735 16.3376 22.1296 17.1469 22.1296C17.9562 22.1296 18.6123 21.4735 18.6123 20.6641V10.4061C18.6123 8.7874 17.3001 7.4752 15.6815 7.4752Z" fill="#868686"/>
</svg>
