<svg width="20" height="20" viewBox="0 0 20 20" fill="none" xmlns="http://www.w3.org/2000/svg">
<path fill-rule="evenodd" clip-rule="evenodd" d="M10 17.5C14.1421 17.5 17.5 14.1421 17.5 10C17.5 5.85786 14.1421 2.5 10 2.5C5.85786 2.5 2.5 5.85786 2.5 10C2.5 14.1421 5.85786 17.5 10 17.5ZM10 18.75C14.8325 18.75 18.75 14.8325 18.75 10C18.75 5.16751 14.8325 1.25 10 1.25C5.16751 1.25 1.25 5.16751 1.25 10C1.25 14.8325 5.16751 18.75 10 18.75Z" fill="#868686"/>
<path d="M10.3125 14.375C10.3125 14.7202 10.0327 15 9.6875 15C9.34232 15 9.0625 14.7202 9.0625 14.375C9.0625 14.0298 9.34232 13.75 9.6875 13.75C10.0327 13.75 10.3125 14.0298 10.3125 14.375Z" fill="#868686"/>
<path fill-rule="evenodd" clip-rule="evenodd" d="M10 6.25C8.56222 6.25 7.5 7.29719 7.5 8.46738C7.5 8.81256 7.22018 9.09238 6.875 9.09238C6.52982 9.09238 6.25 8.81256 6.25 8.46738C6.25 6.49796 7.986 5 10 5C12.014 5 13.75 6.49796 13.75 8.46738V8.48883L13.7485 8.51022C13.6932 9.31561 13.4259 9.94027 13.0126 10.4028C12.6052 10.8586 12.0947 11.1138 11.6188 11.2551C11.266 11.3598 10.93 11.5473 10.6924 11.7805C10.4581 12.0105 10.346 12.255 10.346 12.5C10.346 12.8452 10.0662 13.125 9.72098 13.125C9.3758 13.125 9.09598 12.8452 9.09598 12.5C9.09598 11.8373 9.40879 11.2889 9.81687 10.8884C10.2217 10.491 10.7458 10.2103 11.2631 10.0568C11.5841 9.96146 11.8686 9.80689 12.0805 9.5698C12.2838 9.34242 12.4581 8.99723 12.4999 8.44645C12.4873 7.28473 11.4292 6.25 10 6.25Z" fill="#868686"/>
</svg>
