<svg width="20" height="20" viewBox="0 0 20 20" fill="none" xmlns="http://www.w3.org/2000/svg">
<path fill-rule="evenodd" clip-rule="evenodd" d="M5.76795 3.75073C4.64828 3.75073 3.75 4.64901 3.75 5.74554V12.8293C4.17364 12.54 4.68136 12.3701 5.23537 12.3701H15.054V8.06042C15.054 7.71524 15.3339 7.43542 15.679 7.43542C16.0242 7.43542 16.304 7.71524 16.304 8.06042V12.9951H16.25V13.6201H14.9826V16.8757H16.0525C16.3977 16.8757 16.6775 17.1556 16.6775 17.5007C16.6775 17.8459 16.3977 18.1257 16.0525 18.1257H5.23537C3.68684 18.1257 2.5 16.7982 2.5 15.2479V5.74554C2.5 3.94831 3.96831 2.50073 5.76795 2.50073H9.73239C10.0776 2.50073 10.3574 2.78055 10.3574 3.12573C10.3574 3.47091 10.0776 3.75073 9.73239 3.75073H5.76795ZM13.7326 16.8757V13.6201H5.23537C4.45285 13.6201 3.75 14.3098 3.75 15.2479C3.75 16.186 4.45285 16.8757 5.23537 16.8757H13.7326Z" fill="#868686"/>
<path fill-rule="evenodd" clip-rule="evenodd" d="M13.5024 2.30438C14.0679 1.64106 15.0641 1.56175 15.7274 2.12725C16.3907 2.69274 16.47 3.6889 15.9046 4.35222L11.2998 9.75353L10.2614 10.3558C9.24133 10.9474 8.04463 9.92715 8.46737 8.82634L8.89773 7.70569L13.5024 2.30438ZM14.9165 3.07849C14.7785 2.96087 14.5713 2.97736 14.4537 3.11533L9.98788 8.3537L9.63428 9.27447L10.4875 8.77964L14.9533 3.54127C15.0709 3.4033 15.0544 3.19611 14.9165 3.07849Z" fill="#868686"/>
</svg>
