<svg width="19" height="20" viewBox="0 0 19 20" fill="none" xmlns="http://www.w3.org/2000/svg">
<path fill-rule="evenodd" clip-rule="evenodd" d="M9.5 17.125C13.435 17.125 16.625 13.935 16.625 10C16.625 6.06497 13.435 2.875 9.5 2.875C5.56497 2.875 2.375 6.06497 2.375 10C2.375 13.935 5.56497 17.125 9.5 17.125ZM9.5 18.3125C14.0909 18.3125 17.8125 14.5909 17.8125 10C17.8125 5.40913 14.0909 1.6875 9.5 1.6875C4.90913 1.6875 1.1875 5.40913 1.1875 10C1.1875 14.5909 4.90913 18.3125 9.5 18.3125Z" fill="#FF7255"/>
<path d="M10.0938 7.625C10.0938 7.95292 9.82792 8.21875 9.5 8.21875C9.17208 8.21875 8.90625 7.95292 8.90625 7.625C8.90625 7.29708 9.17208 7.03125 9.5 7.03125C9.82792 7.03125 10.0938 7.29708 10.0938 7.625Z" fill="#FF7255"/>
<path fill-rule="evenodd" clip-rule="evenodd" d="M9.5 8.8125C9.82792 8.8125 10.0938 9.07833 10.0938 9.40625V13.2656C10.0938 13.5935 9.82792 13.8594 9.5 13.8594C9.17208 13.8594 8.90625 13.5935 8.90625 13.2656L8.90625 9.40625C8.90625 9.07833 9.17208 8.8125 9.5 8.8125Z" fill="#FF7255"/>
</svg>
