<svg width="20" height="20" viewBox="0 0 20 20" fill="none" xmlns="http://www.w3.org/2000/svg">
<path fill-rule="evenodd" clip-rule="evenodd" d="M14.9948 3.125H5.00517C4.17551 3.125 3.48759 3.75534 3.41313 4.57218L2.50677 14.5154C2.42218 15.4433 3.1553 16.25 4.0988 16.25H15.9012C16.8447 16.25 17.5778 15.4433 17.4932 14.5154L16.5869 4.57218C16.5124 3.75534 15.8245 3.125 14.9948 3.125ZM5.00517 1.875C3.53188 1.875 2.30168 2.99541 2.16829 4.4587L1.26193 14.4019C1.11028 16.0656 2.42375 17.5 4.0988 17.5H15.9012C17.5762 17.5 18.8897 16.0656 18.7381 14.4019L17.8317 4.45871C17.6983 2.99541 16.4681 1.875 14.9948 1.875H5.00517Z" fill="#868686"/>
<path fill-rule="evenodd" clip-rule="evenodd" d="M6.875 5.625C7.22018 5.625 7.5 5.90482 7.5 6.25C7.5 7.63071 8.61929 8.75 10 8.75C11.3807 8.75 12.5 7.63071 12.5 6.25C12.5 5.90482 12.7798 5.625 13.125 5.625C13.4702 5.625 13.75 5.90482 13.75 6.25C13.75 8.32107 12.0711 10 10 10C7.92893 10 6.25 8.32107 6.25 6.25C6.25 5.90482 6.52982 5.625 6.875 5.625Z" fill="#868686"/>
</svg>
