<svg width="24" height="24" viewBox="0 0 24 24" fill="none" xmlns="http://www.w3.org/2000/svg">
<path fill-rule="evenodd" clip-rule="evenodd" d="M6.2095 12.0016C6.2095 11.2022 5.56146 10.5542 4.76207 10.5542C3.96267 10.5542 3.31463 11.2022 3.31463 12.0016C3.31463 12.801 3.96267 13.449 4.76207 13.449C5.56146 13.449 6.2095 12.801 6.2095 12.0016ZM7.65694 12.0016C7.65694 10.4028 6.36086 9.10673 4.76207 9.10673C3.16327 9.10673 1.86719 10.4028 1.86719 12.0016C1.86719 13.6004 3.16327 14.8965 4.76207 14.8965C6.36086 14.8965 7.65694 13.6004 7.65694 12.0016Z" fill="#868686"/>
<path fill-rule="evenodd" clip-rule="evenodd" d="M13.4468 12.0016C13.4468 11.2022 12.7988 10.5542 11.9994 10.5542C11.2 10.5542 10.5519 11.2022 10.5519 12.0016C10.5519 12.801 11.2 13.449 11.9994 13.449C12.7988 13.449 13.4468 12.801 13.4468 12.0016ZM14.8942 12.0016C14.8942 10.4028 13.5982 9.10673 11.9994 9.10673C10.4006 9.10673 9.10449 10.4028 9.10449 12.0016C9.10449 13.6004 10.4006 14.8965 11.9994 14.8965C13.5982 14.8965 14.8942 13.6004 14.8942 12.0016Z" fill="#868686"/>
<path fill-rule="evenodd" clip-rule="evenodd" d="M20.6841 12.0016C20.6841 11.2022 20.0361 10.5542 19.2367 10.5542C18.4373 10.5542 17.7892 11.2022 17.7892 12.0016C17.7892 12.801 18.4373 13.449 19.2367 13.449C20.0361 13.449 20.6841 12.801 20.6841 12.0016ZM22.1316 12.0016C22.1316 10.4028 20.8355 9.10673 19.2367 9.10673C17.6379 9.10673 16.3418 10.4028 16.3418 12.0016C16.3418 13.6004 17.6379 14.8965 19.2367 14.8965C20.8355 14.8965 22.1316 13.6004 22.1316 12.0016Z" fill="#868686"/>
</svg>
