<svg width="23" height="23" viewBox="0 0 23 23" fill="none" xmlns="http://www.w3.org/2000/svg">
<path fill-rule="evenodd" clip-rule="evenodd" d="M17.0516 6.69166C17.3254 6.97903 17.3145 7.43398 17.0271 7.70783L7.48033 16.8053L1.66041 11.2593C1.37304 10.9855 1.36208 10.5305 1.63592 10.2431C1.90977 9.95576 2.36472 9.9448 2.65209 10.2186L7.48033 14.8197L16.0354 6.66717C16.3228 6.39333 16.7777 6.40429 17.0516 6.69166Z" fill="#FF7255"/>
<path fill-rule="evenodd" clip-rule="evenodd" d="M21.0713 7.41041C21.3451 7.69778 21.3341 8.15273 21.0468 8.42658L11.9958 17.0516C11.7085 17.3254 11.2535 17.3145 10.9797 17.0271C10.7058 16.7397 10.7168 16.2848 11.0042 16.0109L20.0551 7.38592C20.3425 7.11208 20.7974 7.12304 21.0713 7.41041Z" fill="#FF7255"/>
</svg>
