<svg width="20" height="20" viewBox="0 0 20 20" fill="none" xmlns="http://www.w3.org/2000/svg">
<path fill-rule="evenodd" clip-rule="evenodd" d="M8.125 3.75H3.75V8.125H8.125V3.75ZM3.75 2.5C3.05964 2.5 2.5 3.05964 2.5 3.75V8.125C2.5 8.81536 3.05964 9.375 3.75 9.375H8.125C8.81536 9.375 9.375 8.81536 9.375 8.125V3.75C9.375 3.05964 8.81536 2.5 8.125 2.5H3.75Z" fill="black"/>
<path fill-rule="evenodd" clip-rule="evenodd" d="M8.125 11.875H3.75V16.25H8.125V11.875ZM3.75 10.625C3.05964 10.625 2.5 11.1846 2.5 11.875V16.25C2.5 16.9404 3.05964 17.5 3.75 17.5H8.125C8.81536 17.5 9.375 16.9404 9.375 16.25V11.875C9.375 11.1846 8.81536 10.625 8.125 10.625H3.75Z" fill="black"/>
<path fill-rule="evenodd" clip-rule="evenodd" d="M16.25 3.75H11.875V8.125H16.25V3.75ZM11.875 2.5C11.1846 2.5 10.625 3.05964 10.625 3.75V8.125C10.625 8.81536 11.1846 9.375 11.875 9.375H16.25C16.9404 9.375 17.5 8.81536 17.5 8.125V3.75C17.5 3.05964 16.9404 2.5 16.25 2.5H11.875Z" fill="black"/>
<path fill-rule="evenodd" clip-rule="evenodd" d="M16.25 11.875H11.875V16.25H16.25V11.875ZM11.875 10.625C11.1846 10.625 10.625 11.1846 10.625 11.875V16.25C10.625 16.9404 11.1846 17.5 11.875 17.5H16.25C16.9404 17.5 17.5 16.9404 17.5 16.25V11.875C17.5 11.1846 16.9404 10.625 16.25 10.625H11.875Z" fill="black"/>
</svg>
