<svg width="26" height="26" viewBox="0 0 26 26" fill="none" xmlns="http://www.w3.org/2000/svg">
<path d="M11.375 2.4375C9.58007 2.4375 8.125 3.89257 8.125 5.6875V18.6875C8.125 21.3799 10.3076 23.5625 13 23.5625C15.6924 23.5625 17.875 21.3799 17.875 18.6875V6.90625C17.875 6.45752 18.2388 6.09375 18.6875 6.09375C19.1362 6.09375 19.5 6.45752 19.5 6.90625V18.6875C19.5 22.2774 16.5899 25.1875 13 25.1875C9.41015 25.1875 6.5 22.2774 6.5 18.6875V5.6875C6.5 2.99511 8.68261 0.8125 11.375 0.8125C14.0674 0.8125 16.25 2.99511 16.25 5.6875V17.0625C16.25 18.8574 14.7949 20.3125 13 20.3125C11.2051 20.3125 9.75 18.8574 9.75 17.0625V7.71875C9.75 7.27002 10.1138 6.90625 10.5625 6.90625C11.0112 6.90625 11.375 7.27002 11.375 7.71875V17.0625C11.375 17.96 12.1025 18.6875 13 18.6875C13.8975 18.6875 14.625 17.96 14.625 17.0625V5.6875C14.625 3.89257 13.1699 2.4375 11.375 2.4375Z" fill="#868686"/>
</svg>
