<svg width="20" height="20" viewBox="0 0 20 20" fill="none" xmlns="http://www.w3.org/2000/svg">
<path fill-rule="evenodd" clip-rule="evenodd" d="M10 1.875C9.10323 1.875 8.38845 2.59186 8.38845 3.46121C8.38845 4.33055 9.10323 5.04741 10 5.04741C10.8968 5.04741 11.6115 4.33055 11.6115 3.46121C11.6115 2.59186 10.8968 1.875 10 1.875ZM7.13845 3.46121C7.13845 1.88812 8.42634 0.625 10 0.625C11.5737 0.625 12.8615 1.88812 12.8615 3.46121C12.8615 5.0343 11.5737 6.29741 10 6.29741C8.42634 6.29741 7.13845 5.0343 7.13845 3.46121ZM4.74215 4.82328C3.84539 4.82328 3.13061 5.54014 3.13061 6.40948C3.13061 7.27883 3.84539 7.99569 4.74215 7.99569C5.63892 7.99569 6.3537 7.27883 6.3537 6.40948C6.3537 5.54014 5.63892 4.82328 4.74215 4.82328ZM1.88061 6.40948C1.88061 4.83639 3.1685 3.57328 4.74215 3.57328C6.31581 3.57328 7.6037 4.83639 7.6037 6.40948C7.6037 7.32789 7.16472 8.14065 6.48618 8.65808C6.71087 8.77077 6.92352 8.90365 7.12163 9.05433L6.36492 10.0493C5.89457 9.69153 5.30555 9.47845 4.66368 9.47845C3.1168 9.47845 1.875 10.7164 1.875 12.2284V13.0776H6.07623V14.3276H0.625V12.2284C0.625 10.627 1.573 9.25102 2.9382 8.61111C2.29385 8.09219 1.88061 7.30057 1.88061 6.40948ZM15.2578 4.82328C14.3611 4.82328 13.6463 5.54014 13.6463 6.40948C13.6463 7.27883 14.3611 7.99569 15.2578 7.99569C16.1546 7.99569 16.8694 7.27883 16.8694 6.40948C16.8694 5.54014 16.1546 4.82328 15.2578 4.82328ZM12.3963 6.40948C12.3963 4.83639 13.6842 3.57328 15.2578 3.57328C16.8315 3.57328 18.1194 4.83639 18.1194 6.40948C18.1194 7.30057 17.7061 8.09219 17.0618 8.61111C18.427 9.25102 19.375 10.627 19.375 12.2284V14.3276H13.9238V13.0776H18.125V12.2284C18.125 10.7164 16.8832 9.47845 15.3363 9.47845C14.6945 9.47845 14.1054 9.69153 13.6351 10.0493L12.8784 9.05433C13.0765 8.90365 13.2891 8.77077 13.5138 8.65808C12.8353 8.14065 12.3963 7.32789 12.3963 6.40948ZM10 9.24569C9.10323 9.24569 8.38845 9.96255 8.38845 10.8319C8.38845 11.7012 9.10323 12.4181 10 12.4181C10.8968 12.4181 11.6115 11.7012 11.6115 10.8319C11.6115 9.96255 10.8968 9.24569 10 9.24569ZM7.13845 10.8319C7.13845 9.25881 8.42634 7.99569 10 7.99569C11.5737 7.99569 12.8615 9.25881 12.8615 10.8319C12.8615 11.7365 12.4357 12.5386 11.7745 13.0569C13.1133 13.7065 14.0387 15.0687 14.0387 16.6509V18.75H5.96132V16.6509C5.96132 15.0687 6.88667 13.7065 8.22548 13.0569C7.56431 12.5386 7.13845 11.7365 7.13845 10.8319ZM10 13.9009C8.45312 13.9009 7.21132 15.1388 7.21132 16.6509V17.5H12.7887V16.6509C12.7887 15.1388 11.5469 13.9009 10 13.9009Z" fill="#868686"/>
</svg>
