<svg width="14" height="14" viewBox="0 0 14 14" fill="none" xmlns="http://www.w3.org/2000/svg">
<g clip-path="url(#clip0_12260_46360)">
<path fill-rule="evenodd" clip-rule="evenodd" d="M7 1.3125C6.37226 1.3125 5.87192 1.8143 5.87192 2.42284C5.87192 3.03138 6.37226 3.53319 7 3.53319C7.62774 3.53319 8.12808 3.03138 8.12808 2.42284C8.12808 1.8143 7.62774 1.3125 7 1.3125ZM4.99692 2.42284C4.99692 1.32168 5.89844 0.4375 7 0.4375C8.10156 0.4375 9.00308 1.32168 9.00308 2.42284C9.00308 3.52401 8.10156 4.40819 7 4.40819C5.89844 4.40819 4.99692 3.52401 4.99692 2.42284ZM3.31951 3.37629C2.69177 3.37629 2.19142 3.8781 2.19142 4.48664C2.19142 5.09518 2.69177 5.59698 3.31951 5.59698C3.94724 5.59698 4.44759 5.09518 4.44759 4.48664C4.44759 3.8781 3.94724 3.37629 3.31951 3.37629ZM1.31642 4.48664C1.31642 3.38548 2.21795 2.50129 3.31951 2.50129C4.42107 2.50129 5.32259 3.38548 5.32259 4.48664C5.32259 5.12953 5.0153 5.69846 4.54032 6.06065C4.69761 6.13954 4.84646 6.23255 4.98514 6.33803L4.45544 7.03448C4.1262 6.78407 3.71389 6.63491 3.26457 6.63491C2.18176 6.63491 1.3125 7.50145 1.3125 8.55991V9.15431H4.25336V10.0293H0.4375V8.55991C0.4375 7.4389 1.1011 6.47572 2.05674 6.02778C1.6057 5.66453 1.31642 5.1104 1.31642 4.48664ZM10.6805 3.37629C10.0528 3.37629 9.55241 3.8781 9.55241 4.48664C9.55241 5.09518 10.0528 5.59698 10.6805 5.59698C11.3082 5.59698 11.8086 5.09518 11.8086 4.48664C11.8086 3.8781 11.3082 3.37629 10.6805 3.37629ZM8.67741 4.48664C8.67741 3.38548 9.57893 2.50129 10.6805 2.50129C11.7821 2.50129 12.6836 3.38548 12.6836 4.48664C12.6836 5.1104 12.3943 5.66453 11.9433 6.02778C12.8989 6.47572 13.5625 7.4389 13.5625 8.55991V10.0293H9.74664V9.15431H12.6875V8.55991C12.6875 7.50145 11.8182 6.63491 10.7354 6.63491C10.2861 6.63491 9.8738 6.78407 9.54456 7.03448L9.01486 6.33803C9.15354 6.23255 9.30239 6.13954 9.45968 6.06065C8.9847 5.69846 8.67741 5.12953 8.67741 4.48664ZM7 6.47198C6.37226 6.47198 5.87192 6.97379 5.87192 7.58233C5.87192 8.19087 6.37226 8.69267 7 8.69267C7.62774 8.69267 8.12808 8.19087 8.12808 7.58233C8.12808 6.97379 7.62774 6.47198 7 6.47198ZM4.99692 7.58233C4.99692 6.48117 5.89844 5.59698 7 5.59698C8.10156 5.59698 9.00308 6.48117 9.00308 7.58233C9.00308 8.21553 8.70498 8.77699 8.24216 9.13984C9.17933 9.59458 9.82707 10.5481 9.82707 11.6556V13.125H4.17293V11.6556C4.17293 10.5481 4.82067 9.59458 5.75784 9.13984C5.29502 8.77699 4.99692 8.21553 4.99692 7.58233ZM7 9.7306C5.91719 9.7306 5.04793 10.5971 5.04793 11.6556V12.25H8.95207V11.6556C8.95207 10.5971 8.08281 9.7306 7 9.7306Z" fill="white"/>
</g>
<defs>
<clipPath id="clip0_12260_46360">
<rect width="14" height="14" fill="white"/>
</clipPath>
</defs>
</svg>
