<svg width="16" height="17" viewBox="0 0 16 17" fill="none" xmlns="http://www.w3.org/2000/svg">
<path fill-rule="evenodd" clip-rule="evenodd" d="M4.65517 5.52115H2.5C2.22386 5.52115 2 5.74501 2 6.02115V12.5039C2 12.78 2.22386 13.0039 2.5 13.0039H13.5345C13.8106 13.0039 14.0345 12.78 14.0345 12.5039V6.02115C14.0345 5.74501 13.8106 5.52115 13.5345 5.52115H11.3793V4.50391C11.3793 4.22776 11.1555 4.00391 10.8793 4.00391H5.15517C4.87903 4.00391 4.65517 4.22776 4.65517 4.50391V5.52115ZM12.3793 4.52115V4.50391C12.3793 3.67548 11.7077 3.00391 10.8793 3.00391H5.15517C4.32675 3.00391 3.65517 3.67548 3.65517 4.50391V4.52115H2.5C1.67157 4.52115 1 5.19272 1 6.02115V12.5039C1 13.3323 1.67157 14.0039 2.5 14.0039H13.5345C14.3629 14.0039 15.0345 13.3323 15.0345 12.5039V6.02115C15.0345 5.19272 14.3629 4.52115 13.5345 4.52115H12.3793Z" fill="white"/>
<path fill-rule="evenodd" clip-rule="evenodd" d="M8 11.0039C9.10457 11.0039 10 10.1085 10 9.00391C10 7.89934 9.10457 7.00391 8 7.00391C6.89543 7.00391 6 7.89934 6 9.00391C6 10.1085 6.89543 11.0039 8 11.0039ZM8 12.0039C9.65685 12.0039 11 10.6608 11 9.00391C11 7.34705 9.65685 6.00391 8 6.00391C6.34315 6.00391 5 7.34705 5 9.00391C5 10.6608 6.34315 12.0039 8 12.0039Z" fill="white"/>
</svg>
