<svg width="22" height="22" viewBox="0 0 22 22" fill="none" xmlns="http://www.w3.org/2000/svg">
<path fill-rule="evenodd" clip-rule="evenodd" d="M11 2.0625C11.3797 2.0625 11.6875 2.3703 11.6875 2.75L11.6875 19.25C11.6875 19.6297 11.3797 19.9375 11 19.9375C10.6203 19.9375 10.3125 19.6297 10.3125 19.25L10.3125 2.75C10.3125 2.3703 10.6203 2.0625 11 2.0625Z" fill="white"/>
<path fill-rule="evenodd" clip-rule="evenodd" d="M2.0625 11C2.0625 10.6203 2.3703 10.3125 2.75 10.3125L19.25 10.3125C19.6297 10.3125 19.9375 10.6203 19.9375 11C19.9375 11.3797 19.6297 11.6875 19.25 11.6875L2.75 11.6875C2.3703 11.6875 2.0625 11.3797 2.0625 11Z" fill="white"/>
</svg>
