<svg width="20" height="20" viewBox="0 0 20 20" fill="none" xmlns="http://www.w3.org/2000/svg">
<path fill-rule="evenodd" clip-rule="evenodd" d="M5.55147 4.93534C5.55147 3.55868 6.71976 2.5 8.08824 2.5H11.9118C13.2802 2.5 14.4485 3.55868 14.4485 4.93534V5.21552H16.2132C17.5817 5.21552 18.75 6.2742 18.75 7.65086V14.4397C18.75 15.8163 17.5817 16.875 16.2132 16.875H3.78676C2.41829 16.875 1.25 15.8163 1.25 14.4397V7.65086C1.25 6.2742 2.41829 5.21552 3.78676 5.21552H5.55147V4.93534ZM6.80147 5.21552H13.1985V4.93534C13.1985 4.31236 12.655 3.75 11.9118 3.75H8.08824C7.34504 3.75 6.80147 4.31236 6.80147 4.93534V5.21552ZM3.78676 6.46552C3.04357 6.46552 2.5 7.02788 2.5 7.65086V9.51509H5.3125V9.00862C5.3125 8.66344 5.59232 8.38362 5.9375 8.38362C6.28268 8.38362 6.5625 8.66344 6.5625 9.00862V9.51509H13.4375V9.00862C13.4375 8.66344 13.7173 8.38362 14.0625 8.38362C14.4077 8.38362 14.6875 8.66344 14.6875 9.00862V9.51509H17.5V7.65086C17.5 7.02788 16.9564 6.46552 16.2132 6.46552H3.78676ZM17.5 10.7651H14.6875V11.2716C14.6875 11.6167 14.4077 11.8966 14.0625 11.8966C13.7173 11.8966 13.4375 11.6167 13.4375 11.2716V10.7651H12.0588V11.2716C12.0588 12.1483 11.3185 12.8017 10.4779 12.8017H9.52206C8.6815 12.8017 7.94118 12.1483 7.94118 11.2716V10.7651H6.5625V11.2716C6.5625 11.6167 6.28268 11.8966 5.9375 11.8966C5.59232 11.8966 5.3125 11.6167 5.3125 11.2716V10.7651H2.5V14.4397C2.5 15.0626 3.04357 15.625 3.78676 15.625H16.2132C16.9564 15.625 17.5 15.0626 17.5 14.4397V10.7651ZM9.19118 10.7651V11.2716C9.19118 11.3946 9.30678 11.5517 9.52206 11.5517H10.4779C10.6932 11.5517 10.8088 11.3946 10.8088 11.2716V10.7651H9.19118Z" fill="#868686"/>
</svg>
