<svg width="31" height="33" viewBox="0 0 31 33" fill="none" xmlns="http://www.w3.org/2000/svg">
<g clip-path="url(#clip0_12155_78411)">
<path fill-rule="evenodd" clip-rule="evenodd" d="M28.2833 24.8599L26.4979 23.2814C26.0751 22.9076 25.0987 22.3453 23.976 21.8408C23.5644 21.6558 23.1604 21.4908 22.7855 21.353L14.9639 26.0698C14.8986 26.4649 14.842 26.8982 14.7982 27.3486C14.6778 28.5877 14.6744 29.7404 14.7769 30.3202L15.1986 32.7047L13.2708 31.3207C11.9732 30.3891 10.0118 28.8198 8.32394 27.12C7.48045 26.2705 6.68518 25.3684 6.07342 24.4804C5.4765 23.6139 4.98311 22.6604 4.87516 21.7203C4.77083 20.8118 4.9591 20.019 5.37671 19.3725C5.78322 18.7433 6.36246 18.3204 6.9431 18.0432C7.06186 17.9865 7.18304 17.9348 7.30579 17.8878C5.93344 15.6342 4.7094 13.0467 4.36648 10.5574C4.19011 9.27722 4.22449 7.87161 4.32728 6.62374C4.64826 2.7272 8.49637 0.358806 11.9554 2.04989C13.0434 2.5818 14.2298 3.25549 15.2068 4.05818C17.1096 5.62158 18.6393 8.02534 19.811 10.3695C19.9181 10.2781 20.0287 10.1908 20.1423 10.1088C20.6714 9.72679 21.3215 9.41812 22.0552 9.36632C22.8103 9.31302 23.5745 9.53828 24.2854 10.0906C25.0171 10.6592 25.5656 11.5807 25.9893 12.55C26.4237 13.544 26.7782 14.71 27.0647 15.8931C27.638 18.2606 27.9657 20.8088 28.0937 22.4413L28.2833 24.8599ZM18.9758 13.1977C18.808 12.8092 18.6318 12.4171 18.4472 12.0251C17.2829 9.55332 15.7866 7.09077 14.0002 5.62303C13.1891 4.95664 12.1526 4.35927 11.1261 3.85741C8.91685 2.77734 6.46692 4.25475 6.25782 6.7932C6.16065 7.97269 6.1377 9.20896 6.28468 10.2758C6.60879 12.6285 7.90517 15.2167 9.3747 17.5078C9.60676 17.8696 9.84314 18.224 10.0807 18.5689C12.2348 21.6964 14.4853 24.0422 14.4853 24.0422L21.3139 19.9242C21.3139 19.9242 20.4933 16.7122 18.9758 13.1977ZM23.1776 19.3764L23.1748 19.3657C23.1674 19.3373 23.1568 19.2971 23.143 19.2456C23.1153 19.1425 23.0749 18.9945 23.022 18.8072C22.9161 18.4327 22.7598 17.9001 22.5549 17.2554C22.1462 15.9696 21.5387 14.2206 20.7454 12.3835C20.7272 12.3411 20.7087 12.2986 20.6902 12.2561C20.8594 12.0704 21.0486 11.8951 21.2528 11.7477C21.5841 11.5085 21.9013 11.3819 22.1874 11.3617C22.4522 11.343 22.7604 11.409 23.1202 11.6885C23.4591 11.9519 23.8429 12.5023 24.2232 13.3725C24.5928 14.2181 24.914 15.2591 25.185 16.3781C25.528 17.7944 25.7798 19.2906 25.9492 20.5916C25.56 20.3857 25.1515 20.1877 24.7494 20.007C24.2386 19.7775 23.6982 19.5579 23.1776 19.3764ZM13.1041 25.4447L13.0996 25.4401L13.08 25.4195C13.0636 25.4022 13.0403 25.3775 13.0106 25.3459C12.9512 25.2826 12.8662 25.1912 12.759 25.0741C12.5446 24.8399 12.241 24.502 11.8755 24.0787C11.1461 23.2337 10.1628 22.0396 9.14921 20.6432C8.91352 20.3185 8.67256 19.9781 8.43014 19.6241C8.20046 19.6794 7.97061 19.7562 7.7563 19.8585C7.39996 20.0286 7.14376 20.2421 6.98867 20.4822C6.84468 20.7051 6.74517 21.0145 6.79919 21.4849C6.84959 21.9238 7.11743 22.5448 7.65237 23.3213C8.17245 24.0762 8.87964 24.8854 9.67696 25.6884C10.6771 26.6956 11.7874 27.6616 12.7804 28.4601C12.7972 28.0274 12.8283 27.5824 12.8704 27.1489C12.9252 26.5848 13.0028 25.9976 13.1041 25.4447Z" fill="white"/>
<path fill-rule="evenodd" clip-rule="evenodd" d="M12.5968 10.4997C11.5268 10.4997 10.6593 11.3952 10.6593 12.4997C10.6593 13.6043 11.5268 14.4997 12.5968 14.4997C13.6669 14.4997 14.5343 13.6043 14.5343 12.4997C14.5343 11.3952 13.6669 10.4997 12.5968 10.4997ZM8.72184 12.4997C8.72184 10.2906 10.4567 8.49973 12.5968 8.49973C14.7369 8.49973 16.4718 10.2906 16.4718 12.4997C16.4718 14.7089 14.7369 16.4997 12.5968 16.4997C10.4567 16.4997 8.72184 14.7089 8.72184 12.4997Z" fill="white"/>
</g>
<defs>
<clipPath id="clip0_12155_78411">
<rect width="31" height="32" fill="white" transform="translate(0 0.5)"/>
</clipPath>
</defs>
</svg>
