<svg width="15" height="16" viewBox="0 0 15 16" fill="none" xmlns="http://www.w3.org/2000/svg">
<path d="M10.4795 3.05711C10.2964 2.87405 10.2964 2.57726 10.4795 2.3942L11.2989 1.57479C11.482 1.39174 11.7788 1.39174 11.9618 1.57479C12.1449 1.75785 12.1449 2.05465 11.9618 2.23771L11.1424 3.05711C10.9594 3.24017 10.6626 3.24017 10.4795 3.05711Z" fill="white"/>
<path fill-rule="evenodd" clip-rule="evenodd" d="M7.96541 2.29867C8.40888 1.8512 9.15866 1.95976 9.457 2.51463L12.8529 8.8303C13.1512 9.38517 12.8283 10.0705 12.2105 10.1937L8.40559 10.9523L9.03983 12.1319C9.28503 12.5879 9.11413 13.1563 8.6581 13.4015L6.3874 14.6225C5.93138 14.8677 5.36292 14.6968 5.11772 14.2407L4.00781 12.1765L3.18233 12.6204C2.7263 12.8656 2.15785 12.6946 1.91265 12.2386L0.580724 9.7615C0.335524 9.30547 0.506433 8.73702 0.962459 8.49182L1.78817 8.04784C1.97511 7.94732 2.18095 7.91674 2.37567 7.94705C2.39713 7.91996 2.42025 7.89384 2.44501 7.86886L7.96541 2.29867ZM2.28519 8.97276C2.28169 8.96625 2.27827 8.9597 2.27493 8.95314L2.23214 8.87355L1.40643 9.31753L2.73835 11.7947L3.56383 11.3508L2.28519 8.97276ZM12.0272 9.27428L4.33649 10.8076L3.11109 8.52859L8.63129 2.9586L12.0272 9.27428ZM7.44422 11.144L4.80046 11.6711L5.94343 13.7968L8.21413 12.5758L7.44422 11.144Z" fill="white"/>
<path d="M12.0212 4.41185C11.7896 4.52763 11.6958 4.80919 11.8115 5.04075C11.9273 5.2723 12.2089 5.36615 12.4404 5.25038L13.4769 4.73214C13.7085 4.61636 13.8023 4.3348 13.6865 4.10325C13.5708 3.87169 13.2892 3.77784 13.0576 3.89361L12.0212 4.41185Z" fill="white"/>
<path d="M13.1689 6.85066C12.9188 6.91767 12.7704 7.1747 12.8374 7.42476C12.9044 7.67483 13.1615 7.82322 13.4115 7.75622L14.5308 7.4563C14.7809 7.38929 14.9293 7.13226 14.8623 6.8822C14.7953 6.63213 14.5383 6.48374 14.2882 6.55074L13.1689 6.85066Z" fill="white"/>
</svg>
