<svg width="14" height="15" viewBox="0 0 14 15" fill="none" xmlns="http://www.w3.org/2000/svg">
<path fill-rule="evenodd" clip-rule="evenodd" d="M1.75 2.32129V12.8213H3.47502V10.415C3.47502 9.94903 3.85278 9.57127 4.31877 9.57127H9.68127C10.1473 9.57127 10.525 9.94903 10.525 10.415V12.8213H12.25V5.15926L9.55005 2.63167V5.70256C9.55005 6.16855 9.17229 6.54631 8.7063 6.54631H5.2938C4.82781 6.54631 4.45005 6.16855 4.45005 5.70256V2.32129H1.75ZM5.32505 2.32129V5.67131H8.67505V2.32129H5.32505ZM9.65002 12.8213V10.4463H4.35002V12.8213H9.65002ZM0.875 2.29004C0.875 1.82405 1.25276 1.44629 1.71875 1.44629H9.27529C9.39451 1.44629 9.49279 1.4854 9.54907 1.51181C9.61191 1.54128 9.66811 1.57712 9.71267 1.60848C9.80117 1.67076 9.87922 1.74067 9.92505 1.78414C9.92548 1.78454 9.9259 1.78495 9.92633 1.78535L12.8624 4.53397C13.0301 4.69326 13.125 4.91442 13.125 5.1457V12.8525C13.125 13.3185 12.7472 13.6963 12.2812 13.6963H1.71875C1.25276 13.6963 0.875 13.3185 0.875 12.8525V2.29004Z" fill="white"/>
</svg>
