<svg width="20" height="20" viewBox="0 0 20 20" fill="none" xmlns="http://www.w3.org/2000/svg">
<path fill-rule="evenodd" clip-rule="evenodd" d="M9.0625 3.75C6.47367 3.75 4.375 5.84867 4.375 8.4375C4.375 11.0263 6.47367 13.125 9.0625 13.125C10.2859 13.125 11.3998 12.6563 12.2346 11.8887C12.2359 11.8875 12.2372 11.8863 12.2385 11.8851C13.1678 11.0285 13.75 9.801 13.75 8.4375C13.75 5.84867 11.6513 3.75 9.0625 3.75ZM13.537 12.3406C14.4481 11.297 15 9.93169 15 8.4375C15 5.15831 12.3417 2.5 9.0625 2.5C5.78331 2.5 3.125 5.15831 3.125 8.4375C3.125 11.7167 5.78331 14.375 9.0625 14.375C10.397 14.375 11.6287 13.9347 12.6202 13.1916L16.1206 16.6919C16.3646 16.936 16.7604 16.936 17.0044 16.6919C17.2485 16.4479 17.2485 16.0521 17.0044 15.8081L13.537 12.3406Z" fill="#868686"/>
</svg>
