<svg width="20" height="21" viewBox="0 0 20 21" fill="none" xmlns="http://www.w3.org/2000/svg">
<path fill-rule="evenodd" clip-rule="evenodd" d="M15 2.375C13.9645 2.375 13.125 3.21447 13.125 4.25C13.125 4.4998 13.1735 4.73672 13.2611 4.95299C13.5397 5.64129 14.2141 6.125 15 6.125C16.0355 6.125 16.875 5.28553 16.875 4.25C16.875 3.21447 16.0355 2.375 15 2.375ZM11.875 4.25C11.875 2.52411 13.2741 1.125 15 1.125C16.7259 1.125 18.125 2.52411 18.125 4.25C18.125 5.97589 16.7259 7.375 15 7.375C13.9528 7.375 13.0268 6.86 12.46 6.07063L6.77219 9.70262C6.83931 9.95755 6.875 10.2249 6.875 10.5C6.875 10.7711 6.84033 11.0347 6.77507 11.2864L12.5552 14.8035C13.1273 14.0859 14.0095 13.625 15 13.625C16.7259 13.625 18.125 15.0241 18.125 16.75C18.125 18.4759 16.7259 19.875 15 19.875C13.2741 19.875 11.875 18.4759 11.875 16.75C11.875 16.4633 11.9138 16.1851 11.9864 15.9206L6.22136 12.4127C5.65018 13.1496 4.75602 13.625 3.75 13.625C2.02411 13.625 0.625 12.2259 0.625 10.5C0.625 8.77411 2.02411 7.375 3.75 7.375C4.75112 7.375 5.64147 7.84575 6.21298 8.57659L11.9462 4.91563C11.8995 4.7008 11.875 4.47803 11.875 4.25ZM3.75 8.625C2.71447 8.625 1.875 9.46447 1.875 10.5C1.875 11.5355 2.71447 12.375 3.75 12.375C4.50145 12.375 5.15093 11.933 5.45018 11.292C5.56215 11.0522 5.625 10.7843 5.625 10.5C5.625 10.2157 5.56215 9.94784 5.45018 9.70802C5.15092 9.06705 4.50145 8.625 3.75 8.625ZM15 14.875C14.26 14.875 13.6189 15.3036 13.3137 15.929C13.193 16.1762 13.125 16.4543 13.125 16.75C13.125 17.7855 13.9645 18.625 15 18.625C16.0355 18.625 16.875 17.7855 16.875 16.75C16.875 15.7145 16.0355 14.875 15 14.875Z" fill="#868686"/>
</svg>
