<svg width="26" height="26" viewBox="0 0 26 26" fill="none" xmlns="http://www.w3.org/2000/svg">
<path d="M9.00971 14.5799C8.92554 14.1391 8.5 13.85 8.05923 13.9342C7.61847 14.0184 7.32939 14.4439 7.41356 14.8847C7.91549 17.5131 10.2248 19.4999 13 19.4999C15.7751 19.4999 18.0844 17.5131 18.5864 14.8847C18.6706 14.4439 18.3815 14.0184 17.9407 13.9342C17.4999 13.85 17.0744 14.1391 16.9902 14.5799C16.6318 16.4566 14.9807 17.8749 13 17.8749C11.0193 17.8749 9.3681 16.4566 9.00971 14.5799Z" fill="#868686"/>
<path d="M17.0625 10.1562C17.0625 10.8293 16.5168 11.375 15.8438 11.375C15.1707 11.375 14.625 10.8293 14.625 10.1562C14.625 9.48315 15.1707 8.9375 15.8438 8.9375C16.5168 8.9375 17.0625 9.48315 17.0625 10.1562Z" fill="#868686"/>
<path d="M10.1562 11.375C10.8293 11.375 11.375 10.8293 11.375 10.1562C11.375 9.48315 10.8293 8.9375 10.1562 8.9375C9.48315 8.9375 8.9375 9.48315 8.9375 10.1562C8.9375 10.8293 9.48315 11.375 10.1562 11.375Z" fill="#868686"/>
<path fill-rule="evenodd" clip-rule="evenodd" d="M13 2.4375C7.16649 2.4375 2.4375 7.16649 2.4375 13C2.4375 18.8335 7.16649 23.5625 13 23.5625C18.8335 23.5625 23.5625 18.8335 23.5625 13C23.5625 7.16649 18.8335 2.4375 13 2.4375ZM4.0625 13C4.0625 8.06395 8.06395 4.0625 13 4.0625C17.936 4.0625 21.9375 8.06395 21.9375 13C21.9375 17.936 17.936 21.9375 13 21.9375C8.06395 21.9375 4.0625 17.936 4.0625 13Z" fill="#868686"/>
</svg>
