<svg width="14" height="15" viewBox="0 0 14 15" fill="none" xmlns="http://www.w3.org/2000/svg">
<path fill-rule="evenodd" clip-rule="evenodd" d="M2.1875 2.60718C2.1875 2.36555 2.38338 2.16968 2.625 2.16968C8.20709 2.16968 12.6875 7.1378 12.6875 12.6697C12.6875 12.9113 12.4916 13.1072 12.25 13.1072C12.0084 13.1072 11.8125 12.9113 11.8125 12.6697C11.8125 7.57008 7.6744 3.04468 2.625 3.04468C2.38338 3.04468 2.1875 2.8488 2.1875 2.60718ZM2.625 6.10718C2.625 5.86555 2.82088 5.66968 3.0625 5.66968C6.50192 5.66968 9.1875 8.86456 9.1875 12.6697C9.1875 12.9113 8.99162 13.1072 8.75 13.1072C8.50838 13.1072 8.3125 12.9113 8.3125 12.6697C8.3125 9.22606 5.90532 6.54468 3.0625 6.54468C2.82088 6.54468 2.625 6.3488 2.625 6.10718ZM3.71875 9.60718C2.87306 9.60718 2.1875 10.2927 2.1875 11.1384C2.1875 11.9841 2.87306 12.6697 3.71875 12.6697C4.56444 12.6697 5.25 11.9841 5.25 11.1384C5.25 10.2927 4.56444 9.60718 3.71875 9.60718ZM1.3125 11.1384C1.3125 9.80949 2.38981 8.73218 3.71875 8.73218C5.04769 8.73218 6.125 9.80949 6.125 11.1384C6.125 12.4674 5.04769 13.5447 3.71875 13.5447C2.38981 13.5447 1.3125 12.4674 1.3125 11.1384Z" fill="white"/>
</svg>
