<svg width="20" height="21" viewBox="0 0 20 21" fill="none" xmlns="http://www.w3.org/2000/svg">
<path fill-rule="evenodd" clip-rule="evenodd" d="M3.125 3C3.125 2.65482 3.40482 2.375 3.75 2.375C11.7244 2.375 18.125 9.47231 18.125 17.375C18.125 17.7202 17.8452 18 17.5 18C17.1548 18 16.875 17.7202 16.875 17.375C16.875 10.0899 10.9634 3.625 3.75 3.625C3.40482 3.625 3.125 3.34518 3.125 3ZM3.75 8C3.75 7.65482 4.02982 7.375 4.375 7.375C9.28846 7.375 13.125 11.9391 13.125 17.375C13.125 17.7202 12.8452 18 12.5 18C12.1548 18 11.875 17.7202 11.875 17.375C11.875 12.4555 8.43617 8.625 4.375 8.625C4.02982 8.625 3.75 8.34518 3.75 8ZM5.3125 13C4.10438 13 3.125 13.9794 3.125 15.1875C3.125 16.3956 4.10438 17.375 5.3125 17.375C6.52062 17.375 7.5 16.3956 7.5 15.1875C7.5 13.9794 6.52062 13 5.3125 13ZM1.875 15.1875C1.875 13.289 3.41402 11.75 5.3125 11.75C7.21098 11.75 8.75 13.289 8.75 15.1875C8.75 17.086 7.21098 18.625 5.3125 18.625C3.41402 18.625 1.875 17.086 1.875 15.1875Z" fill="#868686"/>
</svg>
