<svg width="33" height="33" viewBox="0 0 33 33" fill="none" xmlns="http://www.w3.org/2000/svg">
<path fill-rule="evenodd" clip-rule="evenodd" d="M16.3359 28.5C22.9634 28.5 28.3359 23.1274 28.3359 16.5C28.3359 9.87258 22.9634 4.5 16.3359 4.5C9.70852 4.5 4.33594 9.87258 4.33594 16.5C4.33594 23.1274 9.70852 28.5 16.3359 28.5ZM16.3359 30.5C24.0679 30.5 30.3359 24.232 30.3359 16.5C30.3359 8.76801 24.0679 2.5 16.3359 2.5C8.60395 2.5 2.33594 8.76801 2.33594 16.5C2.33594 24.232 8.60395 30.5 16.3359 30.5Z" fill="white"/>
<path fill-rule="evenodd" clip-rule="evenodd" d="M22.0599 12.8101C22.4409 13.21 22.4256 13.8429 22.0258 14.2239L15.0396 20.8813L10.6461 16.6945C10.2463 16.3135 10.231 15.6805 10.612 15.2807C10.993 14.8809 11.626 14.8657 12.0258 15.2467L15.0396 18.1187L20.6461 12.7761C21.0459 12.3951 21.6789 12.4103 22.0599 12.8101Z" fill="white"/>
</svg>
