<svg width="32" height="32" viewBox="0 0 32 32" fill="none" xmlns="http://www.w3.org/2000/svg">
<path fill-rule="evenodd" clip-rule="evenodd" d="M16 28C22.6274 28 28 22.6274 28 16C28 9.37258 22.6274 4 16 4C9.37258 4 4 9.37258 4 16C4 22.6274 9.37258 28 16 28ZM16 30C23.732 30 30 23.732 30 16C30 8.26801 23.732 2 16 2C8.26801 2 2 8.26801 2 16C2 23.732 8.26801 30 16 30Z" fill="#868686"/>
<path fill-rule="evenodd" clip-rule="evenodd" d="M21.7239 12.3101C22.1049 12.71 22.0897 13.3429 21.6899 13.7239L14.7037 20.3813L10.3101 16.1945C9.91032 15.8135 9.89506 15.1805 10.2761 14.7807C10.6571 14.3809 11.2901 14.3657 11.6899 14.7467L14.7037 17.6187L20.3101 12.2761C20.71 11.8951 21.3429 11.9103 21.7239 12.3101Z" fill="#868686"/>
</svg>
