<svg width="16" height="17" viewBox="0 0 16 17" fill="none" xmlns="http://www.w3.org/2000/svg">
<path fill-rule="evenodd" clip-rule="evenodd" d="M8 3C4.96243 3 2.5 5.46243 2.5 8.5C2.5 11.5376 4.96243 14 8 14C11.0376 14 13.5 11.5376 13.5 8.5C13.5 5.46243 11.0376 3 8 3ZM1.5 8.5C1.5 4.91015 4.41015 2 8 2C11.5899 2 14.5 4.91015 14.5 8.5C14.5 12.0899 11.5899 15 8 15C4.41015 15 1.5 12.0899 1.5 8.5Z" fill="#868686"/>
<path fill-rule="evenodd" clip-rule="evenodd" d="M10.4981 4.81588C10.7378 4.95288 10.8211 5.25831 10.6841 5.49807L8.54016 9.25H5.5C5.22386 9.25 5 9.02614 5 8.75C5 8.47386 5.22386 8.25 5.5 8.25H7.95984L9.81588 5.00193C9.95288 4.76217 10.2583 4.67887 10.4981 4.81588Z" fill="#868686"/>
</svg>
