<svg width="16" height="15" viewBox="0 0 16 15" fill="none" xmlns="http://www.w3.org/2000/svg">
<path d="M11.1781 1.72759C10.9829 1.53232 10.9829 1.21574 11.1781 1.02048L12.0522 0.146447C12.2474 -0.0488155 12.564 -0.0488155 12.7593 0.146447C12.9545 0.341709 12.9545 0.658291 12.7593 0.853553L11.8852 1.72759C11.69 1.92285 11.3734 1.92285 11.1781 1.72759Z" fill="#868686"/>
<path fill-rule="evenodd" clip-rule="evenodd" d="M8.49644 0.918581C8.96947 0.441285 9.76923 0.557078 10.0875 1.14893L13.7097 7.88566C14.028 8.47752 13.6835 9.20854 13.0245 9.33993L8.96596 10.1491L9.64249 11.4073C9.90404 11.8938 9.72174 12.5001 9.23531 12.7617L6.81323 14.064C6.3268 14.3255 5.72045 14.1432 5.4589 13.6568L4.27499 11.4549L3.39448 11.9284C2.90805 12.1899 2.3017 12.0076 2.04015 11.5212L0.619439 8.87893C0.357893 8.3925 0.540195 7.78615 1.02662 7.52461L1.90738 7.05103C2.10679 6.94381 2.32635 6.91118 2.53405 6.94352C2.55694 6.91462 2.5816 6.88676 2.60802 6.86011L8.49644 0.918581ZM2.43753 8.03761C2.4338 8.03066 2.43015 8.02368 2.42659 8.01668L2.38095 7.93179L1.50019 8.40536L2.92091 11.0476L3.80142 10.5742L2.43753 8.03761ZM12.829 8.35923L4.62559 9.99479L3.31849 7.56383L9.20671 1.62251L12.829 8.35923ZM7.9405 10.3536L5.12049 10.9158L6.33966 13.1832L8.76173 11.8809L7.9405 10.3536Z" fill="#868686"/>
<path d="M12.8226 3.17264C12.5756 3.29614 12.4755 3.59647 12.599 3.84346C12.7225 4.09045 13.0228 4.19056 13.2698 4.06707L14.3754 3.51428C14.6223 3.39079 14.7225 3.09045 14.599 2.84346C14.4755 2.59647 14.1751 2.49636 13.9281 2.61986L12.8226 3.17264Z" fill="#868686"/>
<path d="M14.0468 5.77404C13.7801 5.84551 13.6218 6.11968 13.6932 6.38641C13.7647 6.65315 14.0389 6.81144 14.3056 6.73997L15.4996 6.42005C15.7663 6.34858 15.9246 6.07441 15.8531 5.80768C15.7817 5.54094 15.5075 5.38265 15.2407 5.45412L14.0468 5.77404Z" fill="#868686"/>
</svg>
