<svg width="16" height="17" viewBox="0 0 16 17" fill="none" xmlns="http://www.w3.org/2000/svg">
<path fill-rule="evenodd" clip-rule="evenodd" d="M7.49522 12.6244C7.49522 12.9695 7.77504 13.2494 8.12022 13.2494C8.4654 13.2494 8.74522 12.9695 8.74522 12.6244L8.74522 2.64277L10.3115 4.20906C10.5556 4.45314 10.9513 4.45314 11.1954 4.20906C11.4395 3.96498 11.4395 3.56926 11.1954 3.32518L8.12022 0.25L4.80565 3.56456C4.56158 3.80864 4.56158 4.20437 4.80565 4.44845C5.04973 4.69252 5.44546 4.69252 5.68954 4.44845L7.49522 2.64277V12.6244ZM1.75 9.25889C1.75 8.91371 1.47018 8.63389 1.125 8.63389C0.779822 8.63389 0.5 8.91371 0.5 9.25889V14.8839C0.5 15.9194 1.33947 16.7589 2.375 16.7589H13.625C14.6605 16.7589 15.5 15.9194 15.5 14.8839V9.25889C15.5 8.91371 15.2202 8.63389 14.875 8.63389C14.5298 8.63389 14.25 8.91371 14.25 9.25889V14.8839C14.25 15.2291 13.9702 15.5089 13.625 15.5089H2.375C2.02982 15.5089 1.75 15.2291 1.75 14.8839V9.25889Z" fill="#FF7255"/>
</svg>
