<svg width="20" height="20" viewBox="0 0 20 20" fill="none" xmlns="http://www.w3.org/2000/svg">
<path fill-rule="evenodd" clip-rule="evenodd" d="M10.1974 8.75802C11.6871 8.75802 12.8947 7.55036 12.8947 6.06065C12.8947 4.57093 11.6871 3.36328 10.1974 3.36328C8.70765 3.36328 7.5 4.57093 7.5 6.06065C7.5 7.55036 8.70765 8.75802 10.1974 8.75802ZM10.1974 10.008C12.3774 10.008 14.1447 8.24072 14.1447 6.06065C14.1447 3.88058 12.3774 2.11328 10.1974 2.11328C8.0173 2.11328 6.25 3.88058 6.25 6.06065C6.25 8.24072 8.0173 10.008 10.1974 10.008Z" fill="#868686"/>
<path fill-rule="evenodd" clip-rule="evenodd" d="M10 11.9492C6.8934 11.9492 4.375 14.4676 4.375 17.5742C4.375 17.9194 4.09518 18.1992 3.75 18.1992C3.40482 18.1992 3.125 17.9194 3.125 17.5742C3.125 13.7773 6.20304 10.6992 10 10.6992C13.797 10.6992 16.875 13.7773 16.875 17.5742C16.875 17.9194 16.5952 18.1992 16.25 18.1992C15.9048 18.1992 15.625 17.9194 15.625 17.5742C15.625 14.4676 13.1066 11.9492 10 11.9492Z" fill="#868686"/>
</svg>
