<svg width="16" height="17" viewBox="0 0 16 17" fill="none" xmlns="http://www.w3.org/2000/svg">
<path fill-rule="evenodd" clip-rule="evenodd" d="M1 4.50391C1 3.95162 1.44772 3.50391 2 3.50391H11.1384C11.6906 3.50391 12.1384 3.95162 12.1384 4.50391V5.44342L13.5001 4.65749C14.1668 4.27274 15 4.75387 15 5.5236V11.1531C15 11.9228 14.1668 12.4039 13.5001 12.0192L12.1384 11.2333V12.0039C12.1384 12.5562 11.6906 13.0039 11.1384 13.0039H2C1.44771 13.0039 1 12.5562 1 12.0039V4.50391ZM12.1384 10.0787L14 11.1531L14 5.5236L12.1384 6.59802V10.0787ZM11.1384 4.50391H2V12.0039H11.1384L11.1384 4.50391Z" fill="#868686"/>
</svg>
