<svg width="24" height="24" viewBox="0 0 24 24" fill="none" xmlns="http://www.w3.org/2000/svg">
<path fill-rule="evenodd" clip-rule="evenodd" d="M3.34988 12C3.39823 12.0424 3.44949 12.0868 3.50359 12.1331C3.97644 12.5374 4.66221 13.0777 5.5089 13.6176C7.21435 14.705 9.50913 15.75 12 15.75C14.4908 15.75 16.7856 14.705 18.491 13.6176C19.3377 13.0777 20.0235 12.5374 20.4964 12.1331C20.5505 12.0868 20.6017 12.0424 20.6501 12C20.6017 11.9576 20.5505 11.9132 20.4964 11.8669C20.0235 11.4626 19.3377 10.9223 18.491 10.3824C16.7856 9.29498 14.4908 8.25 12 8.25C9.50913 8.25 7.21435 9.29498 5.5089 10.3824C4.66221 10.9223 3.97644 11.4626 3.50359 11.8669C3.44949 11.9132 3.39823 11.9576 3.34988 12ZM21.75 12C22.2883 11.4778 22.2881 11.4776 22.2879 11.4774L22.2862 11.4757L22.2826 11.4719L22.2704 11.4596C22.2603 11.4493 22.2459 11.4348 22.2273 11.4165C22.1903 11.3799 22.1368 11.3277 22.0677 11.2622C21.9295 11.1313 21.7285 10.9469 21.4712 10.7269C20.9573 10.2874 20.2152 9.70275 19.2975 9.11761C17.4741 7.95502 14.8939 6.75 12 6.75C9.10604 6.75 6.52582 7.95502 4.70247 9.11761C3.78476 9.70275 3.04268 10.2874 2.52876 10.7269C2.27147 10.9469 2.07045 11.1313 1.93224 11.2622C1.86312 11.3277 1.80963 11.3799 1.77261 11.4165C1.7541 11.4348 1.73969 11.4493 1.7295 11.4596L1.71738 11.4719L1.71371 11.4757L1.71248 11.4769C1.71228 11.4771 1.71165 11.4778 2.24998 12L1.71165 11.4778L1.20508 12L1.71165 12.5222L2.24998 12C1.71165 12.5222 1.71145 12.522 1.71165 12.5222L1.71371 12.5243L1.71738 12.5281L1.7295 12.5404C1.73969 12.5507 1.7541 12.5652 1.77261 12.5835C1.80963 12.6201 1.86312 12.6723 1.93224 12.7378C2.07045 12.8687 2.27147 13.0531 2.52876 13.2731C3.04268 13.7126 3.78476 14.2973 4.70247 14.8824C6.52582 16.045 9.10604 17.25 12 17.25C14.8939 17.25 17.4741 16.045 19.2975 14.8824C20.2152 14.2973 20.9573 13.7126 21.4712 13.2731C21.7285 13.0531 21.9295 12.8687 22.0677 12.7378C22.1368 12.6723 22.1903 12.6201 22.2273 12.5835C22.2364 12.5745 22.2445 12.5664 22.2516 12.5593C22.259 12.552 22.2653 12.5456 22.2704 12.5404L22.2826 12.5281L22.2862 12.5243L22.2875 12.5231C22.2877 12.5229 22.2883 12.5222 21.75 12ZM21.75 12L22.2883 12.5222L22.7949 12L22.2879 11.4774L21.75 12Z" fill="#868686"/>
<path fill-rule="evenodd" clip-rule="evenodd" d="M12 13.5C12.8284 13.5 13.5 12.8284 13.5 12C13.5 11.1716 12.8284 10.5 12 10.5C11.1716 10.5 10.5 11.1716 10.5 12C10.5 12.8284 11.1716 13.5 12 13.5ZM12 15C13.6569 15 15 13.6569 15 12C15 10.3431 13.6569 9 12 9C10.3431 9 9 10.3431 9 12C9 13.6569 10.3431 15 12 15Z" fill="#868686"/>
</svg>
