<svg width="20" height="20" viewBox="0 0 20 20" fill="none" xmlns="http://www.w3.org/2000/svg">
<path d="M8.75 12.6044C9.44036 12.6044 10 12.0448 10 11.3544C10 10.664 9.44036 10.1044 8.75 10.1044C8.05964 10.1044 7.5 10.664 7.5 11.3544C7.5 12.0448 8.05964 12.6044 8.75 12.6044Z" fill="#868686"/>
<path fill-rule="evenodd" clip-rule="evenodd" d="M4.70866 4.75928L4.59526 5.1044H4.375C2.99429 5.1044 1.875 6.22369 1.875 7.6044V15.1044C1.875 16.4851 2.99429 17.6044 4.375 17.6044H15.625C17.0057 17.6044 18.125 16.4851 18.125 15.1044V7.6044C18.125 6.39315 17.2636 5.3831 16.12 5.1534L16.1263 5.13357L8.62139 2.75571C6.98846 2.23833 5.24336 3.13193 4.70866 4.75928ZM8.24384 3.94733L11.8957 5.1044H5.91163C6.24945 4.15665 7.27926 3.64171 8.24384 3.94733ZM4.375 6.3544H15.625C16.3154 6.3544 16.875 6.91404 16.875 7.6044V15.1044C16.875 15.7948 16.3154 16.3544 15.625 16.3544H4.375C3.68464 16.3544 3.125 15.7948 3.125 15.1044V14.4794H8.75C10.4759 14.4794 11.875 13.0803 11.875 11.3544C11.875 9.62851 10.4759 8.2294 8.75 8.2294H3.125V7.6044C3.125 6.91404 3.68464 6.3544 4.375 6.3544ZM3.125 9.4794V13.2294H8.75C9.78553 13.2294 10.625 12.3899 10.625 11.3544C10.625 10.3189 9.78553 9.4794 8.75 9.4794H3.125Z" fill="#868686"/>
</svg>
