<svg width="20" height="20" viewBox="0 0 20 20" fill="none" xmlns="http://www.w3.org/2000/svg">
<path fill-rule="evenodd" clip-rule="evenodd" d="M8.72612 17.4926C8.93267 17.4992 9.30109 17.5 10 17.5C10.6989 17.5 11.0673 17.4992 11.2739 17.4926C11.3056 17.371 11.3432 17.2139 11.379 17.0475L11.3793 17.0461L11.5981 16.0428L12.191 15.8222L12.1964 15.8202C12.3225 15.7746 12.5058 15.6957 12.5874 15.6564C12.645 15.6277 12.7031 15.6005 12.7529 15.5789C12.7776 15.5682 12.8064 15.5563 12.8351 15.5458C12.8489 15.5407 12.8702 15.5332 12.8951 15.5261C12.8953 15.5261 12.8957 15.526 12.8961 15.5259C12.9067 15.5227 12.982 15.5005 13.0754 15.5005C13.1572 15.5005 13.2197 15.5169 13.2397 15.5222C13.2678 15.5297 13.2901 15.5378 13.303 15.5427C13.3292 15.5526 13.3504 15.5625 13.362 15.5681C13.3868 15.5799 13.4106 15.5928 13.4289 15.6028C13.4674 15.6241 13.5141 15.6515 13.5635 15.6812C13.6638 15.7416 13.7938 15.8228 13.9307 15.9108C14.0638 15.9963 14.1922 16.0785 14.2924 16.1418C14.3303 16.1658 14.3633 16.1865 14.3904 16.2033C14.4424 16.1562 14.505 16.0982 14.5765 16.0308C14.7806 15.8381 15.0417 15.5831 15.3022 15.323C15.5627 15.0629 15.8188 14.8015 16.0129 14.5964C16.0887 14.5165 16.1528 14.4473 16.2033 14.3913C16.1554 14.3109 16.0713 14.1795 15.9113 13.9316L15.9108 13.9307C15.8228 13.7938 15.7416 13.6638 15.6812 13.5635C15.6515 13.5141 15.6241 13.4674 15.6028 13.4289C15.5928 13.4106 15.5799 13.3868 15.5681 13.362C15.5625 13.3504 15.5526 13.3292 15.5427 13.303C15.5378 13.2901 15.5297 13.2678 15.5222 13.2397C15.5169 13.2197 15.5005 13.1572 15.5005 13.0754C15.5005 12.982 15.5227 12.9067 15.5258 12.8961C15.526 12.8957 15.5261 12.8953 15.5261 12.8951C15.5332 12.8702 15.5407 12.8489 15.5458 12.8351C15.5563 12.8064 15.5682 12.7776 15.5789 12.7529C15.6005 12.7032 15.6277 12.645 15.6564 12.5875C15.6957 12.5058 15.7746 12.3225 15.8202 12.1964L15.8223 12.1907L16.0498 11.5977L17.0008 11.389L17.0032 11.3885C17.1793 11.3506 17.3106 11.3212 17.4115 11.2961C17.4461 11.2875 17.4753 11.2798 17.5 11.273V8.72699C17.4753 8.72017 17.4461 8.71251 17.4115 8.7039C17.3106 8.67879 17.1793 8.6494 17.0032 8.61149L17.0008 8.61097L16.0498 8.40233L15.8223 7.80933L15.8202 7.80365C15.7746 7.67746 15.6957 7.49414 15.6564 7.41252C15.6277 7.35495 15.6005 7.29684 15.5789 7.24709C15.5682 7.22242 15.5563 7.19358 15.5458 7.16489C15.5407 7.15112 15.5332 7.1298 15.5261 7.10487C15.5261 7.10467 15.526 7.10432 15.5258 7.10386C15.5227 7.0933 15.5005 7.01801 15.5005 6.92456C15.5005 6.84284 15.5169 6.78028 15.5222 6.7603C15.5297 6.73222 15.5378 6.70993 15.5427 6.69697C15.5526 6.67085 15.5625 6.64957 15.5681 6.638C15.5799 6.61322 15.5928 6.58936 15.6028 6.57111C15.6241 6.53259 15.6515 6.48589 15.6812 6.4365C15.7416 6.33618 15.8228 6.20618 15.9108 6.06925L15.9113 6.0684C16.0713 5.82045 16.1554 5.68908 16.2033 5.60868C16.1528 5.55272 16.0887 5.48353 16.0129 5.40355C15.8188 5.19849 15.5627 4.93709 15.3022 4.67702C15.0417 4.41693 14.7806 4.16186 14.5765 3.96922C14.505 3.90181 14.4424 3.84379 14.3904 3.79674C14.3633 3.81353 14.3303 3.8342 14.2924 3.85819C14.1922 3.92148 14.0638 4.0037 13.9307 4.08921C13.7938 4.17724 13.6638 4.25844 13.5635 4.3188C13.5141 4.34851 13.4674 4.3759 13.4289 4.39717C13.4106 4.40724 13.3868 4.42009 13.362 4.43194C13.3504 4.43748 13.3292 4.4474 13.303 4.45731C13.2901 4.46222 13.2678 4.47025 13.2397 4.47778C13.2197 4.48314 13.1572 4.49951 13.0754 4.49951C12.982 4.49951 12.9067 4.47727 12.8961 4.47415C12.8957 4.47401 12.8953 4.47391 12.8951 4.47385C12.8702 4.46677 12.8489 4.45928 12.8351 4.45424C12.8064 4.44375 12.7776 4.43176 12.7529 4.42108C12.7032 4.39954 12.6451 4.37229 12.5875 4.34359C12.5059 4.30434 12.3225 4.22542 12.1964 4.17978L11.5981 3.95718L11.3793 2.95393L11.379 2.95248C11.3432 2.78614 11.3056 2.62895 11.2739 2.50737C11.0673 2.50082 10.6989 2.5 10 2.5C9.30109 2.5 8.93267 2.50082 8.72612 2.50737C8.69436 2.62895 8.65683 2.78614 8.62098 2.95248L8.40195 3.95718L7.80902 4.17781L7.80365 4.17978C7.67748 4.22541 7.49418 4.30432 7.41254 4.34357C7.35497 4.37228 7.29684 4.39953 7.24708 4.42108C7.22242 4.43176 7.19358 4.44375 7.16488 4.45424C7.15112 4.45928 7.1298 4.46677 7.10487 4.47385C7.10467 4.47391 7.10432 4.47401 7.10386 4.47415C7.0933 4.47727 7.01801 4.49951 6.92456 4.49951C6.84284 4.49951 6.78028 4.48314 6.7603 4.47778C6.73222 4.47025 6.70993 4.46222 6.69697 4.45731C6.67085 4.4474 6.64957 4.43748 6.638 4.43194C6.61322 4.42009 6.58936 4.40724 6.57111 4.39717C6.53259 4.3759 6.48589 4.34851 6.4365 4.3188C6.33618 4.25844 6.20618 4.17724 6.06925 4.08921L6.0684 4.08866C5.82045 3.9287 5.68908 3.84455 5.60868 3.79673C5.55272 3.84715 5.48353 3.91135 5.40355 3.98708C5.19849 4.18122 4.93709 4.4373 4.67702 4.69777C4.41693 4.95825 4.16186 5.21942 3.96922 5.42354C3.90181 5.49498 3.84379 5.55758 3.79674 5.60961C3.81353 5.63669 3.8342 5.66966 3.85819 5.70762C3.92148 5.8078 4.0037 5.93623 4.08921 6.06925C4.17724 6.20618 4.25844 6.33618 4.3188 6.4365C4.34851 6.48589 4.3759 6.53259 4.39717 6.57111C4.40724 6.58936 4.42009 6.61322 4.43194 6.638C4.43748 6.64957 4.4474 6.67085 4.45731 6.69697C4.46222 6.70993 4.47025 6.73222 4.47778 6.7603C4.48314 6.78028 4.49951 6.84284 4.49951 6.92456C4.49951 7.01803 4.47726 7.09333 4.47415 7.10387C4.47401 7.10433 4.47391 7.10467 4.47385 7.10488C4.46677 7.1298 4.45928 7.15112 4.45424 7.16489C4.44375 7.19358 4.43176 7.22242 4.42108 7.24709C4.39953 7.29685 4.37227 7.35498 4.34356 7.41256C4.3043 7.49421 4.22541 7.67749 4.17978 7.80365L4.17772 7.80933L3.95017 8.40233L2.99917 8.61097L2.99675 8.61149C2.82065 8.6494 2.68944 8.67879 2.5885 8.7039C2.55391 8.71251 2.52469 8.72017 2.5 8.72699V11.273C2.52469 11.2798 2.55391 11.2875 2.5885 11.2961C2.68944 11.3212 2.82065 11.3506 2.99675 11.3885L3.95018 11.5977L4.17772 12.1907L4.17978 12.1964C4.22541 12.3225 4.30429 12.5058 4.34355 12.5874C4.37226 12.645 4.39953 12.7031 4.42108 12.7529C4.43176 12.7776 4.44375 12.8064 4.45424 12.8351C4.45928 12.8489 4.46677 12.8702 4.47385 12.8951C4.47391 12.8953 4.47401 12.8957 4.47415 12.8961C4.47726 12.9067 4.49951 12.982 4.49951 13.0754C4.49951 13.1572 4.48314 13.2197 4.47778 13.2397C4.47025 13.2678 4.46222 13.2901 4.45731 13.303C4.4474 13.3292 4.43748 13.3504 4.43194 13.362C4.42009 13.3868 4.40724 13.4106 4.39717 13.4289C4.3759 13.4674 4.34851 13.5141 4.3188 13.5635C4.25844 13.6638 4.17724 13.7938 4.08921 13.9307L4.08866 13.9316C3.9287 14.1795 3.84455 14.3109 3.79673 14.3913C3.84715 14.4473 3.91135 14.5165 3.98708 14.5964C4.18122 14.8015 4.4373 15.0629 4.69777 15.323C4.95825 15.5831 5.21942 15.8381 5.42354 16.0308C5.49498 16.0982 5.55758 16.1562 5.60961 16.2033C5.63669 16.1865 5.66966 16.1658 5.70762 16.1418C5.8078 16.0785 5.93623 15.9963 6.06925 15.9108C6.20618 15.8228 6.33618 15.7416 6.4365 15.6812C6.48589 15.6515 6.53259 15.6241 6.57111 15.6028C6.58936 15.5928 6.61322 15.5799 6.638 15.5681C6.64957 15.5625 6.67085 15.5526 6.69697 15.5427C6.70993 15.5378 6.73222 15.5297 6.7603 15.5222C6.78028 15.5169 6.84284 15.5005 6.92456 15.5005C7.01804 15.5005 7.09334 15.5227 7.10387 15.5259C7.10433 15.526 7.10467 15.5261 7.10488 15.5261C7.1298 15.5332 7.15112 15.5407 7.16489 15.5458C7.19358 15.5563 7.22242 15.5682 7.24709 15.5789C7.29686 15.6005 7.355 15.6277 7.41259 15.6565C7.49424 15.6957 7.6775 15.7746 7.80365 15.8202L8.40195 16.0428L8.62067 17.0461L8.62098 17.0475C8.65683 17.2139 8.69437 17.371 8.72612 17.4926ZM5.74387 16.3183C5.7437 16.318 5.74016 16.3153 5.73375 16.3109C5.74083 16.3164 5.74403 16.3186 5.74387 16.3183ZM3.70083 14.2803C3.69713 14.275 3.69485 14.2721 3.69463 14.2719C3.69441 14.2718 3.69627 14.2745 3.70083 14.2803ZM3.68169 5.74387C3.68197 5.7437 3.68473 5.74016 3.68913 5.73375C3.68361 5.74083 3.68141 5.74403 3.68169 5.74387ZM5.71968 3.70083C5.72504 3.69711 5.72796 3.69482 5.72807 3.69463C5.72817 3.69444 5.7255 3.69629 5.71968 3.70083ZM14.2561 3.68168C14.2563 3.68194 14.2598 3.68471 14.2662 3.68913C14.2592 3.68364 14.256 3.68143 14.2561 3.68168ZM16.2992 5.71968C16.3028 5.72495 16.3051 5.72787 16.3054 5.72806C16.3056 5.72825 16.3038 5.7256 16.2992 5.71968ZM16.3054 14.2719C16.3052 14.2721 16.3029 14.275 16.2992 14.2803C16.3037 14.2745 16.3056 14.2718 16.3054 14.2719ZM14.2663 16.3109C14.2598 16.3153 14.2563 16.318 14.2561 16.3183C14.256 16.3186 14.2592 16.3164 14.2663 16.3109ZM8.64112 18.7404C8.87082 18.7493 9.27256 18.75 10 18.75C10.7274 18.75 11.1292 18.7493 11.3589 18.7404C11.4703 18.7361 11.577 18.7289 11.6729 18.7096C11.7946 18.6851 11.8833 18.6448 11.9571 18.6007C12.0962 18.5204 12.2282 18.3947 12.3071 18.2808L12.3132 18.272L12.3189 18.263C12.3602 18.1988 12.3841 18.1353 12.3907 18.1179L12.3913 18.1161C12.4024 18.0868 12.4125 18.0564 12.4211 18.0289C12.4387 17.973 12.4576 17.9056 12.4767 17.8335C12.5152 17.6881 12.5594 17.5036 12.6007 17.3119C12.6008 17.3115 12.6009 17.3112 12.601 17.3109L12.6739 16.9763C12.7942 16.9308 12.932 16.8728 13.038 16.8251C13.1034 16.8658 13.1772 16.9124 13.2548 16.9623C13.3884 17.0481 13.5202 17.1325 13.6247 17.1986C13.7008 17.2466 13.7974 17.3076 13.8584 17.3407C14.1323 17.4901 14.5105 17.5445 14.8315 17.4178L14.8378 17.4153L14.8441 17.4127C14.9383 17.3731 15.0158 17.3118 15.0349 17.2966C15.036 17.2958 15.0369 17.2951 15.0376 17.2945C15.0737 17.2662 15.1129 17.233 15.1515 17.1992C15.2298 17.1307 15.3272 17.041 15.4344 16.9399C15.6498 16.7366 15.9199 16.4727 16.1854 16.2075C16.451 15.9423 16.7159 15.6721 16.9206 15.4559C17.0225 15.3483 17.113 15.2503 17.1824 15.1714C17.2167 15.1324 17.2501 15.0931 17.2786 15.0571C17.2792 15.0563 17.2799 15.0554 17.2806 15.0544C17.2968 15.034 17.3512 14.9655 17.3901 14.8822C17.427 14.8032 17.4667 14.7011 17.484 14.5776C17.5014 14.4532 17.4912 14.3426 17.4728 14.248C17.4498 14.1214 17.4207 14.0094 17.3278 13.8399C17.2604 13.7168 17.147 13.5411 16.9668 13.2619L16.9623 13.2548C16.9124 13.1772 16.8658 13.1034 16.8251 13.038C16.8728 12.9321 16.9308 12.7944 16.9762 12.6742L17.2663 12.6105C17.2667 12.6104 17.2671 12.6103 17.2675 12.6103C17.6062 12.5373 17.8607 12.4795 18.0415 12.4112C18.1424 12.3731 18.2491 12.3218 18.3499 12.2432C18.4538 12.1621 18.5223 12.0746 18.5707 12.0023C18.5711 12.0016 18.5716 12.0009 18.572 12.0003L18.75 11.7372V8.2628L18.572 7.99975C18.5716 7.99911 18.5712 7.99847 18.5707 7.99782C18.5223 7.92548 18.4539 7.83797 18.3499 7.75682C18.2491 7.67817 18.1424 7.62687 18.0415 7.58878C17.8607 7.52047 17.6063 7.46268 17.2676 7.38976C17.2671 7.38967 17.2667 7.38958 17.2663 7.38948L16.9762 7.32584C16.9308 7.20562 16.8728 7.06794 16.8251 6.96197C16.8657 6.89662 16.9123 6.82288 16.9622 6.74537C16.9622 6.74531 16.9621 6.74542 16.9622 6.74537L16.9669 6.73807C17.147 6.45889 17.2604 6.28316 17.3278 6.1601C17.4207 5.99065 17.4498 5.87858 17.4728 5.75196C17.4912 5.65741 17.5014 5.54682 17.484 5.42238C17.4667 5.29895 17.427 5.19683 17.3901 5.11778C17.3512 5.03452 17.2968 4.966 17.2807 4.94559L17.2786 4.94294C17.2501 4.90685 17.2167 4.86763 17.1824 4.82862C17.113 4.74969 17.0225 4.65174 16.9206 4.54414C16.7159 4.32787 16.451 4.05766 16.1854 3.79247C15.9199 3.52728 15.6498 3.26343 15.4344 3.06014C15.3272 2.95902 15.2298 2.86926 15.1515 2.80075C15.1129 2.76695 15.0737 2.73377 15.0376 2.70549C15.0369 2.70495 15.036 2.70424 15.0349 2.70339C15.0158 2.68824 14.9383 2.62692 14.8441 2.58734L14.8378 2.58471L14.8315 2.58223C14.5105 2.45552 14.1323 2.50992 13.8584 2.65932C13.7974 2.69238 13.7008 2.75336 13.6247 2.80142C13.5202 2.86746 13.3884 2.95187 13.2548 3.03774C13.1772 3.08761 13.1034 3.13424 13.038 3.17486C12.932 3.12717 12.7942 3.06916 12.6739 3.0237L12.601 2.68913C12.6009 2.68881 12.6008 2.68849 12.6008 2.68817C12.5594 2.49642 12.5152 2.31189 12.4767 2.16655C12.4576 2.09437 12.4387 2.02697 12.4211 1.97111C12.4125 1.94361 12.4024 1.91323 12.3913 1.88385L12.3907 1.88213C12.3841 1.86469 12.3602 1.8012 12.3189 1.73698L12.3132 1.72799L12.3071 1.7192C12.2282 1.60527 12.0962 1.47963 11.9571 1.39932C11.8833 1.35526 11.7947 1.31489 11.6729 1.29039C11.577 1.27111 11.4703 1.26393 11.3589 1.2596C11.1292 1.25066 10.7274 1.25 10 1.25C9.27256 1.25 8.87082 1.25066 8.64112 1.2596C8.52966 1.26393 8.42298 1.27111 8.32714 1.29039C8.20536 1.31488 8.11672 1.35525 8.04294 1.3993C7.9038 1.47962 7.77179 1.60526 7.69292 1.7192L7.68683 1.72799L7.68105 1.73698C7.63977 1.80119 7.6159 1.86467 7.60934 1.88212L7.60869 1.88385C7.5976 1.91323 7.58753 1.94361 7.57889 1.97111C7.56134 2.02697 7.54236 2.09437 7.52325 2.16655C7.48476 2.31196 7.44055 2.49657 7.39919 2.68841C7.39914 2.68865 7.39909 2.68889 7.39904 2.68913L7.3261 3.0237C7.20582 3.06916 7.06802 3.12717 6.96196 3.17486C6.89658 3.13424 6.82278 3.08762 6.74522 3.03775C6.74522 3.03775 6.74523 3.03776 6.74522 3.03775L6.73811 3.03317C6.4589 2.85303 6.28316 2.73965 6.1601 2.67221C5.99065 2.57935 5.87858 2.55022 5.75196 2.52719C5.65741 2.50881 5.54682 2.49863 5.42238 2.51605C5.29895 2.53333 5.19683 2.57301 5.11778 2.60991C5.03451 2.64878 4.96599 2.70316 4.94558 2.71935C4.94458 2.72014 4.9437 2.72085 4.94294 2.72145C4.90685 2.74993 4.86763 2.78333 4.82862 2.81761C4.74969 2.88698 4.65174 2.9775 4.54414 3.07938C4.32787 3.28414 4.05766 3.54896 3.79247 3.81456C3.52728 4.08014 3.26343 4.35019 3.06013 4.56561C2.95902 4.67275 2.86926 4.77021 2.80075 4.84851C2.76695 4.88715 2.73377 4.9263 2.70549 4.96242C2.70495 4.96311 2.70424 4.964 2.7034 4.96507C2.68825 4.98421 2.62692 5.06167 2.58734 5.15593L2.58471 5.16217L2.58223 5.16847C2.45552 5.48947 2.50992 5.86766 2.65932 6.14157C2.69238 6.20262 2.75336 6.2992 2.80142 6.37527C2.86746 6.47979 2.95187 6.61162 3.03774 6.7452C3.08761 6.82277 3.13424 6.89657 3.17486 6.96196C3.1272 7.06794 3.06925 7.20562 3.0238 7.32584L2.73372 7.38948C2.73329 7.38957 2.73287 7.38967 2.73244 7.38976C2.39372 7.46267 2.13929 7.52047 1.95845 7.58878C1.85761 7.62687 1.7509 7.67817 1.65011 7.75682C1.54618 7.83793 1.47771 7.92541 1.42931 7.99773C1.42886 7.99841 1.42841 7.99908 1.42797 7.99975L1.25 8.2628V11.7372L1.42931 12.0023C1.47771 12.0746 1.54618 12.1621 1.65011 12.2432C1.7509 12.3218 1.85761 12.3731 1.95845 12.4112C2.13932 12.4795 2.39377 12.5373 2.73255 12.6103C2.73294 12.6104 2.73333 12.6104 2.73372 12.6105L3.0238 12.6742C3.06925 12.7944 3.1272 12.9321 3.17486 13.038C3.1343 13.1033 3.08775 13.177 3.03797 13.2544C3.03789 13.2546 3.03804 13.2543 3.03797 13.2544L3.03315 13.2619C2.85302 13.5411 2.73965 13.7168 2.67221 13.8399C2.57934 14.0094 2.55021 14.1214 2.52719 14.2481C2.5088 14.3426 2.49863 14.4532 2.51605 14.5776C2.53333 14.7011 2.57301 14.8032 2.60991 14.8822C2.64878 14.9655 2.70316 15.034 2.71935 15.0544C2.72014 15.0554 2.72085 15.0563 2.72145 15.0571C2.74993 15.0931 2.78333 15.1324 2.81761 15.1714C2.88698 15.2503 2.9775 15.3483 3.07938 15.4559C3.28414 15.6721 3.54896 15.9423 3.81456 16.2075C4.08014 16.4727 4.35019 16.7366 4.56561 16.9399C4.67275 17.041 4.77021 17.1307 4.84851 17.1992C4.88715 17.233 4.9263 17.2662 4.96242 17.2945C4.96311 17.2951 4.964 17.2958 4.96507 17.2966C4.98421 17.3118 5.06167 17.3731 5.15593 17.4127L5.16217 17.4153L5.16847 17.4178C5.48947 17.5445 5.86766 17.4901 6.14157 17.3407C6.20262 17.3076 6.2992 17.2466 6.37527 17.1986C6.47979 17.1325 6.61162 17.0481 6.7452 16.9623C6.82277 16.9124 6.89657 16.8658 6.96196 16.8251C7.06801 16.8728 7.20582 16.9308 7.3261 16.9763L7.39904 17.3109C7.39909 17.3111 7.39914 17.3113 7.39919 17.3116C7.44054 17.5034 7.48476 17.688 7.52325 17.8335C7.54236 17.9056 7.56134 17.973 7.57889 18.0289C7.58753 18.0564 7.5976 18.0868 7.60869 18.1161C7.60888 18.1167 7.6091 18.1172 7.60934 18.1179C7.6159 18.1353 7.63977 18.1988 7.68105 18.263L7.68683 18.272L7.69292 18.2808C7.7718 18.3947 7.90382 18.5204 8.04297 18.6007C8.11674 18.6448 8.20538 18.6851 8.32714 18.7096C8.42298 18.7289 8.52966 18.7361 8.64112 18.7404Z" fill="#868686"/>
<path fill-rule="evenodd" clip-rule="evenodd" d="M10 12.5C11.3807 12.5 12.5 11.3807 12.5 10C12.5 8.61929 11.3807 7.5 10 7.5C8.61929 7.5 7.5 8.61929 7.5 10C7.5 11.3807 8.61929 12.5 10 12.5ZM10 13.75C12.0711 13.75 13.75 12.0711 13.75 10C13.75 7.92893 12.0711 6.25 10 6.25C7.92893 6.25 6.25 7.92893 6.25 10C6.25 12.0711 7.92893 13.75 10 13.75Z" fill="#868686"/>
</svg>
